<svg width="112" height="112" viewBox="0 0 112 112" fill="none" xmlns="http://www.w3.org/2000/svg">
<rect width="112" height="112" rx="16" fill="white"/>
<path d="M56.3474 2.57031H10V49.1069H56.3474V2.57031Z" fill="#F08C21"/>
<path d="M27.1763 18.9707C27.1763 17.8289 27.2837 16.6871 26.1466 15.9728V10.5508H37.6944V15.9748C36.5572 16.6892 36.6647 17.831 36.6647 18.9728V32.7089C36.6647 33.8506 36.5572 34.9924 37.6944 35.7068V41.1308H26.1445V35.7048C27.2817 34.9904 27.1742 33.8486 27.1742 32.7068V18.9707H27.1763Z" fill="#FEFEFE"/>
<path d="M102.969 49.0039H56.6211V95.5405H102.969V49.0039Z" fill="#F08C21"/>
<path d="M80.4429 69.4577H80.5159L83.7692 56.7148H95.6292V62.2325C94.4718 62.9591 94.5812 64.1212 94.5812 65.2813V79.2596C94.5812 80.4218 94.4718 81.5839 95.6292 82.3085V87.8261H84.3124V82.3085C85.4699 81.5819 85.3604 80.4197 85.3604 79.2596V70.9089H85.2874L81.0936 87.8282H78.0571L73.6463 70.9089H73.5734V79.2596C73.5734 80.4218 73.4639 81.5839 74.6213 82.3085V87.8261H65.0762V82.3085C66.2336 81.5819 66.1241 80.4197 66.1241 79.2596V65.2834C66.1241 64.1212 66.2336 62.9591 65.0762 62.2345V56.7148H77.2605L80.4429 69.4577Z" fill="#FEFEFE"/>
<path d="M26.6915 75.5646C25.8219 76.5049 25.3881 77.8319 25.3881 79.5456C25.3881 80.8054 25.8563 81.7803 26.7928 82.4703C27.7293 83.1602 29.0509 83.5062 30.7576 83.5062C32.4036 83.5062 33.8164 83.0178 34.9961 82.0388C36.1738 81.0598 37.0738 79.6657 37.692 77.8522C38.3123 76.0388 38.6204 73.9119 38.6204 71.4696H44.6021C44.6021 75.0944 44.0284 78.2247 42.8791 80.8563C41.7318 83.4879 40.0474 85.5089 37.8258 86.9194C35.6042 88.3298 32.9083 89.0361 29.736 89.0361C27.5914 89.0361 25.755 88.6636 24.2286 87.9207C22.7023 87.1779 21.5388 86.0971 20.7381 84.6785C19.9375 83.26 19.5361 81.5503 19.5361 79.5476C19.5361 76.8468 20.3186 74.6853 21.8814 73.0632C23.4442 71.4411 25.6476 70.5008 28.4874 70.2423L30.3907 74.1562C28.7955 74.1541 27.561 74.6243 26.6915 75.5646ZM27.7455 75.5422C26.6428 74.3739 25.7246 73.1955 24.9928 72.0049C24.2591 70.8142 23.7037 69.589 23.3266 68.3312C22.9496 67.0714 22.7611 65.7749 22.7611 64.4397C22.7611 61.5435 23.5699 59.3007 25.1854 57.7152C26.8009 56.1297 29.0894 55.3359 32.0509 55.3359C34.9961 55.3359 37.2744 56.0992 38.8839 57.6236C40.4933 59.148 41.2981 61.3054 41.2981 64.0978V65.0076H35.0893V64.0978C35.0893 62.7627 34.8258 61.7247 34.2968 60.9798C33.7677 60.2369 33.0198 59.8644 32.0529 59.8644C30.934 59.8644 30.0664 60.2633 29.4462 61.0591C28.8259 61.8549 28.5178 62.9825 28.5178 64.4377C28.5178 65.2416 28.7144 66.1412 29.1076 67.1344C29.5009 68.1277 30.0705 69.1819 30.8184 70.2973C31.5664 71.4126 32.4623 72.5462 33.5042 73.6982L47.0791 88.6921H40.0778L27.7455 75.5422Z" fill="#2A276A"/>
<path d="M18.1162 102.227C18.1162 101.907 18.1455 101.587 17.8281 101.385V99.8633H21.0526V101.385C20.7352 101.584 20.7646 101.904 20.7646 102.227V106.077C20.7646 106.397 20.7352 106.717 21.0526 106.919V108.441H17.8281V106.919C18.1455 106.72 18.1162 106.4 18.1162 106.077V102.227Z" fill="#F08C21"/>
<path d="M25.2314 106.077C25.2314 106.397 25.202 106.717 25.5194 106.919V108.441H22.2949V106.919C22.6123 106.72 22.583 106.4 22.583 106.077V102.227C22.583 101.907 22.6123 101.587 22.2949 101.385V99.8633H25.9755C26.6316 99.8633 27.453 99.8526 28.0291 100.202C28.7226 100.614 28.9626 101.342 28.9626 102.122C28.9626 103.063 28.6852 103.883 27.6931 104.133V104.152C28.5279 104.351 28.8052 104.711 28.8052 105.583V106.072C28.8052 106.362 28.8052 106.782 29.1333 106.914V108.435H26.2849C26.1755 107.965 26.1062 107.564 26.1355 106.134C26.1355 105.453 26.0662 105.115 25.3407 105.093H25.2314V106.077ZM25.2314 103.386H25.4981C26.0742 103.386 26.2529 103.085 26.2529 102.485C26.2529 101.934 26.0742 101.635 25.4981 101.635H25.2314V103.386Z" fill="#F08C21"/>
<path d="M36.732 105.958C36.732 108.079 35.4411 108.609 33.5662 108.609C31.6913 108.609 30.4004 108.079 30.4004 105.958V102.347C30.4004 100.225 31.6913 99.6953 33.5662 99.6953C35.4411 99.6953 36.732 100.225 36.732 102.347V105.958ZM33.0488 106.087C33.0488 106.146 33.0194 106.756 33.5635 106.756C34.1103 106.756 34.0809 106.146 34.0809 106.087V102.204C34.0809 102.145 34.1103 101.543 33.5635 101.543C33.0168 101.543 33.0488 102.142 33.0488 102.204V106.087Z" fill="#F08C21"/>
<path d="M42.4769 103.738H42.4955V102.227C42.4955 101.907 42.5249 101.587 42.2075 101.385V99.8633H44.9252V101.385C44.6079 101.584 44.6372 101.904 44.6372 102.227V108.438H42.0661L40.4872 104.588H40.4686V106.077C40.4686 106.397 40.4392 106.717 40.7566 106.919V108.441H38.1162V106.919C38.4336 106.72 38.4043 106.4 38.4043 106.077V102.227C38.4043 101.907 38.4336 101.587 38.1162 101.385V99.8633H40.994L42.4769 103.738Z" fill="#F08C21"/>
<path d="M51.8635 105.619C51.6768 105.82 51.5861 106.105 51.5861 106.474C51.5861 106.745 51.6874 106.952 51.8875 107.1C52.0875 107.248 52.3702 107.323 52.7356 107.323C53.0876 107.323 53.389 107.219 53.6424 107.009C53.8958 106.799 54.0851 106.498 54.2185 106.111C54.3518 105.721 54.4158 105.264 54.4158 104.739H55.696C55.696 105.516 55.5733 106.189 55.328 106.753C55.0826 107.318 54.7225 107.754 54.2478 108.055C53.7731 108.359 53.197 108.509 52.5169 108.509C52.0581 108.509 51.6661 108.429 51.3407 108.27C51.0153 108.111 50.7646 107.877 50.5939 107.573C50.4232 107.27 50.3379 106.901 50.3379 106.471C50.3379 105.89 50.5059 105.428 50.8393 105.078C51.1727 104.729 51.6448 104.527 52.2528 104.473L52.6609 105.312C52.3142 105.315 52.0501 105.417 51.8635 105.619ZM52.0901 105.613C51.8554 105.363 51.6581 105.11 51.5007 104.852C51.3434 104.597 51.226 104.333 51.1433 104.064C51.0633 103.793 51.0233 103.516 51.0233 103.228C51.0233 102.607 51.1967 102.126 51.5407 101.784C51.8875 101.443 52.3755 101.273 53.0076 101.273C53.637 101.273 54.1251 101.437 54.4692 101.766C54.8132 102.094 54.9866 102.556 54.9866 103.156V103.352H53.6584V103.156C53.6584 102.868 53.6024 102.645 53.4877 102.486C53.3757 102.327 53.2157 102.247 53.0076 102.247C52.7676 102.247 52.5836 102.333 52.4502 102.502C52.3169 102.674 52.2528 102.916 52.2528 103.228C52.2528 103.4 52.2955 103.594 52.3782 103.806C52.4609 104.019 52.5836 104.247 52.7436 104.487C52.9036 104.726 53.0956 104.971 53.317 105.218L56.2188 108.437H54.7226L52.0901 105.613Z" fill="#2B2868"/>
<path d="M65.368 103.375H65.3867L66.2801 99.8633H69.534V101.385C69.2166 101.584 69.2459 101.904 69.2459 102.227V106.077C69.2459 106.397 69.2166 106.717 69.534 106.919V108.441H66.4295V106.919C66.7469 106.72 66.7175 106.4 66.7175 106.077V103.776H66.6989L65.5467 108.438H64.7119L63.5011 103.776H63.4824V106.077C63.4824 106.397 63.453 106.717 63.7704 106.919V108.441H61.1514V106.919C61.4687 106.72 61.4394 106.4 61.4394 106.077V102.227C61.4394 101.907 61.4687 101.587 61.1514 101.385V99.8633H64.4959L65.368 103.375Z" fill="#F08C21"/>
<path d="M77.2554 105.337V108.437H70.8838V106.915C71.2012 106.716 71.1718 106.396 71.1718 106.073V102.223C71.1718 101.903 71.2012 101.583 70.8838 101.381V99.8594H77.2554V102.761H74.815V102.5C74.815 101.919 74.735 101.68 74.0203 101.68H73.8602V103.21H75.5378V104.879H73.8602V106.611H74.0203C74.8151 106.611 74.8044 106.31 74.815 105.611V105.331H77.2554V105.337Z" fill="#F08C21"/>
<path d="M78.0908 99.8633H85.4226V103.735H83.5476V102.294C83.5476 101.904 83.457 101.694 83.0809 101.684V106.075C83.0809 106.395 83.0516 106.715 83.3689 106.916V108.438H80.1445V106.916C80.4618 106.717 80.4325 106.397 80.4325 106.075V101.684C80.0564 101.694 79.9658 101.904 79.9658 102.294V103.735H78.0908V99.8633Z" fill="#F08C21"/>
<path d="M88.7878 108.438H85.8594V106.916C86.1474 106.717 86.1768 106.276 86.2568 105.945L87.3769 99.8633H91.1482L92.3884 106.075C92.439 106.343 92.5377 106.825 92.8337 106.916V108.438H89.4893V106.916C89.6973 106.836 89.796 106.677 89.796 106.446C89.796 106.357 89.7773 106.276 89.756 106.196H88.4758C88.4571 106.276 88.4358 106.365 88.4358 106.446C88.4358 106.685 88.5558 106.857 88.7825 106.916V108.438H88.7878ZM89.5213 104.528L89.0839 101.987H89.0652L88.6491 104.528H89.5213Z" fill="#F08C21"/>
<path d="M93.6699 108.437V106.915C93.9873 106.716 93.958 106.396 93.958 106.073V102.223C93.958 101.903 93.9873 101.583 93.6699 101.381V99.8594H96.8944V101.381C96.577 101.58 96.6064 101.9 96.6064 102.223V106.614H96.8651C97.5398 106.614 97.5292 106.202 97.5292 105.665V104.274H99.8602V108.437H93.6699Z" fill="#F08C21"/>
</svg>
