<svg width="58" height="58" viewBox="0 0 58 58" fill="none" xmlns="http://www.w3.org/2000/svg">
<rect width="58" height="58" rx="5" fill="white"/>
<path d="M29.1674 3.23438H6.82129V25.6717H29.1674V3.23438Z" fill="#F08C21"/>
<path d="M15.1029 11.1456C15.1029 10.595 15.1547 10.0445 14.6064 9.70011V7.08594H20.1742V9.70109C19.6259 10.0455 19.6777 10.596 19.6777 11.1465V17.7693C19.6777 18.3198 19.6259 18.8703 20.1742 19.2147V21.8299H14.6055V19.2138C15.1537 18.8693 15.1019 18.3188 15.1019 17.7683V11.1456H15.1029Z" fill="#FEFEFE"/>
<path d="M51.6459 25.6289H29.2998V48.0662H51.6459V25.6289Z" fill="#F08C21"/>
<path d="M40.7849 35.4915H40.8201L42.3887 29.3477H48.1069V32.0079C47.5489 32.3583 47.6016 32.9186 47.6016 33.4779V40.2175C47.6016 40.7778 47.5489 41.3381 48.1069 41.6874V44.3477H42.6506V41.6874C43.2086 41.3371 43.1559 40.7768 43.1559 40.2175V36.1912H43.1207L41.0986 44.3487H39.6346L37.508 36.1912H37.4728V40.2175C37.4728 40.7778 37.4201 41.3381 37.9781 41.6874V44.3477H33.376V41.6874C33.934 41.3371 33.8812 40.7768 33.8812 40.2175V33.4789C33.8812 32.9186 33.934 32.3583 33.376 32.0089V29.3477H39.2506L40.7849 35.4915Z" fill="#FEFEFE"/>
<path d="M14.8688 38.4328C14.4496 38.8861 14.2404 39.5259 14.2404 40.3522C14.2404 40.9596 14.4662 41.4297 14.9177 41.7623C15.3692 42.095 16.0064 42.2618 16.8293 42.2618C17.6229 42.2618 18.3041 42.0263 18.8729 41.5543C19.4407 41.0823 19.8746 40.4101 20.1727 39.5358C20.4717 38.6614 20.6203 37.636 20.6203 36.4584H23.5043C23.5043 38.2061 23.2277 39.7153 22.6736 40.9841C22.1204 42.253 21.3083 43.2274 20.2372 43.9074C19.166 44.5875 17.8662 44.928 16.3367 44.928C15.3028 44.928 14.4173 44.7484 13.6814 44.3902C12.9455 44.032 12.3845 43.511 11.9985 42.827C11.6125 42.1431 11.4189 41.3188 11.4189 40.3532C11.4189 39.051 11.7962 38.0089 12.5497 37.2268C13.3032 36.4447 14.3655 35.9913 15.7347 35.8667L16.6524 37.7537C15.8833 37.7527 15.2881 37.9794 14.8688 38.4328ZM15.377 38.422C14.8454 37.8587 14.4027 37.2905 14.0499 36.7165C13.6961 36.1424 13.4283 35.5517 13.2465 34.9453C13.0647 34.3378 12.9738 33.7127 12.9738 33.069C12.9738 31.6726 13.3638 30.5912 14.1427 29.8268C14.9216 29.0624 16.025 28.6797 17.4528 28.6797C18.8729 28.6797 19.9713 29.0477 20.7473 29.7827C21.5233 30.5177 21.9113 31.5578 21.9113 32.9042V33.3428H18.9178V32.9042C18.9178 32.2604 18.7908 31.76 18.5357 31.4008C18.2806 31.0426 17.92 30.8631 17.4538 30.8631C16.9143 30.8631 16.496 31.0554 16.197 31.4391C15.8979 31.8228 15.7494 32.3664 15.7494 33.068C15.7494 33.4556 15.8442 33.8894 16.0338 34.3683C16.2234 34.8471 16.498 35.3554 16.8586 35.8932C17.2193 36.4309 17.6512 36.9775 18.1536 37.5329L24.6986 44.7621H21.323L15.377 38.422Z" fill="#2A276A"/>
<path d="M10.7346 51.288C10.7346 51.1337 10.7487 50.9794 10.5957 50.8822V50.1484H12.1504V50.8822C11.9973 50.9781 12.0115 51.1324 12.0115 51.288V53.1445C12.0115 53.2987 11.9973 53.453 12.1504 53.5502V54.284H10.5957V53.5502C10.7487 53.4543 10.7346 53.3 10.7346 53.1445V51.288Z" fill="#F08C21"/>
<path d="M14.1648 53.1445C14.1648 53.2987 14.1507 53.453 14.3037 53.5503V54.284H12.749V53.5503C12.902 53.4543 12.8879 53.3 12.8879 53.1445V51.288C12.8879 51.1337 12.902 50.9795 12.749 50.8822V50.1485H14.5236C14.8399 50.1485 15.236 50.1433 15.5137 50.3118C15.8481 50.5102 15.9638 50.8615 15.9638 51.2374C15.9638 51.6912 15.8301 52.0866 15.3517 52.2072V52.2162C15.7542 52.3122 15.8879 52.4859 15.8879 52.9059V53.1419C15.8879 53.2819 15.8879 53.4841 16.0461 53.5477V54.2814H14.6727C14.62 54.0546 14.5866 53.8614 14.6007 53.1717C14.6007 52.8437 14.5673 52.6804 14.2175 52.67H14.1648V53.1445ZM14.1648 51.8468H14.2934C14.5712 51.8468 14.6573 51.7016 14.6573 51.4125C14.6573 51.1467 14.5712 51.0028 14.2934 51.0028H14.1648V51.8468Z" fill="#F08C21"/>
<path d="M19.7109 53.0819C19.7109 54.1047 19.0886 54.3601 18.1846 54.3601C17.2806 54.3601 16.6582 54.1047 16.6582 53.0819V51.3408C16.6582 50.3179 17.2806 50.0625 18.1846 50.0625C19.0886 50.0625 19.7109 50.3179 19.7109 51.3408V53.0819ZM17.9351 53.1441C17.9351 53.1726 17.921 53.4669 18.1833 53.4669C18.4469 53.4669 18.4328 53.1726 18.4328 53.1441V51.2721C18.4328 51.2435 18.4469 50.9531 18.1833 50.9531C17.9197 50.9531 17.9351 51.2422 17.9351 51.2721V53.1441Z" fill="#F08C21"/>
<path d="M22.4804 52.0166H22.4894V51.288C22.4894 51.1337 22.5035 50.9794 22.3505 50.8822V50.1484H23.6609V50.8822C23.5078 50.9781 23.522 51.1324 23.522 51.288V54.2827H22.2824L21.5211 52.4262H21.5121V53.1445C21.5121 53.2987 21.498 53.453 21.651 53.5502V54.284H20.3779V53.5502C20.531 53.4543 20.5168 53.3 20.5168 53.1445V51.288C20.5168 51.1337 20.531 50.9794 20.3779 50.8822V50.1484H21.7654L22.4804 52.0166Z" fill="#F08C21"/>
<path d="M27.0051 52.9231C26.9151 53.0204 26.8713 53.1578 26.8713 53.3354C26.8713 53.4663 26.9202 53.5662 27.0166 53.6375C27.1131 53.7088 27.2494 53.7451 27.4256 53.7451C27.5953 53.7451 27.7406 53.6945 27.8628 53.5934C27.9849 53.4923 28.0762 53.3471 28.1405 53.1604C28.2048 52.9724 28.2357 52.752 28.2357 52.4992H28.8529C28.8529 52.8739 28.7938 53.198 28.6755 53.4702C28.5572 53.7425 28.3836 53.9525 28.1547 54.0977C27.9258 54.2442 27.648 54.3168 27.3201 54.3168C27.0989 54.3168 26.9099 54.2779 26.753 54.2014C26.5961 54.1249 26.4753 54.0121 26.393 53.8656C26.3107 53.7191 26.2695 53.5415 26.2695 53.3341C26.2695 53.0541 26.3505 52.8311 26.5113 52.6626C26.672 52.494 26.8996 52.3968 27.1928 52.3709L27.3896 52.7753C27.2224 52.7766 27.0951 52.8259 27.0051 52.9231ZM27.1144 52.9205C27.0012 52.8 26.9061 52.6781 26.8302 52.5537C26.7543 52.4305 26.6977 52.3034 26.6579 52.1738C26.6193 52.0429 26.6 51.9093 26.6 51.7706C26.6 51.4712 26.6836 51.2391 26.8495 51.0744C27.0166 50.9098 27.252 50.8281 27.5567 50.8281C27.8602 50.8281 28.0955 50.9072 28.2614 51.0654C28.4273 51.2235 28.5109 51.4465 28.5109 51.7356V51.8303H27.8705V51.7356C27.8705 51.5969 27.8435 51.4893 27.7882 51.4128C27.7342 51.3363 27.657 51.2974 27.5567 51.2974C27.441 51.2974 27.3523 51.3389 27.288 51.4206C27.2237 51.5036 27.1928 51.6202 27.1928 51.7706C27.1928 51.8536 27.2134 51.9469 27.2532 52.0494C27.2931 52.1518 27.3523 52.262 27.4294 52.3773C27.5066 52.4927 27.5992 52.6107 27.7059 52.73L29.105 54.2818H28.3836L27.1144 52.9205Z" fill="#2B2868"/>
<path d="M33.5164 51.8416H33.5254L33.9562 50.1484H35.525V50.8822C35.372 50.9781 35.3861 51.1324 35.3861 51.288V53.1445C35.3861 53.2987 35.372 53.453 35.525 53.5502V54.284H34.0282V53.5502C34.1812 53.4543 34.1671 53.3 34.1671 53.1445V52.0347H34.1581L33.6026 54.2827H33.2001L32.6163 52.0347H32.6073V53.1445C32.6073 53.2987 32.5931 53.453 32.7462 53.5502V54.284H31.4834V53.5502C31.6364 53.4543 31.6223 53.3 31.6223 53.1445V51.288C31.6223 51.1337 31.6364 50.9794 31.4834 50.8822V50.1484H33.0959L33.5164 51.8416Z" fill="#F08C21"/>
<path d="M39.2478 52.7853V54.2801H36.1758V53.5463C36.3288 53.4504 36.3147 53.2961 36.3147 53.1405V51.2841C36.3147 51.1298 36.3288 50.9755 36.1758 50.8783V50.1445H39.2478V51.5434H38.0712V51.4176C38.0712 51.1376 38.0326 51.0222 37.688 51.0222H37.6109V51.7599H38.4197V52.5649H37.6109V53.3998H37.688C38.0712 53.3998 38.0661 53.2546 38.0712 52.9176V52.7827H39.2478V52.7853Z" fill="#F08C21"/>
<path d="M39.6504 50.1484H43.1853V52.0153H42.2814V51.3204C42.2814 51.1324 42.2376 51.0313 42.0563 51.0261V53.1432C42.0563 53.2974 42.0422 53.4517 42.1952 53.5489V54.2827H40.6405V53.5489C40.7936 53.453 40.7794 53.2987 40.7794 53.1432V51.0261C40.5981 51.0313 40.5544 51.1324 40.5544 51.3204V52.0153H39.6504V50.1484Z" fill="#F08C21"/>
<path d="M44.8084 54.2827H43.3965V53.5489C43.5354 53.453 43.5495 53.2404 43.5881 53.0809L44.1282 50.1484H45.9464L46.5444 53.1432C46.5688 53.2728 46.6164 53.5049 46.7591 53.5489V54.2827H45.1466V53.5489C45.2469 53.51 45.2945 53.4336 45.2945 53.3221C45.2945 53.2793 45.2855 53.2404 45.2752 53.2015H44.658C44.649 53.2404 44.6387 53.2832 44.6387 53.3221C44.6387 53.4374 44.6965 53.5204 44.8058 53.5489V54.2827H44.8084ZM45.162 52.3977L44.9511 51.1726H44.9421L44.7415 52.3977H45.162Z" fill="#F08C21"/>
<path d="M47.1621 54.2801V53.5463C47.3151 53.4504 47.301 53.2961 47.301 53.1405V51.2841C47.301 51.1298 47.3151 50.9755 47.1621 50.8783V50.1445H48.7168V50.8783C48.5638 50.9742 48.5779 51.1285 48.5779 51.2841V53.4011H48.7026C49.028 53.4011 49.0228 53.2028 49.0228 52.9435V52.2732H50.1467V54.2801H47.1621Z" fill="#F08C21"/>
</svg>
