<svg width="25" height="31" viewBox="0 0 25 31" fill="none" xmlns="http://www.w3.org/2000/svg">
<path d="M6.39942 18.4675C5.62301 19.3071 5.23571 20.4919 5.23571 22.022C5.23571 23.1468 5.65377 24.0173 6.48991 24.6333C7.32605 25.2494 8.50606 25.5583 10.0299 25.5583C11.4995 25.5583 12.761 25.1222 13.8143 24.2481C14.8658 23.374 15.6693 22.1292 16.2213 20.5101C16.7752 18.8909 17.0502 16.9919 17.0502 14.8113H22.391C22.391 18.0477 21.8789 20.8426 20.8527 23.1923C19.8283 25.5419 18.3244 27.3464 16.3408 28.6058C14.3572 29.8651 11.9502 30.4957 9.11778 30.4957C7.20299 30.4957 5.56328 30.1631 4.20049 29.4998C2.83769 28.8365 1.79885 27.8716 1.08397 26.605C0.369086 25.3384 0.0107422 23.8119 0.0107422 22.0238C0.0107422 19.6124 0.709336 17.6825 2.10471 16.2342C3.50009 14.7859 5.46736 13.9463 8.00293 13.7155L9.70235 17.21C8.27802 17.2082 7.17584 17.628 6.39942 18.4675ZM7.34053 18.4475C6.35599 17.4045 5.53614 16.3523 4.88279 15.2892C4.22764 14.2262 3.73174 13.1322 3.39512 12.0092C3.05849 10.8843 2.89017 9.72673 2.89017 8.53464C2.89017 5.94875 3.61229 3.94618 5.05472 2.53057C6.49715 1.11496 8.54045 0.40625 11.1846 0.40625C13.8143 0.40625 15.8485 1.08771 17.2855 2.4488C18.7225 3.80989 19.441 5.73614 19.441 8.22935V9.04164H13.8975V8.22935C13.8975 7.03726 13.6623 6.11048 13.1899 5.44538C12.7175 4.7821 12.0497 4.44955 11.1864 4.44955C10.1874 4.44955 9.41278 4.80572 8.85898 5.51625C8.30517 6.22678 8.03008 7.23352 8.03008 8.53282C8.03008 9.25062 8.20563 10.0538 8.55674 10.9406C8.90784 11.8274 9.4164 12.7687 10.0842 13.7646C10.7521 14.7604 11.552 15.7726 12.4822 16.8011L24.6026 30.1885H18.3515L7.34053 18.4475Z" fill="#2A276A"/>
</svg>
