<svg width="49" height="48" viewBox="0 0 49 48" fill="none" xmlns="http://www.w3.org/2000/svg">
<mask id="path-1-outside-1_3_2045" maskUnits="userSpaceOnUse" x="0.325684" y="0.0488281" width="49" height="48" fill="black">
<rect fill="white" x="0.325684" y="0.0488281" width="49" height="48"/>
<path d="M23.2544 9.59958V37.5967V37.5898C23.2544 40.0427 21.2605 42.0325 18.8026 42.0325H18.8095H2.32568V45.1509H46.4073V42.0325H29.9407H29.9339C27.4759 42.0325 25.482 40.0427 25.482 37.5898V37.5967V9.59958V9.59272C25.482 7.13984 27.4759 5.15009 29.9339 5.15009H29.9407H46.4073V2.04883H2.32568V5.15009H18.8095H18.8026C21.2605 5.15009 23.2544 7.13984 23.2544 9.59272"/>
</mask>
<path d="M23.2544 9.59958V37.5967V37.5898C23.2544 40.0427 21.2605 42.0325 18.8026 42.0325H18.8095H2.32568V45.1509H46.4073V42.0325H29.9407H29.9339C27.4759 42.0325 25.482 40.0427 25.482 37.5898V37.5967V9.59958V9.59272C25.482 7.13984 27.4759 5.15009 29.9339 5.15009H29.9407H46.4073V2.04883H2.32568V5.15009H18.8095H18.8026C21.2605 5.15009 23.2544 7.13984 23.2544 9.59272" fill="white"/>
<path d="M2.32568 42.0325V40.0325H0.325684V42.0325H2.32568ZM2.32568 45.1509H0.325684V47.1509H2.32568V45.1509ZM46.4073 45.1509V47.1509H48.4073V45.1509H46.4073ZM46.4073 42.0325H48.4073V40.0325H46.4073V42.0325ZM46.4073 5.15009V7.15009H48.4073V5.15009H46.4073ZM46.4073 2.04883H48.4073V0.0488281H46.4073V2.04883ZM2.32568 2.04883V0.0488281H0.325684V2.04883H2.32568ZM2.32568 5.15009H0.325684V7.15009H2.32568V5.15009ZM23.2544 9.59958H21.2544V37.5967H23.2544H25.2544V9.59958H23.2544ZM23.2544 37.5967H25.2544V37.5898H23.2544H21.2544V37.5967H23.2544ZM23.2544 37.5898H21.2544C21.2544 38.9342 20.1599 40.0325 18.8026 40.0325V42.0325V44.0325C22.3612 44.0325 25.2544 41.1512 25.2544 37.5898H23.2544ZM18.8026 42.0325V44.0325H18.8095V42.0325V40.0325H18.8026V42.0325ZM18.8095 42.0325V40.0325H2.32568V42.0325V44.0325H18.8095V42.0325ZM2.32568 42.0325H0.325684V45.1509H2.32568H4.32568V42.0325H2.32568ZM2.32568 45.1509V47.1509H46.4073V45.1509V43.1509H2.32568V45.1509ZM46.4073 45.1509H48.4073V42.0325H46.4073H44.4073V45.1509H46.4073ZM46.4073 42.0325V40.0325H29.9407V42.0325V44.0325H46.4073V42.0325ZM29.9407 42.0325V40.0325H29.9339V42.0325V44.0325H29.9407V42.0325ZM29.9339 42.0325V40.0325C28.5766 40.0325 27.482 38.9342 27.482 37.5898H25.482H23.482C23.482 41.1512 26.3752 44.0325 29.9339 44.0325V42.0325ZM25.482 37.5898H23.482V37.5967H25.482H27.482V37.5898H25.482ZM25.482 37.5967H27.482V9.59958H25.482H23.482V37.5967H25.482ZM25.482 9.59958H27.482V9.59272H25.482H23.482V9.59958H25.482ZM25.482 9.59272H27.482C27.482 8.2483 28.5766 7.15009 29.9339 7.15009V5.15009V3.15009C26.3752 3.15009 23.482 6.03137 23.482 9.59272H25.482ZM29.9339 5.15009V7.15009H29.9407V5.15009V3.15009H29.9339V5.15009ZM29.9407 5.15009V7.15009H46.4073V5.15009V3.15009H29.9407V5.15009ZM46.4073 5.15009H48.4073V2.04883H46.4073H44.4073V5.15009H46.4073ZM46.4073 2.04883V0.0488281H2.32568V2.04883V4.04883H46.4073V2.04883ZM2.32568 2.04883H0.325684V5.15009H2.32568H4.32568V2.04883H2.32568ZM2.32568 5.15009V7.15009H18.8095V5.15009V3.15009H2.32568V5.15009ZM18.8095 5.15009V3.15009H18.8026V5.15009V7.15009H18.8095V5.15009ZM18.8026 5.15009V7.15009C20.1599 7.15009 21.2544 8.24831 21.2544 9.59272H23.2544H25.2544C25.2544 6.03137 22.3612 3.15009 18.8026 3.15009V5.15009Z" fill="white" mask="url(#path-1-outside-1_3_2045)"/>
</svg>
