<svg width="47" height="47" viewBox="0 0 47 47" fill="none" xmlns="http://www.w3.org/2000/svg">
<mask id="path-1-outside-1_1279_713" maskUnits="userSpaceOnUse" x="0" y="0" width="47" height="47" fill="black">
<rect fill="white" width="47" height="47"/>
<path d="M5.01822 40.2109C5.01822 40.8456 5.53143 41.3588 6.16914 41.3588H6.16003H40.2049H40.214C40.8487 41.3588 41.3649 40.8456 41.3649 40.2109V40.22V6.157V6.14789C41.3649 5.51321 40.8517 5 40.214 5H40.2049H6.16003H6.16914C5.53788 5 5.02378 5.5077 5.01826 6.13765C5.01821 6.14389 5.01469 6.14965 5.00911 6.15244V6.15244C5.00353 6.15523 5 6.16094 5 6.16718V40.2231"/>
</mask>
<path d="M10.0182 40.2109C10.0182 37.4495 7.77964 35.2109 5.01822 35.2109C2.2568 35.2109 0.0182197 37.4495 0.0182197 40.2109H5.01822H10.0182ZM0 40.2231C0 42.9845 2.23858 45.2231 5 45.2231C7.76142 45.2231 10 42.9845 10 40.2231H5H0ZM5.01822 40.2109H0.0182197C0.0182197 43.6156 2.77862 46.3588 6.16914 46.3588V41.3588V36.3588C8.28423 36.3588 10.0182 38.0756 10.0182 40.2109H5.01822ZM6.16914 41.3588V36.3588H6.16003V41.3588V46.3588H6.16914V41.3588ZM6.16003 41.3588V46.3588H40.2049V41.3588V36.3588H6.16003V41.3588ZM40.2049 41.3588V46.3588H40.214V41.3588V36.3588H40.2049V41.3588ZM40.214 41.3588V46.3588C43.5928 46.3588 46.3649 43.6242 46.3649 40.2109H41.3649H36.3649C36.3649 38.067 38.1045 36.3588 40.214 36.3588V41.3588ZM41.3649 40.2109H36.3649V40.22H41.3649H46.3649V40.2109H41.3649ZM41.3649 40.22H46.3649V6.157H41.3649H36.3649V40.22H41.3649ZM41.3649 6.157H46.3649V6.14789H41.3649H36.3649V6.157H41.3649ZM41.3649 6.14789H46.3649C46.3649 2.74316 43.6045 0 40.214 0V5V10C38.0989 10 36.3649 8.28325 36.3649 6.14789H41.3649ZM40.214 5V0H40.2049V5V10H40.214V5ZM40.2049 5V0H6.16003V5V10H40.2049V5ZM6.16003 5V10H6.16914V5V0H6.16003V5ZM6.16914 5V0C2.80812 0 0.0481192 2.70513 0.018456 6.09389L5.01826 6.13765L10.0181 6.18142C9.99944 8.31027 8.26764 10 6.16914 10V5ZM5 6.16718H0V40.2231H5H10V6.16718H5ZM5.00911 6.15244L2.77304 1.6803C1.07354 2.53006 0 4.26708 0 6.16718H5H10C10 8.0548 8.93351 9.78041 7.24518 10.6246L5.00911 6.15244ZM5.01826 6.13765L0.018456 6.09389C0.0344761 4.26373 1.06188 2.53588 2.77304 1.6803L5.00911 6.15244L7.24518 10.6246C8.9675 9.76341 10.0019 8.02406 10.0181 6.18142L5.01826 6.13765Z" fill="black" mask="url(#path-1-outside-1_1279_713)"/>
</svg>
