<svg width="144" height="493" viewBox="0 0 144 493" fill="none" xmlns="http://www.w3.org/2000/svg">
<path d="M119.396 488H24.6533L24.703 487.86C13.8837 487.86 5.12406 477.97 5.12406 465.755L5 465.811V27.1608L5.12406 27.1048C5.12406 14.8897 13.8837 5 24.703 5L24.6533 5.14008H119.371L119.421 5C130.24 5 139 14.8897 139 27.1048L138.876 27.1608V62.2372H125.898V27.1608V27.1048C125.898 23.0705 122.994 19.7926 119.421 19.7926H119.371H24.6533H24.703C21.1296 19.7926 18.2263 23.0705 18.2263 27.1048L18.1022 27.1608V465.839L18.2263 465.783C18.2263 469.817 21.1296 473.095 24.703 473.095L24.6533 473.235H119.371L119.421 473.095C122.994 473.095 125.898 469.817 125.898 465.783V465.839V430.903H138.876V465.839L139 465.783C139 477.998 130.24 487.888 119.421 487.888L119.396 488Z" fill="#302C6D" stroke="#302C6D" stroke-width="9" stroke-miterlimit="10" stroke-linecap="round" stroke-linejoin="round"/>
</svg>
