<svg width="406" height="406" viewBox="0 0 406 406" fill="none" xmlns="http://www.w3.org/2000/svg">
<path d="M33.3169 340.335V21.2732L33.186 21.1948C33.186 10.0249 24.1321 1 12.9847 1L13.0632 1.1308H1V405H405V392.941V392.862C405 381.692 395.946 372.667 384.799 372.667H384.877H65.5029L65.4244 372.537C47.6043 372.537 33.1599 358.097 33.1599 340.283" fill="#302C6D"/>
<path d="M33.3169 340.335V21.2732L33.186 21.1948C33.186 10.0249 24.1321 1 12.9847 1L13.0632 1.1308H1V405H405V392.941V392.862C405 381.692 395.946 372.667 384.799 372.667H384.877H65.5029L65.4244 372.537C47.6043 372.537 33.1599 358.097 33.1599 340.283" stroke="#302C6D" stroke-miterlimit="10"/>
</svg>
