<svg width="535" height="485" viewBox="0 0 535 485" fill="none" xmlns="http://www.w3.org/2000/svg">
<path fill-rule="evenodd" clip-rule="evenodd" d="M400.636 11.6487L361.886 25.1451L400.479 38.6875V32.9651H429.535V17.4355H400.636V11.6487ZM437.447 32.9651H451.49L451.647 17.4355H437.447V32.9651ZM459.56 17.4355V32.9651H470.066V17.4355H459.56Z" fill="#C0C0C0"/>
<g clip-path="url(#clip0_952_1142)">
<path fill-rule="evenodd" clip-rule="evenodd" d="M303.43 112.564L279.658 113.286L288.701 135.24L291.804 130.431L304.141 138.394L312.562 125.345L300.292 117.426L303.43 112.564ZM307.501 140.562L313.464 144.41L321.952 131.405L315.922 127.514L307.501 140.562ZM325.311 133.573L316.89 146.621L321.351 149.5L329.772 136.452L325.311 133.573Z" fill="#C0C0C0"/>
</g>
<path fill-rule="evenodd" clip-rule="evenodd" d="M292.496 338.649L272.973 352.145L292.417 365.688V359.965H307.056V344.436H292.496V338.649ZM311.042 359.965H318.117L318.196 344.436H311.042V359.965ZM322.183 344.436V359.965H327.476V344.436H322.183Z" fill="#C0C0C0"/>
<g clip-path="url(#clip1_952_1142)">
<path fill-rule="evenodd" clip-rule="evenodd" d="M493.647 430.532L507.144 475.789L520.686 430.715L514.964 430.715L514.964 396.78L499.434 396.78L499.434 430.532L493.647 430.532ZM514.964 387.539L514.964 371.137L499.434 370.953L499.434 387.539L514.964 387.539ZM499.434 361.712L514.964 361.712L514.964 349.442L499.434 349.442L499.434 361.712Z" fill="#C0C0C0"/>
</g>
<g clip-path="url(#clip2_952_1142)">
<path fill-rule="evenodd" clip-rule="evenodd" d="M500.647 101.468L514.144 56.2109L527.686 101.285L521.964 101.285L521.964 135.22L506.434 135.22L506.434 101.468L500.647 101.468ZM521.964 144.461L521.964 160.863L506.434 161.047L506.434 144.461L521.964 144.461ZM506.434 170.288L521.964 170.288L521.964 182.558L506.434 182.558L506.434 170.288Z" fill="#C0C0C0"/>
</g>
<path fill-rule="evenodd" clip-rule="evenodd" d="M189.504 338.649L209.027 352.145L189.583 365.688V359.965H174.944V344.436H189.504V338.649ZM170.958 359.965H163.883L163.804 344.436H170.958V359.965ZM159.817 344.436V359.965H154.524V344.436H159.817Z" fill="#C0C0C0"/>
<path fill-rule="evenodd" clip-rule="evenodd" d="M75.3479 11.6487L109.957 25.1451L75.4883 38.6875V32.9651H49.5377V17.4355H75.3479V11.6487ZM42.4709 32.9651H29.9285L29.7881 17.4355H42.4709V32.9651ZM22.7213 17.4355V32.9651H13.3379V17.4355H22.7213Z" fill="#C0C0C0"/>
<path d="M251.577 449.641V70.6873C251.61 70.6873 251.61 70.3267 251.61 70.3267H301.405H474V56H12V70.3267H184.759H236.06L236.092 70.6873V449.673H184.759H12V464H474V449.673H301.405L251.577 449.641Z" fill="#302C6D" stroke="#4F6AB3" stroke-miterlimit="10"/>
<defs>
<clipPath id="clip0_952_1142">
<rect width="66.2013" height="46" fill="white" transform="matrix(0.840217 0.542251 0.542251 -0.840217 265 128.648)"/>
</clipPath>
<clipPath id="clip1_952_1142">
<rect width="153" height="46" fill="white" transform="matrix(-4.37114e-08 -1 -1 4.37114e-08 528 485)"/>
</clipPath>
<clipPath id="clip2_952_1142">
<rect width="153" height="46" fill="white" transform="translate(535 47) rotate(90)"/>
</clipPath>
</defs>
</svg>
