<svg width="411" height="485" viewBox="0 0 411 485" fill="none" xmlns="http://www.w3.org/2000/svg">
<path d="M195.336 85.6234V399.395V399.318C195.336 426.808 176.821 449.108 153.998 449.108H154.062H1V484.057H410.324V449.108H257.422H257.358C234.535 449.108 216.021 426.808 216.021 399.318V399.395V85.6234V85.5465C216.021 58.0564 234.535 35.7567 257.358 35.7567H257.422H410.324V1H1V35.7567H154.062H153.998C176.821 35.7567 195.336 58.0564 195.336 85.5465" fill="#302C6D"/>
<path d="M195.336 85.6234V399.395V399.318C195.336 426.808 176.821 449.108 153.998 449.108H154.062H1V484.057H410.324V449.108H257.422H257.358C234.535 449.108 216.021 426.808 216.021 399.318V399.395V85.6234V85.5465C216.021 58.0564 234.535 35.7567 257.358 35.7567H257.422H410.324V1H1V35.7567H154.062H153.998C176.821 35.7567 195.336 58.0564 195.336 85.5465" stroke="#302C6D" stroke-miterlimit="10"/>
</svg>
