<svg width="618" height="288" viewBox="0 0 618 288" fill="none" xmlns="http://www.w3.org/2000/svg">
<g clip-path="url(#clip0_1316_1070)">
<mask id="mask0_1316_1070" style="mask-type:luminance" maskUnits="userSpaceOnUse" x="4" y="3" width="612" height="273">
<path d="M4.75098 4.7145L342.013 263.29L615.238 261.721L277.979 3.22266L4.75142 4.79164L4.82108 16.9027L342.082 275.324L615.31 273.755L615.238 261.644" fill="white"/>
</mask>
<g mask="url(#mask0_1316_1070)">
<path d="M863.888 174.512C771.928 281.343 681.178 383.076 585.03 486.151" stroke="#302C6D" stroke-width="3" stroke-miterlimit="10"/>
<path d="M847.599 175.688L573.655 481.821" stroke="#302C6D" stroke-width="3" stroke-miterlimit="10"/>
<path d="M836.226 171.355L562.281 477.489" stroke="#302C6D" stroke-width="3" stroke-miterlimit="10"/>
<path d="M824.852 167.023L550.905 473.157" stroke="#302C6D" stroke-width="3" stroke-miterlimit="10"/>
<path d="M813.558 162.691L539.533 468.826" stroke="#302C6D" stroke-width="3" stroke-miterlimit="10"/>
<path d="M802.178 158.359L528.156 464.494" stroke="#302C6D" stroke-width="3" stroke-miterlimit="10"/>
<path d="M790.805 154.027L516.861 460.161" stroke="#302C6D" stroke-width="3" stroke-miterlimit="10"/>
<path d="M779.432 149.695L505.485 455.829" stroke="#302C6D" stroke-width="3" stroke-miterlimit="10"/>
<path d="M768.059 145.363L494.112 451.497" stroke="#302C6D" stroke-width="3" stroke-miterlimit="10"/>
<path d="M756.758 141.031L482.737 447.166" stroke="#302C6D" stroke-width="3" stroke-miterlimit="10"/>
<path d="M745.385 136.695L471.441 442.83" stroke="#302C6D" stroke-width="3" stroke-miterlimit="10"/>
<path d="M734.012 132.367L460.065 438.502" stroke="#302C6D" stroke-width="3" stroke-miterlimit="10"/>
<path d="M722.639 128.035L448.692 434.17" stroke="#302C6D" stroke-width="3" stroke-miterlimit="10"/>
<path d="M711.26 123.703L437.315 429.837" stroke="#302C6D" stroke-width="3" stroke-miterlimit="10"/>
<path d="M699.965 119.371L425.942 425.505" stroke="#302C6D" stroke-width="3" stroke-miterlimit="10"/>
<path d="M688.592 115.039L414.644 421.173" stroke="#302C6D" stroke-width="3" stroke-miterlimit="10"/>
<path d="M677.219 110.711L403.27 416.845" stroke="#302C6D" stroke-width="3" stroke-miterlimit="10"/>
<path d="M665.839 106.375L391.896 412.509" stroke="#302C6D" stroke-width="3" stroke-miterlimit="10"/>
<path d="M654.544 102.043L380.522 408.177" stroke="#302C6D" stroke-width="3" stroke-miterlimit="10"/>
<path d="M643.171 97.7109L369.225 403.845" stroke="#302C6D" stroke-width="3" stroke-miterlimit="10"/>
<path d="M631.798 93.3789L357.85 399.513" stroke="#302C6D" stroke-width="3" stroke-miterlimit="10"/>
<path d="M620.425 89.125L346.477 395.259" stroke="#302C6D" stroke-width="3" stroke-miterlimit="10"/>
<path d="M609.046 84.793L335.102 390.927" stroke="#302C6D" stroke-width="3" stroke-miterlimit="10"/>
<path d="M597.751 80.4609L323.728 386.595" stroke="#302C6D" stroke-width="3" stroke-miterlimit="10"/>
<path d="M586.376 76.1289L312.43 382.263" stroke="#302C6D" stroke-width="3" stroke-miterlimit="10"/>
<path d="M575.002 71.793L301.056 377.927" stroke="#302C6D" stroke-width="3" stroke-miterlimit="10"/>
<path d="M563.628 67.4648L289.681 373.599" stroke="#302C6D" stroke-width="3" stroke-miterlimit="10"/>
<path d="M552.331 63.1328L278.308 369.267" stroke="#302C6D" stroke-width="3" stroke-miterlimit="10"/>
<path d="M540.956 58.8008L266.933 364.935" stroke="#302C6D" stroke-width="3" stroke-miterlimit="10"/>
<path d="M529.582 54.4688L255.636 360.603" stroke="#302C6D" stroke-width="3" stroke-miterlimit="10"/>
<path d="M518.209 50.1367L244.262 356.271" stroke="#302C6D" stroke-width="3" stroke-miterlimit="10"/>
<path d="M506.833 45.8047L232.887 351.939" stroke="#302C6D" stroke-width="3" stroke-miterlimit="10"/>
<path d="M495.535 41.4727L221.512 347.607" stroke="#302C6D" stroke-width="3" stroke-miterlimit="10"/>
<path d="M484.162 37.1406L210.216 343.275" stroke="#302C6D" stroke-width="3" stroke-miterlimit="10"/>
<path d="M472.789 32.8086L198.843 338.943" stroke="#302C6D" stroke-width="3" stroke-miterlimit="10"/>
<path d="M461.396 25.625L187.45 331.759" stroke="#302C6D" stroke-width="3" stroke-miterlimit="10"/>
</g>
<mask id="mask1_1316_1070" style="mask-type:luminance" maskUnits="userSpaceOnUse" x="4" y="3" width="612" height="273">
<path d="M4.75098 4.7145L342.013 263.29L615.238 261.721L277.979 3.22266L4.75142 4.79164L4.82108 16.9027L342.082 275.324L615.31 273.755L615.238 261.644" fill="white"/>
</mask>
<g mask="url(#mask1_1316_1070)">
<path d="M-226.264 177.221C-134.308 70.3127 -43.6333 -31.3426 52.5917 -134.418" stroke="#302C6D" stroke-width="3" stroke-miterlimit="10"/>
<path d="M-209.979 176.048L63.967 -130.086" stroke="#302C6D" stroke-width="3" stroke-miterlimit="10"/>
<path d="M-198.682 180.377L75.3412 -125.758" stroke="#302C6D" stroke-width="3" stroke-miterlimit="10"/>
<path d="M-187.309 184.712L86.6374 -121.422" stroke="#302C6D" stroke-width="3" stroke-miterlimit="10"/>
<path d="M-175.934 189.04L98.0117 -117.094" stroke="#302C6D" stroke-width="3" stroke-miterlimit="10"/>
<path d="M-164.559 193.376L109.387 -112.758" stroke="#302C6D" stroke-width="3" stroke-miterlimit="10"/>
<path d="M-153.186 197.704L120.761 -108.43" stroke="#302C6D" stroke-width="3" stroke-miterlimit="10"/>
<path d="M-141.889 202.041L132.134 -104.094" stroke="#302C6D" stroke-width="3" stroke-miterlimit="10"/>
<path d="M-130.514 206.373L143.432 -99.7617" stroke="#302C6D" stroke-width="3" stroke-miterlimit="10"/>
<path d="M-119.139 210.701L154.808 -95.4336" stroke="#302C6D" stroke-width="3" stroke-miterlimit="10"/>
<path d="M-107.766 215.033L166.181 -91.1016" stroke="#302C6D" stroke-width="3" stroke-miterlimit="10"/>
<path d="M-96.4688 219.369L177.554 -86.7656" stroke="#302C6D" stroke-width="3" stroke-miterlimit="10"/>
<path d="M-85.0939 223.623L188.93 -82.4336" stroke="#302C6D" stroke-width="3" stroke-miterlimit="10"/>
<path d="M-73.7195 227.954L200.227 -78.1797" stroke="#302C6D" stroke-width="3" stroke-miterlimit="10"/>
<path d="M-62.3452 232.286L211.601 -73.8477" stroke="#302C6D" stroke-width="3" stroke-miterlimit="10"/>
<path d="M-50.9707 236.614L222.975 -69.5195" stroke="#302C6D" stroke-width="3" stroke-miterlimit="10"/>
<path d="M-39.6748 240.951L234.348 -65.1836" stroke="#302C6D" stroke-width="3" stroke-miterlimit="10"/>
<path d="M-28.2998 245.282L245.646 -60.8516" stroke="#302C6D" stroke-width="3" stroke-miterlimit="10"/>
<path d="M-16.9237 249.611L257.022 -56.5234" stroke="#302C6D" stroke-width="3" stroke-miterlimit="10"/>
<path d="M-5.55066 253.943L268.396 -52.1914" stroke="#302C6D" stroke-width="3" stroke-miterlimit="10"/>
<path d="M5.74756 258.275L279.771 -47.8594" stroke="#302C6D" stroke-width="3" stroke-miterlimit="10"/>
<path d="M17.1208 262.607L291.144 -43.5273" stroke="#302C6D" stroke-width="3" stroke-miterlimit="10"/>
<path d="M28.4962 266.939L302.443 -39.1953" stroke="#302C6D" stroke-width="3" stroke-miterlimit="10"/>
<path d="M39.8696 271.271L313.816 -34.8633" stroke="#302C6D" stroke-width="3" stroke-miterlimit="10"/>
<path d="M51.2454 275.603L325.191 -30.5312" stroke="#302C6D" stroke-width="3" stroke-miterlimit="10"/>
<path d="M62.5414 279.935L336.565 -26.1992" stroke="#302C6D" stroke-width="3" stroke-miterlimit="10"/>
<path d="M73.9163 284.271L347.863 -21.8633" stroke="#302C6D" stroke-width="3" stroke-miterlimit="10"/>
<path d="M85.2894 288.603L359.236 -17.5312" stroke="#302C6D" stroke-width="3" stroke-miterlimit="10"/>
<path d="M96.6655 292.931L370.612 -13.2031" stroke="#302C6D" stroke-width="3" stroke-miterlimit="10"/>
<path d="M108.039 297.263L381.985 -8.87109" stroke="#302C6D" stroke-width="3" stroke-miterlimit="10"/>
<path d="M119.335 301.599L393.359 -4.53516" stroke="#302C6D" stroke-width="3" stroke-miterlimit="10"/>
<path d="M130.711 305.931L404.657 -0.203125" stroke="#302C6D" stroke-width="3" stroke-miterlimit="10"/>
<path d="M142.084 310.263L416.03 4.12891" stroke="#302C6D" stroke-width="3" stroke-miterlimit="10"/>
<path d="M153.46 314.591L427.406 8.45703" stroke="#302C6D" stroke-width="3" stroke-miterlimit="10"/>
<path d="M164.756 318.85L438.779 12.7148" stroke="#302C6D" stroke-width="3" stroke-miterlimit="10"/>
<path d="M176.147 326.033L450.171 19.8984" stroke="#302C6D" stroke-width="3" stroke-miterlimit="10"/>
</g>
<path d="M4.75208 4.7145L342.014 263.29L615.244 261.721L277.98 3.22266L4.75252 4.79164L4.82218 16.9027L342.083 275.324M342.083 275.324L342.013 263.213M342.083 275.324L615.31 273.755L615.238 261.644" stroke="#302C6D" stroke-width="2" stroke-miterlimit="10"/>
<path d="M342.012 262.44L617.254 260.859C617.272 264.485 617.314 268.11 617.356 271.736C617.392 275.362 617.434 278.987 617.452 282.613C525.659 283.602 433.94 284.515 342.143 285.428L342.012 262.44Z" fill="#302C6D"/>
<path d="M343.403 262.975C230.339 176.683 117.274 90.3928 4.20981 4.10156C2.85429 10.0493 1.49875 15.9972 0.143677 22.0221C114.221 109.85 228.298 197.678 342.453 285.583C342.718 278.021 343.06 270.46 343.403 262.975Z" fill="#302C6D"/>
</g>
<defs>
<clipPath id="clip0_1316_1070">
<rect width="618" height="288" fill="white"/>
</clipPath>
</defs>
</svg>
