<svg width="1027" height="479" viewBox="0 0 1027 479" fill="none" xmlns="http://www.w3.org/2000/svg">
<mask id="mask0_1054_1808" style="mask-type:luminance" maskUnits="userSpaceOnUse" x="7" y="5" width="1016" height="453">
<path d="M7.89515 7.83976L568.361 437.901L1022.41 435.292L461.949 5.35854L7.89588 7.96807L8.01165 28.1111L568.476 457.916L568.36 437.773L568.476 457.916L1022.53 455.306L1022.41 435.163" fill="white"/>
</mask>
<g mask="url(#mask0_1054_1808)">
<path d="M1435.62 290.25C1282.8 467.931 1131.99 637.133 972.21 808.567" stroke="#302C6D" stroke-width="3" stroke-miterlimit="10"/>
<path d="M1408.55 292.203L953.306 801.363" stroke="#302C6D" stroke-width="3" stroke-miterlimit="10"/>
<path d="M1389.65 284.996L934.405 794.156" stroke="#302C6D" stroke-width="3" stroke-miterlimit="10"/>
<path d="M1370.75 277.793L915.5 786.953" stroke="#302C6D" stroke-width="3" stroke-miterlimit="10"/>
<path d="M1351.98 270.586L896.602 779.747" stroke="#302C6D" stroke-width="3" stroke-miterlimit="10"/>
<path d="M1333.07 263.383L877.697 772.544" stroke="#302C6D" stroke-width="3" stroke-miterlimit="10"/>
<path d="M1314.17 256.176L858.926 765.336" stroke="#302C6D" stroke-width="3" stroke-miterlimit="10"/>
<path d="M1295.27 248.977L840.021 758.137" stroke="#302C6D" stroke-width="3" stroke-miterlimit="10"/>
<path d="M1276.37 241.77L821.121 750.93" stroke="#302C6D" stroke-width="3" stroke-miterlimit="10"/>
<path d="M1257.59 234.562L802.218 743.724" stroke="#302C6D" stroke-width="3" stroke-miterlimit="10"/>
<path d="M1238.69 227.355L783.447 736.516" stroke="#302C6D" stroke-width="3" stroke-miterlimit="10"/>
<path d="M1219.79 220.156L764.542 729.317" stroke="#302C6D" stroke-width="3" stroke-miterlimit="10"/>
<path d="M1200.89 212.949L745.642 722.11" stroke="#302C6D" stroke-width="3" stroke-miterlimit="10"/>
<path d="M1181.98 205.746L726.736 714.906" stroke="#302C6D" stroke-width="3" stroke-miterlimit="10"/>
<path d="M1163.21 198.539L707.835 707.7" stroke="#302C6D" stroke-width="3" stroke-miterlimit="10"/>
<path d="M1144.31 191.336L689.061 700.496" stroke="#302C6D" stroke-width="3" stroke-miterlimit="10"/>
<path d="M1125.41 184.133L670.159 693.293" stroke="#302C6D" stroke-width="3" stroke-miterlimit="10"/>
<path d="M1106.5 176.926L651.257 686.086" stroke="#302C6D" stroke-width="3" stroke-miterlimit="10"/>
<path d="M1087.73 169.719L632.356 678.88" stroke="#302C6D" stroke-width="3" stroke-miterlimit="10"/>
<path d="M1068.83 162.516L613.582 671.676" stroke="#302C6D" stroke-width="3" stroke-miterlimit="10"/>
<path d="M1049.93 155.312L594.68 664.473" stroke="#302C6D" stroke-width="3" stroke-miterlimit="10"/>
<path d="M1031.03 148.234L575.78 657.395" stroke="#302C6D" stroke-width="3" stroke-miterlimit="10"/>
<path d="M1012.12 141.031L556.876 650.192" stroke="#302C6D" stroke-width="3" stroke-miterlimit="10"/>
<path d="M993.35 133.824L537.975 642.985" stroke="#302C6D" stroke-width="3" stroke-miterlimit="10"/>
<path d="M974.447 126.617L519.2 635.778" stroke="#302C6D" stroke-width="3" stroke-miterlimit="10"/>
<path d="M955.545 119.41L500.298 628.571" stroke="#302C6D" stroke-width="3" stroke-miterlimit="10"/>
<path d="M936.643 112.207L481.396 621.367" stroke="#302C6D" stroke-width="3" stroke-miterlimit="10"/>
<path d="M917.87 105.004L462.495 614.165" stroke="#302C6D" stroke-width="3" stroke-miterlimit="10"/>
<path d="M898.968 97.7969L443.592 606.958" stroke="#302C6D" stroke-width="3" stroke-miterlimit="10"/>
<path d="M880.066 90.5938L424.819 599.754" stroke="#302C6D" stroke-width="3" stroke-miterlimit="10"/>
<path d="M861.166 83.3867L405.918 592.547" stroke="#302C6D" stroke-width="3" stroke-miterlimit="10"/>
<path d="M842.261 76.1836L387.014 585.344" stroke="#302C6D" stroke-width="3" stroke-miterlimit="10"/>
<path d="M823.486 68.9805L368.111 578.142" stroke="#302C6D" stroke-width="3" stroke-miterlimit="10"/>
<path d="M804.586 61.7734L349.339 570.934" stroke="#302C6D" stroke-width="3" stroke-miterlimit="10"/>
<path d="M785.686 54.5664L330.439 563.727" stroke="#302C6D" stroke-width="3" stroke-miterlimit="10"/>
<path d="M766.753 42.6211L311.506 551.781" stroke="#302C6D" stroke-width="3" stroke-miterlimit="10"/>
</g>
<mask id="mask1_1054_1808" style="mask-type:luminance" maskUnits="userSpaceOnUse" x="7" y="5" width="1016" height="453">
<path d="M7.89515 7.83976L568.361 437.901L1022.41 435.292L461.949 5.35854L7.89588 7.96807L8.01165 28.1111L568.476 457.916L568.36 437.773L568.476 457.916L1022.53 455.306L1022.41 435.163" fill="white"/>
</mask>
<g mask="url(#mask1_1054_1808)">
<path d="M-376.009 294.754C-223.194 116.945 -72.5104 -52.1276 87.3975 -223.562" stroke="#302C6D" stroke-width="3" stroke-miterlimit="10"/>
<path d="M-348.946 292.801L106.301 -216.359" stroke="#302C6D" stroke-width="3" stroke-miterlimit="10"/>
<path d="M-330.173 300.005L125.203 -209.156" stroke="#302C6D" stroke-width="3" stroke-miterlimit="10"/>
<path d="M-311.272 307.211L143.975 -201.949" stroke="#302C6D" stroke-width="3" stroke-miterlimit="10"/>
<path d="M-292.37 314.414L162.877 -194.746" stroke="#302C6D" stroke-width="3" stroke-miterlimit="10"/>
<path d="M-273.467 321.621L181.78 -187.539" stroke="#302C6D" stroke-width="3" stroke-miterlimit="10"/>
<path d="M-254.566 328.824L200.682 -180.336" stroke="#302C6D" stroke-width="3" stroke-miterlimit="10"/>
<path d="M-235.793 336.036L219.582 -173.125" stroke="#302C6D" stroke-width="3" stroke-miterlimit="10"/>
<path d="M-216.89 343.239L238.357 -165.922" stroke="#302C6D" stroke-width="3" stroke-miterlimit="10"/>
<path d="M-197.986 350.438L257.262 -158.723" stroke="#302C6D" stroke-width="3" stroke-miterlimit="10"/>
<path d="M-179.086 357.645L276.161 -151.516" stroke="#302C6D" stroke-width="3" stroke-miterlimit="10"/>
<path d="M-160.313 364.853L295.062 -144.309" stroke="#302C6D" stroke-width="3" stroke-miterlimit="10"/>
<path d="M-141.41 371.927L313.966 -137.105" stroke="#302C6D" stroke-width="3" stroke-miterlimit="10"/>
<path d="M-122.508 379.133L332.739 -130.027" stroke="#302C6D" stroke-width="3" stroke-miterlimit="10"/>
<path d="M-103.606 386.336L351.641 -122.824" stroke="#302C6D" stroke-width="3" stroke-miterlimit="10"/>
<path d="M-84.7037 393.539L370.543 -115.621" stroke="#302C6D" stroke-width="3" stroke-miterlimit="10"/>
<path d="M-65.9322 400.747L389.443 -108.414" stroke="#302C6D" stroke-width="3" stroke-miterlimit="10"/>
<path d="M-47.0289 407.953L408.218 -101.207" stroke="#302C6D" stroke-width="3" stroke-miterlimit="10"/>
<path d="M-28.1241 415.153L427.123 -94.0078" stroke="#302C6D" stroke-width="3" stroke-miterlimit="10"/>
<path d="M-9.22422 422.36L446.023 -86.8008" stroke="#302C6D" stroke-width="3" stroke-miterlimit="10"/>
<path d="M9.55124 429.563L464.927 -79.5977" stroke="#302C6D" stroke-width="3" stroke-miterlimit="10"/>
<path d="M28.4516 436.771L483.827 -72.3906" stroke="#302C6D" stroke-width="3" stroke-miterlimit="10"/>
<path d="M47.3554 443.973L502.603 -65.1875" stroke="#302C6D" stroke-width="3" stroke-miterlimit="10"/>
<path d="M66.2557 451.18L521.503 -57.9805" stroke="#302C6D" stroke-width="3" stroke-miterlimit="10"/>
<path d="M85.1601 458.383L540.407 -50.7773" stroke="#302C6D" stroke-width="3" stroke-miterlimit="10"/>
<path d="M103.932 465.591L559.308 -43.5703" stroke="#302C6D" stroke-width="3" stroke-miterlimit="10"/>
<path d="M122.835 472.797L578.083 -36.3633" stroke="#302C6D" stroke-width="3" stroke-miterlimit="10"/>
<path d="M141.735 480.004L596.982 -29.1562" stroke="#302C6D" stroke-width="3" stroke-miterlimit="10"/>
<path d="M160.64 487.203L615.887 -21.957" stroke="#302C6D" stroke-width="3" stroke-miterlimit="10"/>
<path d="M179.54 494.41L634.787 -14.75" stroke="#302C6D" stroke-width="3" stroke-miterlimit="10"/>
<path d="M198.313 501.618L653.689 -7.54297" stroke="#302C6D" stroke-width="3" stroke-miterlimit="10"/>
<path d="M217.217 508.821L672.464 -0.339844" stroke="#302C6D" stroke-width="3" stroke-miterlimit="10"/>
<path d="M236.117 516.028L691.364 6.86719" stroke="#302C6D" stroke-width="3" stroke-miterlimit="10"/>
<path d="M255.021 523.227L710.269 14.0664" stroke="#302C6D" stroke-width="3" stroke-miterlimit="10"/>
<path d="M273.794 530.31L729.169 21.1484" stroke="#302C6D" stroke-width="3" stroke-miterlimit="10"/>
<path d="M292.724 542.255L748.099 33.0938" stroke="#302C6D" stroke-width="3" stroke-miterlimit="10"/>
</g>
<path d="M7.8971 7.83976L568.363 437.901L1022.42 435.292L461.951 5.35854L7.89784 7.96807L8.0136 28.1111L568.478 457.916M568.478 457.916L568.362 437.773M568.478 457.916L1022.53 455.306L1022.41 435.163" stroke="#302C6D" stroke-width="2" stroke-miterlimit="10"/>
<path d="M568.359 436.489L1025.76 433.86C1025.79 439.89 1025.86 445.92 1025.93 451.95C1025.99 457.98 1026.06 464.01 1026.09 470.04C873.546 471.686 721.127 473.204 568.578 474.722L568.359 436.489Z" fill="#302C6D"/>
<path d="M570.672 437.379C382.78 293.86 194.888 150.342 6.99582 6.82288C4.7432 16.7152 2.49055 26.6076 0.238668 36.6283C189.813 182.703 379.388 328.778 569.092 474.981C569.533 462.405 570.102 449.828 570.672 437.379Z" fill="#302C6D"/>
</svg>
