<svg width="283" height="483" viewBox="0 0 283 483" fill="none" xmlns="http://www.w3.org/2000/svg">
<mask id="path-1-inside-1_1051_1687" fill="white">
<path d="M0.173192 433.045C0.173192 460.627 21.1524 483 47.0152 483H46.8996H235.77H235.886C261.749 483 282.728 460.627 282.728 433.045V432.922V49.8316V49.9549C282.728 22.3734 261.749 0 235.886 0H235.77H46.9285H47.0441C21.1813 0 0.202095 22.3734 0.202095 49.9549L-0.000183105 49.8316V432.922"/>
</mask>
<path d="M0.202095 49.9549L-13.3273 72.1575L26.2021 96.2452V49.9549H0.202095ZM-0.000183105 49.8316L13.5292 27.629L-26.0002 3.54135V49.8316H-0.000183105ZM0.173192 433.045H-25.8268C-25.8268 473.385 5.24252 509 47.0152 509V483V457C37.0623 457 26.1732 447.868 26.1732 433.045H0.173192ZM47.0152 483V457H46.8996V483V509H47.0152V483ZM46.8996 483V509H235.77V483V457H46.8996V483ZM235.77 483V509H235.886V483V457H235.77V483ZM235.886 483V509C277.659 509 308.728 473.385 308.728 433.045H282.728H256.728C256.728 447.868 245.839 457 235.886 457V483ZM282.728 433.045H308.728V432.922H282.728H256.728V433.045H282.728ZM282.728 432.922H308.728V49.8316H282.728H256.728V432.922H282.728ZM282.728 49.8316H256.728V49.9549H282.728H308.728V49.8316H282.728ZM282.728 49.9549H308.728C308.728 9.61509 277.659 -26 235.886 -26V0V26C245.839 26 256.728 35.1317 256.728 49.9549H282.728ZM235.886 0V-26H235.77V0V26H235.886V0ZM235.77 0V-26H46.9285V0V26H235.77V0ZM46.9285 0V26H47.0441V0V-26H46.9285V0ZM47.0441 0V-26C5.27144 -26 -25.7979 9.61511 -25.7979 49.9549H0.202095H26.2021C26.2021 35.1316 37.0912 26 47.0441 26V0ZM0.202095 49.9549L13.7315 27.7523L13.5292 27.629L-0.000183105 49.8316L-13.5296 72.0342L-13.3273 72.1575L0.202095 49.9549ZM-0.000183105 49.8316H-26.0002V432.922H-0.000183105H25.9998V49.8316H-0.000183105Z" fill="#302C6D" mask="url(#path-1-inside-1_1051_1687)"/>
<mask id="path-3-inside-2_1051_1687" fill="white">
<path d="M0.173192 433.045C0.173192 460.627 21.1524 483 47.0152 483H46.8996H235.77H235.886C261.749 483 282.728 460.627 282.728 433.045V432.922V49.8316V49.9549C282.728 22.3734 261.749 0 235.886 0H235.77H46.9285H47.0441C21.1813 0 0.202095 22.3734 0.202095 49.9549L-0.000183105 49.8316V432.922"/>
</mask>
<path d="M0.202095 49.9549L-13.3273 72.1575L26.2021 96.2452V49.9549H0.202095ZM-0.000183105 49.8316L13.5292 27.629L-26.0002 3.54135V49.8316H-0.000183105ZM0.173192 433.045H-25.8268C-25.8268 473.385 5.24252 509 47.0152 509V483V457C37.0623 457 26.1732 447.868 26.1732 433.045H0.173192ZM47.0152 483V457H46.8996V483V509H47.0152V483ZM46.8996 483V509H235.77V483V457H46.8996V483ZM235.77 483V509H235.886V483V457H235.77V483ZM235.886 483V509C277.659 509 308.728 473.385 308.728 433.045H282.728H256.728C256.728 447.868 245.839 457 235.886 457V483ZM282.728 433.045H308.728V432.922H282.728H256.728V433.045H282.728ZM282.728 432.922H308.728V49.8316H282.728H256.728V432.922H282.728ZM282.728 49.8316H256.728V49.9549H282.728H308.728V49.8316H282.728ZM282.728 49.9549H308.728C308.728 9.61509 277.659 -26 235.886 -26V0V26C245.839 26 256.728 35.1317 256.728 49.9549H282.728ZM235.886 0V-26H235.77V0V26H235.886V0ZM235.77 0V-26H46.9285V0V26H235.77V0ZM46.9285 0V26H47.0441V0V-26H46.9285V0ZM47.0441 0V-26C5.27144 -26 -25.7979 9.61511 -25.7979 49.9549H0.202095H26.2021C26.2021 35.1316 37.0912 26 47.0441 26V0ZM0.202095 49.9549L13.7315 27.7523L13.5292 27.629L-0.000183105 49.8316L-13.5296 72.0342L-13.3273 72.1575L0.202095 49.9549ZM-0.000183105 49.8316H-26.0002V432.922H-0.000183105H25.9998V49.8316H-0.000183105Z" fill="#302C6D" mask="url(#path-3-inside-2_1051_1687)"/>
</svg>
