<svg width="642" height="429" viewBox="0 0 642 429" fill="none" xmlns="http://www.w3.org/2000/svg">
<g clip-path="url(#clip0_953_1173)">
<path fill-rule="evenodd" clip-rule="evenodd" d="M606.901 375.244L620.691 419.91L634.527 375.426L628.681 375.426L628.681 341.934L612.813 341.934L612.813 375.244L606.901 375.244ZM628.681 332.813L628.681 316.626L612.813 316.445L612.813 332.813L628.681 332.813ZM612.813 307.325L628.681 307.325L628.681 295.214L612.813 295.214L612.813 307.325Z" fill="#C0C0C0"/>
</g>
<path fill-rule="evenodd" clip-rule="evenodd" d="M456.756 35.8472L412.09 21.764L456.574 7.63281L456.574 13.604L490.066 13.604L490.066 29.8088L456.756 29.8088L456.756 35.8472ZM499.187 13.604L515.374 13.604L515.555 29.8088L499.187 29.8088L499.187 13.604ZM524.675 29.8088L524.675 13.604L536.786 13.604L536.786 29.8088L524.675 29.8088Z" fill="#C0C0C0"/>
<g clip-path="url(#clip1_953_1173)">
<path fill-rule="evenodd" clip-rule="evenodd" d="M604.901 135.401L618.691 91.0312L632.527 135.221L626.681 135.221L626.681 168.491L610.813 168.491L610.813 135.401L604.901 135.401ZM626.681 177.551L626.681 193.631L610.813 193.811L610.813 177.551L626.681 177.551ZM610.813 202.871L626.681 202.871L626.681 214.901L610.813 214.901L610.813 202.871Z" fill="#C0C0C0"/>
</g>
<path fill-rule="evenodd" clip-rule="evenodd" d="M96.5997 36.0993L140.97 22.3095L96.7797 8.47266L96.7797 14.3195L63.5097 14.3195L63.5097 30.1867L96.5997 30.1867L96.5997 36.0993ZM54.4497 14.3195L38.3697 14.3195L38.1897 30.1867L54.4497 30.1867L54.4497 14.3195ZM29.1297 30.1867L29.1297 14.3195L17.0997 14.3195L17.0997 30.1867L29.1297 30.1867Z" fill="#C0C0C0"/>
<path d="M542.277 104.215V413.12H15.5V104.215H542.277Z" fill="#302C6D" stroke="#302C6D"/>
<path d="M542.778 103.715H15V413.62H542.778V103.715Z" fill="#302C6D" stroke="#302C6D" stroke-width="2" stroke-miterlimit="10"/>
<defs>
<clipPath id="clip0_953_1173">
<rect width="151" height="47" fill="white" transform="matrix(-4.37114e-08 -1 -1 4.37114e-08 642 429)"/>
</clipPath>
<clipPath id="clip1_953_1173">
<rect width="150" height="47" fill="white" transform="translate(640 82) rotate(90)"/>
</clipPath>
</defs>
</svg>
