<svg width="477" height="483" viewBox="0 0 477 483" fill="none" xmlns="http://www.w3.org/2000/svg">
<mask id="path-1-inside-1_1051_1659" fill="white">
<path d="M47.4198 0.103466C21.2232 0.103466 0.000196457 21.5893 0.000196457 48.1104V48.2139V435.097V434.994C0.000196457 461.515 21.2232 483.001 47.4198 483.001H47.3176H429.23H429.332C455.528 483.001 476.751 461.515 476.751 434.994V435.097V48.2484V48.1449C476.751 21.6238 455.528 0.137954 429.332 0.137954L429.23 0H47.3176"/>
</mask>
<path d="M429.332 0.137954L398.797 22.7573L410.191 38.138H429.332V0.137954ZM429.23 0L459.764 -22.6194L448.371 -38H429.23V0ZM47.4198 0.103466V-37.8965C-0.203271 -37.8965 -37.9998 1.04489 -37.9998 48.1104H0.000196457H38.0002C38.0002 42.1338 42.6497 38.1035 47.4198 38.1035V0.103466ZM0.000196457 48.1104H-37.9998V48.2139H0.000196457H38.0002V48.1104H0.000196457ZM0.000196457 48.2139H-37.9998V435.097H0.000196457H38.0002V48.2139H0.000196457ZM0.000196457 435.097H38.0002V434.994H0.000196457H-37.9998V435.097H0.000196457ZM0.000196457 434.994H-37.9998C-37.9998 482.06 -0.203231 521.001 47.4198 521.001V483.001V445.001C42.6496 445.001 38.0002 440.971 38.0002 434.994H0.000196457ZM47.4198 483.001V445.001H47.3176V483.001V521.001H47.4198V483.001ZM47.3176 483.001V521.001H429.23V483.001V445.001H47.3176V483.001ZM429.23 483.001V521.001H429.332V483.001V445.001H429.23V483.001ZM429.332 483.001V521.001C476.955 521.001 514.751 482.06 514.751 434.994H476.751H438.751C438.751 440.971 434.102 445.001 429.332 445.001V483.001ZM476.751 434.994H438.751V435.097H476.751H514.751V434.994H476.751ZM476.751 435.097H514.751V48.2484H476.751H438.751V435.097H476.751ZM476.751 48.2484H514.751V48.1449H476.751H438.751V48.2484H476.751ZM476.751 48.1449H514.751C514.751 1.07937 476.955 -37.862 429.332 -37.862V0.137954V38.138C434.102 38.138 438.751 42.1683 438.751 48.1449H476.751ZM429.332 0.137954L459.866 -22.4814L459.764 -22.6194L429.23 0L398.695 22.6194L398.797 22.7573L429.332 0.137954ZM429.23 0V-38H47.3176V0V38H429.23V0Z" fill="#302C6D" mask="url(#path-1-inside-1_1051_1659)"/>
<mask id="path-3-inside-2_1051_1659" fill="white">
<path d="M47.4198 0.103466C21.2232 0.103466 0.000196457 21.5893 0.000196457 48.1104V48.2139V435.097V434.994C0.000196457 461.515 21.2232 483.001 47.4198 483.001H47.3176H429.23H429.332C455.528 483.001 476.751 461.515 476.751 434.994V435.097V48.2484V48.1449C476.751 21.6238 455.528 0.137954 429.332 0.137954L429.23 0H47.3176"/>
</mask>
<path d="M429.332 0.137954L398.797 22.7573L410.191 38.138H429.332V0.137954ZM429.23 0L459.764 -22.6194L448.371 -38H429.23V0ZM47.4198 0.103466V-37.8965C-0.203271 -37.8965 -37.9998 1.04489 -37.9998 48.1104H0.000196457H38.0002C38.0002 42.1338 42.6497 38.1035 47.4198 38.1035V0.103466ZM0.000196457 48.1104H-37.9998V48.2139H0.000196457H38.0002V48.1104H0.000196457ZM0.000196457 48.2139H-37.9998V435.097H0.000196457H38.0002V48.2139H0.000196457ZM0.000196457 435.097H38.0002V434.994H0.000196457H-37.9998V435.097H0.000196457ZM0.000196457 434.994H-37.9998C-37.9998 482.06 -0.203231 521.001 47.4198 521.001V483.001V445.001C42.6496 445.001 38.0002 440.971 38.0002 434.994H0.000196457ZM47.4198 483.001V445.001H47.3176V483.001V521.001H47.4198V483.001ZM47.3176 483.001V521.001H429.23V483.001V445.001H47.3176V483.001ZM429.23 483.001V521.001H429.332V483.001V445.001H429.23V483.001ZM429.332 483.001V521.001C476.955 521.001 514.751 482.06 514.751 434.994H476.751H438.751C438.751 440.971 434.102 445.001 429.332 445.001V483.001ZM476.751 434.994H438.751V435.097H476.751H514.751V434.994H476.751ZM476.751 435.097H514.751V48.2484H476.751H438.751V435.097H476.751ZM476.751 48.2484H514.751V48.1449H476.751H438.751V48.2484H476.751ZM476.751 48.1449H514.751C514.751 1.07937 476.955 -37.862 429.332 -37.862V0.137954V38.138C434.102 38.138 438.751 42.1683 438.751 48.1449H476.751ZM429.332 0.137954L459.866 -22.4814L459.764 -22.6194L429.23 0L398.695 22.6194L398.797 22.7573L429.332 0.137954ZM429.23 0V-38H47.3176V0V38H429.23V0Z" fill="#302C6D" mask="url(#path-3-inside-2_1051_1659)"/>
</svg>
