<svg width="383" height="485" viewBox="0 0 383 485" fill="none" xmlns="http://www.w3.org/2000/svg">
<path d="M380.678 1.5V19.1436L380.291 18.9238V19.7842C380.291 39.2374 366.452 54.9041 349.526 54.9043H348.761L348.954 55.3447H253.735L253.673 55.2031L253.542 54.9043H253.215C226.842 54.9045 205.544 79.2319 205.544 109.146V109.437L205.796 109.581L205.927 109.655C205.154 169.585 204.389 229.515 203.624 289.444C202.858 349.472 202.092 409.501 201.317 469.529V469.544C201.443 477.193 195.839 483.32 189.385 483.041C182.921 482.762 177.715 476.196 178.343 468.584L178.345 468.562L178.344 468.54C177.989 408.677 177.643 348.824 177.296 288.971L176.247 109.4V109.183C176.247 79.3053 154.981 54.9404 128.575 54.9404H127.81L128.004 55.3818H32.785L32.7225 55.2402L32.5917 54.9404H32.2645C15.6026 54.9404 1.93257 39.7597 1.50964 20.7295L1.49988 19.8213V1.5H380.678Z" fill="#302C6D" stroke="#302C6D"/>
<path d="M201.817 469.536C203.366 349.479 204.882 229.423 206.431 109.367L206.044 109.146C206.044 79.4446 227.177 55.4039 253.215 55.4039L253.409 55.845H349.72L349.526 55.4039C366.788 55.4039 380.791 39.4504 380.791 19.7841L381.178 20.0046V1H0.999878V20.0414V19.8208C0.999878 39.4871 15.0029 55.4407 32.2646 55.4407L32.4582 55.8818H128.769L128.576 55.4407C154.646 55.4407 175.747 79.5181 175.747 109.183V109.404C176.457 229.129 177.134 348.818 177.844 468.543C177.199 476.373 182.555 483.247 189.363 483.541C196.171 483.835 201.946 477.402 201.817 469.536Z" fill="#302C6D" stroke="#302C6D" stroke-width="2" stroke-miterlimit="10"/>
</svg>
