<svg width="427" height="466" viewBox="0 0 427 466" fill="none" xmlns="http://www.w3.org/2000/svg">
<path d="M400.18 2H-0.160004H-25V26.84V51.68H-0.160004H151.12C164.84 51.68 175.96 62.8 175.96 76.52V439.02V463.86H200.8H225.64V439.02V76.52C225.64 62.8 236.76 51.68 250.48 51.68H400.18H425.02V26.84V2H400.18Z" fill="#302C6D"/>
<mask id="mask0_1141_815" style="mask-type:luminance" maskUnits="userSpaceOnUse" x="-25" y="2" width="451" height="462">
<path d="M400.18 2H-0.160004H-25V26.84V51.68H-0.160004H151.12C164.84 51.68 175.96 62.8 175.96 76.52V439.02V463.86H200.8H225.64V439.02V76.52C225.64 62.8 236.76 51.68 250.48 51.68H400.18H425.02V26.84V2H400.18Z" fill="white"/>
</mask>
<g mask="url(#mask0_1141_815)">
<path d="M-365.3 61.3906C-205.9 226.691 -48.66 383.941 118.04 543.331Z" fill="#302C6D"/>
<path d="M-365.3 61.3906C-205.9 226.691 -48.66 383.941 118.04 543.331" stroke="#302C6D" stroke-width="4" stroke-miterlimit="10"/>
<path d="M-337.26 63.0508L137.56 536.501" stroke="#302C6D" stroke-width="4" stroke-miterlimit="10"/>
<path d="M-317.75 56.2227L157.08 529.673" stroke="#302C6D" stroke-width="4" stroke-miterlimit="10"/>
<path d="M-298.23 49.3906L176.59 522.841" stroke="#302C6D" stroke-width="4" stroke-miterlimit="10"/>
<path d="M-278.71 42.5625L196.11 516.013" stroke="#302C6D" stroke-width="4" stroke-miterlimit="10"/>
<path d="M-259.2 35.7305L215.62 509.18" stroke="#302C6D" stroke-width="4" stroke-miterlimit="10"/>
<path d="M-239.68 28.9023L235.14 502.352" stroke="#302C6D" stroke-width="4" stroke-miterlimit="10"/>
<path d="M-220.17 22.0703L254.66 495.52" stroke="#302C6D" stroke-width="4" stroke-miterlimit="10"/>
<path d="M-200.65 15.2422L274.17 488.692" stroke="#302C6D" stroke-width="4" stroke-miterlimit="10"/>
<path d="M-181.14 8.41016L293.69 481.86" stroke="#302C6D" stroke-width="4" stroke-miterlimit="10"/>
<path d="M-161.62 1.58203L313.2 475.032" stroke="#302C6D" stroke-width="4" stroke-miterlimit="10"/>
<path d="M-142.11 -5.25L332.72 468.2" stroke="#302C6D" stroke-width="4" stroke-miterlimit="10"/>
<path d="M-122.59 -12.0664L352.23 461.374" stroke="#302C6D" stroke-width="4" stroke-miterlimit="10"/>
<path d="M-103.07 -18.8984L371.75 454.542" stroke="#302C6D" stroke-width="4" stroke-miterlimit="10"/>
<path d="M-83.56 -25.7266L391.26 447.713" stroke="#302C6D" stroke-width="4" stroke-miterlimit="10"/>
<path d="M-64.04 -32.5586L410.78 440.881" stroke="#302C6D" stroke-width="4" stroke-miterlimit="10"/>
<path d="M-44.53 -39.3867L430.3 434.053" stroke="#302C6D" stroke-width="4" stroke-miterlimit="10"/>
<path d="M-25.01 -46.2188L449.81 427.221" stroke="#302C6D" stroke-width="4" stroke-miterlimit="10"/>
<path d="M-5.5 -53.0469L469.33 420.393" stroke="#302C6D" stroke-width="4" stroke-miterlimit="10"/>
<path d="M14.02 -59.8789L488.84 413.561" stroke="#302C6D" stroke-width="4" stroke-miterlimit="10"/>
<path d="M33.53 -66.707L508.36 406.733" stroke="#302C6D" stroke-width="4" stroke-miterlimit="10"/>
<path d="M53.05 -73.5391L527.87 399.901" stroke="#302C6D" stroke-width="4" stroke-miterlimit="10"/>
<path d="M72.57 -80.3672L547.39 393.073" stroke="#302C6D" stroke-width="4" stroke-miterlimit="10"/>
<path d="M92.08 -87.1992L566.9 386.241" stroke="#302C6D" stroke-width="4" stroke-miterlimit="10"/>
<path d="M111.6 -94.0273L586.42 379.413" stroke="#302C6D" stroke-width="4" stroke-miterlimit="10"/>
<path d="M131.11 -100.859L605.93 372.581" stroke="#302C6D" stroke-width="4" stroke-miterlimit="10"/>
<path d="M150.63 -107.688L625.45 365.753" stroke="#302C6D" stroke-width="4" stroke-miterlimit="10"/>
<path d="M170.14 -114.52L644.97 358.92" stroke="#302C6D" stroke-width="4" stroke-miterlimit="10"/>
<path d="M189.66 -121.348L664.48 352.092" stroke="#302C6D" stroke-width="4" stroke-miterlimit="10"/>
<path d="M209.17 -128.18L684 345.26" stroke="#302C6D" stroke-width="4" stroke-miterlimit="10"/>
<path d="M228.69 -135.008L703.51 338.432" stroke="#302C6D" stroke-width="4" stroke-miterlimit="10"/>
<path d="M248.2 -141.84L723.03 331.6" stroke="#302C6D" stroke-width="4" stroke-miterlimit="10"/>
<path d="M267.72 -148.668L742.54 324.772" stroke="#302C6D" stroke-width="4" stroke-miterlimit="10"/>
<path d="M287.24 -155.5L762.06 317.94" stroke="#302C6D" stroke-width="4" stroke-miterlimit="10"/>
<path d="M306.75 -162.328L781.57 311.112" stroke="#302C6D" stroke-width="4" stroke-miterlimit="10"/>
<path d="M326.27 -173.578L801.09 299.862" stroke="#302C6D" stroke-width="4" stroke-miterlimit="10"/>
</g>
<path d="M400.18 2H-0.160004H-25V26.84V51.68H-0.160004H151.12C164.84 51.68 175.96 62.8 175.96 76.52V439.02V463.86H200.8H225.64V439.02V76.52C225.64 62.8 236.76 51.68 250.48 51.68H400.18H425.02V26.84V2H400.18Z" stroke="#302C6D" stroke-width="3" stroke-miterlimit="10"/>
</svg>
