<svg width="248" height="485" viewBox="0 0 248 485" fill="none" xmlns="http://www.w3.org/2000/svg">
<path d="M73.5539 40.3233H216.216L216.25 40.1479C223.988 41.0249 231.725 38.4642 237.554 33.062C243.382 27.6599 246.799 19.9776 246.966 11.8394V1H1V484H247V472.985C246.833 464.847 243.416 457.13 237.587 451.763C231.759 446.36 224.021 443.8 216.283 444.677H216.25H73.5539H73.6209C46.4886 444.677 24.4812 421.63 24.4812 393.216L24.3137 393.286V91.7138L24.4812 91.6436C24.4812 63.2298 46.4886 40.183 73.6209 40.183" fill="#302C6D"/>
<path d="M73.5539 40.3233H216.216L216.25 40.1479C223.988 41.0249 231.725 38.4642 237.554 33.062C243.382 27.6599 246.799 19.9776 246.966 11.8394V1H1V484H247V472.985C246.833 464.847 243.416 457.13 237.587 451.763C231.759 446.36 224.021 443.8 216.283 444.677H216.25H73.5539H73.6209C46.4886 444.677 24.4812 421.63 24.4812 393.216L24.3137 393.286V91.7138L24.4812 91.6436C24.4812 63.2298 46.4886 40.183 73.6209 40.183" stroke="#302C6D" stroke-miterlimit="10"/>
</svg>
