<svg width="237" height="485" viewBox="0 0 237 485" fill="none" xmlns="http://www.w3.org/2000/svg">
<path d="M70.3096 40.3233H206.593L206.625 40.1479C214.017 41.0249 221.408 38.4642 226.976 33.062C232.544 27.6599 235.808 19.9776 235.968 11.8394V1H1V484H236V472.985C235.84 464.847 232.576 457.13 227.008 451.763C221.44 446.36 214.049 443.8 206.657 444.677H206.625H70.3096H70.3736C44.4545 444.677 23.4312 421.63 23.4312 393.216L23.2712 393.286V91.7138L23.4312 91.6436C23.4312 63.2298 44.4545 40.183 70.3736 40.183" fill="#302C6D"/>
<path d="M70.3096 40.3233H206.593L206.625 40.1479C214.017 41.0249 221.408 38.4642 226.976 33.062C232.544 27.6599 235.808 19.9776 235.968 11.8394V1H1V484H236V472.985C235.84 464.847 232.576 457.13 227.008 451.763C221.44 446.36 214.049 443.8 206.657 444.677H206.625H70.3096H70.3736C44.4545 444.677 23.4312 421.63 23.4312 393.216L23.2712 393.286V91.7138L23.4312 91.6436C23.4312 63.2298 44.4545 40.183 70.3736 40.183" stroke="#302C6D" stroke-miterlimit="10"/>
</svg>
