<svg width="254" height="485" viewBox="0 0 254 485" fill="none" xmlns="http://www.w3.org/2000/svg">
<path d="M69.6011 22.9175H253V11.857V1H1V484H253V472.973L252.968 461.913H69.6011H69.6957C40.9805 461.913 17.7243 436.908 17.7243 406.033L17.5665 406.135V78.7292L17.7243 78.6274C17.7243 47.7529 40.9805 22.7479 69.6957 22.7479" fill="#302C6D"/>
<path d="M69.6011 22.9175H253V11.857V1H1V484H253V472.973L252.968 461.913H69.6011H69.6957C40.9805 461.913 17.7243 436.908 17.7243 406.033L17.5665 406.135V78.7292L17.7243 78.6274C17.7243 47.7529 40.9805 22.7479 69.6957 22.7479" stroke="#302C6D" stroke-miterlimit="10"/>
</svg>
