<svg width="398" height="496" viewBox="0 0 398 496" fill="none" xmlns="http://www.w3.org/2000/svg">
<path fill-rule="evenodd" clip-rule="evenodd" d="M212.564 6.0764L192.154 13.118L212.481 20.1836V17.198H227.785V9.0956H212.564V6.0764ZM231.953 17.198H239.35L239.433 9.0956H231.953V17.198ZM243.6 9.0956V17.198H249.134V9.0956H243.6Z" fill="#C0C0C0"/>
<g clip-path="url(#clip0_952_1150)">
<path fill-rule="evenodd" clip-rule="evenodd" d="M153.43 428.983L129.658 428.261L138.701 406.307L141.804 411.115L154.141 403.153L162.562 416.202L150.292 424.121L153.43 428.983ZM157.501 400.985L163.464 397.137L171.952 410.142L165.922 414.033L157.501 400.985ZM175.311 407.974L166.89 394.926L171.351 392.047L179.772 405.095L175.311 407.974Z" fill="#C0C0C0"/>
</g>
<path fill-rule="evenodd" clip-rule="evenodd" d="M145.496 272.649L125.973 286.145L145.417 299.688V293.965H160.056V278.436H145.496V272.649ZM164.042 293.965H171.117L171.196 278.436H164.042V293.965ZM175.183 278.436V293.965H180.476V278.436H175.183Z" fill="#C0C0C0"/>
<g clip-path="url(#clip1_952_1150)">
<path fill-rule="evenodd" clip-rule="evenodd" d="M363.647 441.532L377.144 486.789L390.686 441.715L384.964 441.715L384.964 407.78L369.434 407.78L369.434 441.532L363.647 441.532ZM384.964 398.539L384.964 382.137L369.434 381.953L369.434 398.539L384.964 398.539ZM369.434 372.712L384.964 372.712L384.964 360.442L369.434 360.442L369.434 372.712Z" fill="#C0C0C0"/>
</g>
<g clip-path="url(#clip2_952_1150)">
<path fill-rule="evenodd" clip-rule="evenodd" d="M363.647 89.4683L377.144 44.2109L390.686 89.2847L384.964 89.2847L384.964 123.22L369.434 123.22L369.434 89.4683L363.647 89.4683ZM384.964 132.461L384.964 148.863L369.434 149.047L369.434 132.461L384.964 132.461ZM369.434 158.288L384.964 158.288L384.964 170.558L369.434 170.558L369.434 158.288Z" fill="#C0C0C0"/>
</g>
<path fill-rule="evenodd" clip-rule="evenodd" d="M42.5041 272.649L62.0269 286.145L42.5833 299.688V293.965H27.9445V278.436H42.5041V272.649ZM23.9581 293.965H16.8829L16.8036 278.436H23.9581V293.965ZM12.8172 278.436V293.965H7.52405V278.436H12.8172Z" fill="#C0C0C0"/>
<path fill-rule="evenodd" clip-rule="evenodd" d="M112.928 6.0764L131.268 13.118L113.002 20.1836V17.198H99.2508V9.0956H112.928V6.0764ZM95.506 17.198H88.8596L88.7852 9.0956H95.506V17.198ZM85.0404 9.0956V17.198H80.068V9.0956H85.0404Z" fill="#C0C0C0"/>
<path d="M97.0724 115.563C97.0724 87.9014 119.5 65.4673 147.154 65.4673L147.126 65.6369H249.972V55.7195V46H81V479H250V469.111L249.972 459.194H150.261H147.154C119.5 459.194 97.0724 436.76 97.0724 409.098L96.9029 409.183V115.647" fill="#302C6D"/>
<path d="M97.0724 115.563C97.0724 87.9014 119.5 65.4673 147.154 65.4673L147.126 65.6369H249.972V55.7195V46H81V479H250V469.111L249.972 459.194H150.261H147.154C119.5 459.194 97.0724 436.76 97.0724 409.098L96.9029 409.183V115.647" stroke="#302C6D" stroke-miterlimit="10"/>
<defs>
<clipPath id="clip0_952_1150">
<rect width="66.2013" height="46" fill="white" transform="translate(115 412.898) rotate(-32.837)"/>
</clipPath>
<clipPath id="clip1_952_1150">
<rect width="153" height="46" fill="white" transform="matrix(-4.37114e-08 -1 -1 4.37114e-08 398 496)"/>
</clipPath>
<clipPath id="clip2_952_1150">
<rect width="153" height="46" fill="white" transform="translate(398 35) rotate(90)"/>
</clipPath>
</defs>
</svg>
