<svg width="398" height="495" viewBox="0 0 398 495" fill="none" xmlns="http://www.w3.org/2000/svg">
<path fill-rule="evenodd" clip-rule="evenodd" d="M222.564 6.0764L202.154 13.118L222.481 20.1836V17.198H237.785V9.0956H222.564V6.0764ZM241.953 17.198H249.35L249.433 9.0956H241.953V17.198ZM253.6 9.0956V17.198H259.134V9.0956H253.6Z" fill="#C0C0C0"/>
<g clip-path="url(#clip0_952_1152)">
<path fill-rule="evenodd" clip-rule="evenodd" d="M153.43 440.983L129.658 440.261L138.701 418.307L141.804 423.115L154.141 415.153L162.562 428.202L150.292 436.121L153.43 440.983ZM157.501 412.985L163.464 409.137L171.952 422.142L165.922 426.033L157.501 412.985ZM175.311 419.974L166.89 406.926L171.351 404.047L179.772 417.095L175.311 419.974Z" fill="#C0C0C0"/>
</g>
<path fill-rule="evenodd" clip-rule="evenodd" d="M145.496 271.649L125.973 285.145L145.417 298.688V292.965H160.056V277.436H145.496V271.649ZM164.042 292.965H171.117L171.196 277.436H164.042V292.965ZM175.183 277.436V292.965H180.476V277.436H175.183Z" fill="#C0C0C0"/>
<g clip-path="url(#clip1_952_1152)">
<path fill-rule="evenodd" clip-rule="evenodd" d="M363.647 440.532L377.144 485.789L390.686 440.715L384.964 440.715L384.964 406.78L369.434 406.78L369.434 440.532L363.647 440.532ZM384.964 397.539L384.964 381.137L369.434 380.953L369.434 397.539L384.964 397.539ZM369.434 371.712L384.964 371.712L384.964 359.442L369.434 359.442L369.434 371.712Z" fill="#C0C0C0"/>
</g>
<g clip-path="url(#clip2_952_1152)">
<path fill-rule="evenodd" clip-rule="evenodd" d="M363.647 88.4683L377.144 43.2109L390.686 88.2847L384.964 88.2847L384.964 122.22L369.434 122.22L369.434 88.4683L363.647 88.4683ZM384.964 131.461L384.964 147.863L369.434 148.047L369.434 131.461L384.964 131.461ZM369.434 157.288L384.964 157.288L384.964 169.558L369.434 169.558L369.434 157.288Z" fill="#C0C0C0"/>
</g>
<path fill-rule="evenodd" clip-rule="evenodd" d="M42.5041 271.649L62.0269 285.145L42.5833 298.688V292.965H27.9445V277.436H42.5041V271.649ZM23.9581 292.965H16.8829L16.8036 277.436H23.9581V292.965ZM12.8172 277.436V292.965H7.52405V277.436H12.8172Z" fill="#C0C0C0"/>
<path fill-rule="evenodd" clip-rule="evenodd" d="M118.928 6.0764L137.268 13.118L119.002 20.1836V17.198H105.251V9.0956H118.928V6.0764ZM101.506 17.198H94.8596L94.7852 9.0956H101.506V17.198ZM91.0404 9.0956V17.198H86.068V9.0956H91.0404Z" fill="#C0C0C0"/>
<path d="M134.374 465.091H259.918L260 468.115V478H88V45H259.973V54.7323L259.945 57.9087H134.374C103.522 57.9087 99.1966 80.7022 99.1966 109.315L99.1418 109.645V413.355C99.1418 441.993 104.097 464.939 134.922 464.939" fill="#302C6D"/>
<path d="M134.374 465.091H259.918L260 468.115V478H88V45H259.973V54.7323L259.945 57.9087H134.374C103.522 57.9087 99.1966 80.7022 99.1966 109.315L99.1418 109.645V413.355C99.1418 441.993 104.097 464.939 134.922 464.939" stroke="#302C6D" stroke-miterlimit="10"/>
<defs>
<clipPath id="clip0_952_1152">
<rect width="66.2013" height="46" fill="white" transform="translate(115 424.898) rotate(-32.837)"/>
</clipPath>
<clipPath id="clip1_952_1152">
<rect width="153" height="46" fill="white" transform="matrix(-4.37114e-08 -1 -1 4.37114e-08 398 495)"/>
</clipPath>
<clipPath id="clip2_952_1152">
<rect width="153" height="46" fill="white" transform="translate(398 34) rotate(90)"/>
</clipPath>
</defs>
</svg>
