<svg width="206" height="485" viewBox="0 0 206 485" fill="none" xmlns="http://www.w3.org/2000/svg">
<path d="M194.795 454.973H45.9686H45.8922C34.6183 454.973 25.482 444.157 25.482 430.811V430.901V13.0364L25.5075 13.1569C25.5075 6.46865 20.9266 1.04575 15.2769 1.04575L15.3278 1.01562H1V484.016H205V467.054L204.924 467.144C204.924 460.456 200.343 455.033 194.693 455.033" fill="#302C6D"/>
<path d="M194.795 454.973H45.9686H45.8922C34.6183 454.973 25.482 444.157 25.482 430.811V430.901V13.0364L25.5075 13.1569C25.5075 6.46865 20.9266 1.04575 15.2769 1.04575L15.3278 1.01562H1V484.016H205V467.054L204.924 467.144C204.924 460.456 200.343 455.033 194.693 455.033" stroke="#302C6D" stroke-miterlimit="10"/>
</svg>
