<svg width="298" height="495" viewBox="0 0 298 495" fill="none" xmlns="http://www.w3.org/2000/svg">
<path d="M19.2879 447.926L25.6589 454.692H13L19.2879 447.926Z" fill="#302C6D"/>
<path d="M19.2879 447.926L25.6589 454.692H13L19.2879 447.926Z" stroke="#302C6D" stroke-width="11" stroke-miterlimit="10" stroke-linecap="round"/>
<path d="M270.861 17.8932L270.501 17.5057L269.116 16.0153L269.033 15.9259V15.8066H268.922L267.869 14.674L266.9 13.6307L266.734 13.4519L265.875 12.5278L264.933 11.5144L264.573 11.1269L264.601 10.948C261.637 7.75864 257.648 6 253.465 6L253.41 6.11923H163.607L163.662 6C157.346 6 151.945 9.99419 149.424 15.747L149.313 15.8663V15.9855C149.286 16.0451 149.258 16.1047 149.23 16.1643L149.203 16.2538L149.092 16.4922L148.981 16.8797L148.759 17.3864L148.649 17.8932L148.538 18.1316L148.427 18.5191L148.316 19.2643L148.205 19.8903L148.095 20.5162V20.6355L147.984 21.4999V21.7383V22.2451L147.873 22.9902V471.831C147.873 475.795 144.881 479.014 141.197 479.014L141.142 479.134H51.1999L51.2553 479.014L46.4355 477.017L25.6605 454.662H25.5774L19.2895 447.925L13.0293 454.662L34.1644 477.524L34.2752 477.673L34.386 477.763L35.0231 478.478L35.0785 478.567L35.3001 478.806L35.5217 479.044L35.6325 479.164H35.6602L35.771 479.283V479.313L36.8236 480.445L36.9344 480.564L38.7349 482.532L38.7903 482.591L38.8457 482.621L40.0922 483.963L40.5631 484.35L40.9232 484.738L41.5049 485.244L41.865 485.632L42.4467 486.019L42.8068 486.258L43.3885 486.645L43.7486 486.884L44.4411 487.271L44.8012 487.39L45.6045 487.778L45.8261 487.897L46.6294 488.285H46.851L47.7928 488.523H47.9036L48.9562 488.762H49.067L50.1196 488.881L51.283 489H141.142L142.305 488.881H142.416L143.358 488.762H143.579L144.521 488.523H144.743L145.546 488.285H145.768L146.71 487.897L146.931 487.778L147.485 487.48C147.541 487.45 147.596 487.42 147.651 487.39L147.984 487.271L148.676 486.884L149.036 486.645L149.618 486.258L150.089 486.019L150.56 485.632L151.031 485.244L151.502 484.738L151.557 484.678C151.723 484.529 151.862 484.38 152.028 484.231L152.333 483.992L152.804 483.486L153.496 482.621L153.912 481.965C154.105 481.697 154.272 481.429 154.466 481.131L154.909 480.505L155.241 479.7C155.297 479.581 155.352 479.462 155.407 479.342L155.49 479.253V479.134C155.546 478.985 155.629 478.865 155.684 478.716L155.74 478.627C155.823 478.389 155.906 478.15 155.989 477.912L156.072 477.763L156.128 477.494C156.183 477.345 156.238 477.196 156.266 477.047L156.294 477.017L156.405 476.511L156.46 476.242C156.792 474.901 156.986 473.5 156.986 472.04V472.01V471.95V23.0201L157.097 22.9604L163.717 15.7768H253.576L254.379 15.8961L255.072 16.0153L255.764 16.2538L256.457 16.4922L257.149 16.8797L257.731 17.3864L258.313 17.8932L279.088 40.2488L285.487 47.1343L291.747 40.2488L270.861 17.8932Z" fill="#302C6D" stroke="#302C6D" stroke-width="11" stroke-miterlimit="10" stroke-linecap="round" stroke-linejoin="round"/>
</svg>
