<svg width="36" height="52" viewBox="0 0 36 52" fill="none" xmlns="http://www.w3.org/2000/svg">
<path d="M17.5245 51.5202C20.2749 51.5202 22.6426 49.3754 23.5416 46.3661C23.5505 46.3333 23.5326 46.3004 23.5059 46.3004H11.552C11.5253 46.3004 11.5075 46.3333 11.5164 46.3661C12.4065 49.3754 14.7741 51.5202 17.5245 51.5202ZM34.4542 37.1084C34.374 36.999 34.3117 36.8895 34.2138 36.7801C34.1515 36.6707 34.0803 36.5831 33.9913 36.4956C33.6798 36.1673 33.3593 35.8062 33.0834 35.4341C32.5048 34.701 32.0064 33.8802 31.5703 33.0158C30.5199 30.86 29.9413 28.365 29.9413 25.7715V21.5476C29.9413 14.8177 26.3631 9.09458 21.432 7.07015C21.4142 7.0592 21.4052 7.04827 21.4052 7.02638V4.96911C21.4052 2.5179 19.9723 0.318387 17.9963 0.0338715C15.6465 -0.305358 13.6525 1.94887 13.6525 4.76119V7.02638C13.6525 7.04827 13.6436 7.0592 13.6258 7.07015C8.69469 9.08364 5.11668 14.8177 5.11668 21.5476V25.7715C5.11668 26.2859 5.10772 26.8111 5.05431 27.3036C4.86739 29.3499 4.33332 31.2868 3.47883 33.0376C3.16729 33.6833 2.76672 34.3289 2.33057 34.9089C2.22376 35.1058 2.10813 35.27 1.96571 35.4451C1.8233 35.6202 1.68979 35.8062 1.52957 35.9813C1.36936 36.1782 1.21801 36.3424 1.0578 36.4956V36.5503C0.968788 36.6379 0.897563 36.7254 0.817455 36.8348C-0.188352 38.148 -0.330828 40.249 0.755087 41.781C1.36925 42.6455 2.29497 43.0832 3.22067 43.0832H11.1781H13.6347H21.423H23.8797H31.8551C33.5018 43.0832 34.9703 41.5731 35.0504 39.5487C35.086 38.6513 34.8725 37.8087 34.4542 37.1084Z" fill="black"/>
</svg>
