<svg width="46" height="46" viewBox="0 0 46 46" fill="none" xmlns="http://www.w3.org/2000/svg">
<mask id="path-1-inside-1_308_7787" fill="white">
<path fill-rule="evenodd" clip-rule="evenodd" d="M37.4894 40.8679C33.531 44.0757 28.4953 46.0004 22.9996 46.0004C10.3014 46.0004 0 35.699 0 23.0009C0 16.3432 2.83259 10.3391 7.34778 6.13867"/>
</mask>
<path fill-rule="evenodd" clip-rule="evenodd" d="M37.4894 40.8679C33.531 44.0757 28.4953 46.0004 22.9996 46.0004C10.3014 46.0004 0 35.699 0 23.0009C0 16.3432 2.83259 10.3391 7.34778 6.13867" fill="white"/>
<path d="M37.4894 40.8679L36.8598 40.091C33.0725 43.1601 28.2573 45.0004 22.9996 45.0004V46.0004V47.0004C28.7334 47.0004 33.9895 44.9913 38.119 41.6448L37.4894 40.8679ZM22.9996 46.0004V45.0004C10.8537 45.0004 1 35.1467 1 23.0009H0H-1C-1 36.2513 9.74914 47.0004 22.9996 47.0004V46.0004ZM0 23.0009H1C1 16.6326 3.70835 10.8902 8.0289 6.87084L7.34778 6.13867L6.66665 5.40651C1.95683 9.788 -1 16.0537 -1 23.0009H0Z" fill="#F08C21" mask="url(#path-1-inside-1_308_7787)"/>
<path d="M23.0007 0.5C35.4224 0.500262 45.4995 10.5774 45.4998 22.999C45.4998 29.8826 42.413 36.0332 37.5457 40.168L8.04663 6.17871C12.0321 2.65144 17.266 0.5 23.0007 0.5Z" fill="#F08C21" stroke="#F08C21"/>
</svg>
