<svg width="49" height="49" viewBox="0 0 49 49" fill="none" xmlns="http://www.w3.org/2000/svg">
<path d="M22.5402 0C23.5414 0 24.5439 0 25.5452 0C25.6656 0.0263483 25.7848 0.0677529 25.9065 0.0765356C29.535 0.348801 32.944 1.3676 36.0657 3.23708C42.4344 7.05005 46.3453 12.6158 47.7166 19.9381C47.881 20.8127 47.9638 21.7022 48.0855 22.5843C48.0855 23.588 48.0855 24.5918 48.0855 25.5955C48.0592 25.7172 48.0177 25.8364 48.0077 25.9594C47.6915 30.0898 46.418 33.904 44.1107 37.3355C40.2801 43.0318 34.9829 46.5437 28.2302 47.8059C27.3431 47.9715 26.441 48.0568 25.5452 48.1798C24.5439 48.1798 23.5414 48.1798 22.5402 48.1798C22.3884 48.1509 22.2378 48.117 22.086 48.0944C21.081 47.9489 20.0622 47.8661 19.0723 47.6515C13.2806 46.3956 8.54423 43.417 4.95082 38.7019C0.922038 33.4147 -0.622476 27.4148 0.224434 20.8315C0.839227 16.0587 2.77645 11.8454 5.95582 8.23573C9.69853 3.98612 14.3609 1.33874 19.9455 0.362603C20.8062 0.213296 21.6745 0.119195 22.5402 0ZM31.939 24.1049C31.9302 19.706 28.4096 16.1703 24.0458 16.1791C19.6406 16.1879 16.1376 19.7211 16.1463 24.1463C16.1551 28.5051 19.7121 32.0132 24.1111 32.0019C28.4209 31.9894 31.9478 28.4323 31.939 24.1049ZM17.2919 16.5982C17.2078 16.3824 17.1915 16.2193 17.1024 16.1277C16.3057 15.3109 15.5102 14.4903 14.6821 13.7061C14.3961 13.4364 14.0272 13.5092 13.7524 13.7889C13.4776 14.0687 13.4162 14.4351 13.6859 14.7224C14.4588 15.5417 15.2505 16.3447 16.0786 17.1051C16.2317 17.2456 16.6294 17.2443 16.849 17.1527C17.0485 17.0699 17.1601 16.7751 17.2919 16.5982ZM31.5011 17.3297C31.7257 17.2418 31.9039 17.2218 32.0055 17.1239C32.811 16.3385 33.6165 15.5493 34.3919 14.7337C34.6629 14.4477 34.6127 14.0813 34.3417 13.799C34.0544 13.5004 33.678 13.4389 33.3756 13.7262C32.5689 14.4891 31.7784 15.2707 31.0281 16.09C30.8826 16.2481 30.8688 16.6383 30.9528 16.8629C31.0269 17.0637 31.3192 17.1854 31.5011 17.3297ZM17.3232 31.6029C17.1526 31.3909 17.0196 31.0672 16.8113 31.0082C16.5591 30.9367 16.1576 30.9944 15.9707 31.1625C15.2154 31.8413 14.5115 32.5791 13.8013 33.3068C13.4513 33.6669 13.4438 34.0834 13.7474 34.3933C14.0498 34.7032 14.4751 34.707 14.8314 34.3607C15.5604 33.6518 16.2781 32.9304 16.9857 32.2001C17.12 32.0621 17.1827 31.8564 17.3232 31.6029ZM31.5526 30.8137C31.3305 30.9919 31.0068 31.1236 30.9478 31.3319C30.8763 31.5841 30.9315 31.9868 31.0996 32.175C31.7772 32.9316 32.5137 33.6367 33.2401 34.3481C33.6002 34.7007 34.0143 34.7082 34.3242 34.4059C34.6454 34.0935 34.6366 33.6669 34.2639 33.2854C33.5764 32.579 32.8788 31.8815 32.1711 31.1951C32.0218 31.0509 31.811 30.9706 31.5526 30.8137ZM23.2993 36.3556C23.2993 36.8575 23.2892 37.3594 23.3018 37.86C23.3143 38.3518 23.6067 38.6668 24.0295 38.6743C24.4536 38.6818 24.7748 38.3681 24.7811 37.8851C24.7949 36.8663 24.7949 35.8475 24.7811 34.8299C24.7748 34.3369 24.4686 34.042 24.0308 34.0483C23.5954 34.0533 23.3131 34.3532 23.3018 34.8525C23.2892 35.3519 23.2993 35.8538 23.2993 36.3556ZM23.298 11.8291C23.298 12.3147 23.2917 12.8003 23.2993 13.2858C23.3093 13.8203 23.5841 14.129 24.0333 14.134C24.485 14.1377 24.7773 13.8278 24.7823 13.3009C24.7923 12.3147 24.7923 11.3273 24.7823 10.3411C24.7773 9.82666 24.4636 9.49919 24.0245 9.50923C23.6029 9.51927 23.3118 9.83545 23.3005 10.3273C23.2892 10.8266 23.2993 11.3273 23.298 11.8291ZM11.7926 23.3446C11.3083 23.3446 10.8227 23.3371 10.3384 23.3471C9.81522 23.3571 9.49025 23.647 9.489 24.0874C9.48774 24.5278 9.81145 24.8289 10.3321 24.8339C11.3171 24.8427 12.302 24.8439 13.2869 24.8326C13.8076 24.8264 14.1163 24.524 14.105 24.0698C14.0949 23.6369 13.7938 23.3597 13.2932 23.3484C12.7926 23.3358 12.292 23.3446 11.7926 23.3446ZM36.2764 24.8339C36.7921 24.8339 37.309 24.8477 37.8235 24.8301C38.2802 24.8151 38.5851 24.5127 38.5951 24.1074C38.6064 23.6834 38.2915 23.3571 37.8122 23.3496C36.7959 23.3358 35.7796 23.3358 34.7645 23.3484C34.2727 23.3546 33.9766 23.6558 33.9791 24.0949C33.9816 24.5315 34.2802 24.8188 34.7758 24.8314C35.2765 24.8452 35.7771 24.8352 36.2764 24.8339Z" fill="black"/>
<path d="M24.0179 17.6523C24.0179 21.9597 24.0179 26.213 24.0179 30.5229C21.6855 30.4451 19.8524 29.484 18.6341 27.5292C17.2351 25.2846 17.2238 22.9433 18.6065 20.6899C19.8198 18.71 21.6629 17.7301 24.0179 17.6523Z" fill="black"/>
</svg>
