<svg width="133" height="57" viewBox="0 0 133 57" fill="none" xmlns="http://www.w3.org/2000/svg">
<g clip-path="url(#clip0_576_310)">
<path d="M43.7416 0H0V44.0991H43.7416V0Z" fill="#F08C21"/>
<path d="M133 0H89.2584V44.0991H133V0Z" fill="#F08C21"/>
<path d="M16.211 15.5414C16.211 14.4594 16.3124 13.3774 15.2392 12.7005V7.5625H26.1378V12.7024C25.0646 13.3794 25.166 14.4614 25.166 15.5433V28.56C25.166 29.642 25.0646 30.7239 26.1378 31.4009V36.5408H15.2373V31.399C16.3105 30.722 16.2091 29.64 16.2091 28.558V15.5414H16.211Z" fill="white"/>
<path d="M111.74 19.384H111.809L114.88 7.30859H126.073V12.5372C124.981 13.2258 125.084 14.327 125.084 15.4264V28.6725C125.084 29.7738 124.981 30.875 126.073 31.5617V36.7903H115.392V31.5617C116.485 30.8731 116.381 29.7719 116.381 28.6725V20.7592H116.313L112.354 36.7922H109.489L105.326 20.7592H105.257V28.6725C105.257 29.7738 105.154 30.875 106.246 31.5617V36.7903H97.2377V31.5617C98.33 30.8731 98.2267 29.7719 98.2267 28.6725V15.4283C98.2267 14.327 98.33 13.2258 97.2377 12.5392V7.30859H108.737L111.74 19.384Z" fill="white"/>
<path d="M59.086 25.7257C58.2653 26.6168 57.8559 27.8743 57.8559 29.4982C57.8559 30.6921 58.2979 31.6159 59.1817 32.2697C60.0655 32.9235 61.3128 33.2514 62.9236 33.2514C64.477 33.2514 65.8103 32.7885 66.9237 31.8608C68.0352 30.9331 68.8846 29.612 69.4681 27.8936C70.0535 26.1751 70.3442 24.1596 70.3442 21.8452H75.9896C75.9896 25.2802 75.4482 28.2465 74.3635 30.7403C73.2808 33.234 71.691 35.1492 69.5943 36.4858C67.4976 37.8224 64.9533 38.4916 61.9594 38.4916C59.9354 38.4916 58.2022 38.1387 56.7617 37.4347C55.3212 36.7307 54.2231 35.7066 53.4674 34.3623C52.7118 33.018 52.333 31.3979 52.333 29.5001C52.333 26.9408 53.0714 24.8925 54.5464 23.3554C56.0213 21.8182 58.1008 20.9272 60.781 20.6822L62.5773 24.3911C61.0718 24.3892 59.9067 24.8347 59.086 25.7257ZM60.0808 25.7045C59.0401 24.5974 58.1735 23.4807 57.4829 22.3525C56.7904 21.2242 56.2662 20.0631 55.9104 18.8712C55.5546 17.6774 55.3766 16.4488 55.3766 15.1836C55.3766 12.4391 56.1399 10.3137 57.6646 8.81126C59.1893 7.30882 61.3491 6.55664 64.1441 6.55664C66.9237 6.55664 69.074 7.27989 70.5929 8.72447C72.1119 10.169 72.8714 12.2134 72.8714 14.8596V15.7217H67.0117V14.8596C67.0117 13.5944 66.763 12.6107 66.2637 11.9049C65.7644 11.2009 65.0585 10.8479 64.146 10.8479C63.09 10.8479 62.2712 11.226 61.6858 11.9801C61.1005 12.7342 60.8097 13.8027 60.8097 15.1817C60.8097 15.9435 60.9952 16.796 61.3664 17.7372C61.7375 18.6784 62.2751 19.6774 62.981 20.7343C63.6869 21.7912 64.5324 22.8655 65.5157 23.9571L78.3273 38.1657H71.7197L60.0808 25.7045Z" fill="#302C6D"/>
<path d="M72.6859 52.4219C72.6859 52.1924 72.7069 51.9628 72.4792 51.8182V50.7266H74.7921V51.8182C74.5645 51.9609 74.5855 52.1904 74.5855 52.4219V55.1837C74.5855 55.4132 74.5645 55.6428 74.7921 55.7874V56.879H72.4792V55.7874C72.7069 55.6447 72.6859 55.4152 72.6859 55.1837V52.4219Z" fill="#F08C21"/>
<path d="M77.7898 55.1838C77.7898 55.4133 77.7688 55.6428 77.9965 55.7874V56.8791H75.6836V55.7874C75.9112 55.6447 75.8902 55.4152 75.8902 55.1838V52.4219C75.8902 52.1924 75.9112 51.9629 75.6836 51.8182V50.7266H78.3236C78.7942 50.7266 79.3834 50.7189 79.7966 50.9696C80.294 51.2647 80.4662 51.7874 80.4662 52.3467C80.4662 53.0217 80.2672 53.61 79.5556 53.7893V53.8028C80.1544 53.9455 80.3533 54.204 80.3533 54.8289V55.1799C80.3533 55.3882 80.3533 55.6891 80.5886 55.7836V56.8752H78.5455C78.4671 56.5377 78.4173 56.2503 78.4384 55.2243C78.4384 54.7363 78.3886 54.4933 77.8683 54.4779H77.7898V55.1838ZM77.7898 53.2532H77.9812C78.3944 53.2532 78.5225 53.0371 78.5225 52.607C78.5225 52.2117 78.3944 51.9976 77.9812 51.9976H77.7898V53.2532Z" fill="#F08C21"/>
<path d="M86.0389 55.0993C86.0389 56.621 85.113 57.001 83.7681 57.001C82.4232 57.001 81.4973 56.621 81.4973 55.0993V52.5091C81.4973 50.9874 82.4232 50.6074 83.7681 50.6074C85.113 50.6074 86.0389 50.9874 86.0389 52.5091V55.0993ZM83.397 55.1919C83.397 55.2343 83.3759 55.6721 83.7662 55.6721C84.1583 55.6721 84.1373 55.2343 84.1373 55.1919V52.4069C84.1373 52.3644 84.1583 51.9324 83.7662 51.9324C83.374 51.9324 83.397 52.3625 83.397 52.4069V55.1919Z" fill="#F08C21"/>
<path d="M90.1596 53.5058H90.1729V52.4219C90.1729 52.1924 90.194 51.9628 89.9663 51.8182V50.7266H91.9157V51.8182C91.6881 51.9609 91.7091 52.1904 91.7091 52.4219V56.8771H89.8649L88.7324 54.1152H88.719V55.1837C88.719 55.4132 88.698 55.6428 88.9256 55.7874V56.879H87.0317V55.7874C87.2594 55.6447 87.2383 55.4152 87.2383 55.1837V52.4219C87.2383 52.1924 87.2594 51.9628 87.0317 51.8182V50.7266H89.0959L90.1596 53.5058Z" fill="#F08C21"/>
<path d="M96.8915 54.857C96.7576 55.0016 96.6925 55.2061 96.6925 55.4703C96.6925 55.6651 96.7652 55.8136 96.9087 55.9197C97.0522 56.0257 97.255 56.0797 97.5171 56.0797C97.7696 56.0797 97.9858 56.0045 98.1675 55.8541C98.3492 55.7037 98.4851 55.4876 98.5807 55.2099C98.6764 54.9303 98.7223 54.6024 98.7223 54.2263H99.6405C99.6405 54.7837 99.5525 55.2658 99.3765 55.6709C99.2005 56.0759 98.9423 56.3883 98.6017 56.6043C98.2612 56.8223 97.848 56.9303 97.3602 56.9303C97.0311 56.9303 96.7499 56.8724 96.5165 56.7586C96.2831 56.6449 96.1033 56.4771 95.9809 56.2591C95.8585 56.0412 95.7972 55.7769 95.7972 55.4684C95.7972 55.0518 95.9178 54.72 96.1569 54.4693C96.396 54.2186 96.7346 54.0739 97.1708 54.0354L97.4635 54.6371C97.2148 54.639 97.0254 54.7123 96.8915 54.857ZM97.0541 54.8531C96.8858 54.6737 96.7442 54.4924 96.6313 54.3073C96.5185 54.1241 96.4343 53.9351 96.375 53.7422C96.3176 53.5474 96.2889 53.3488 96.2889 53.1424C96.2889 52.6969 96.4132 52.3516 96.66 52.1067C96.9087 51.8617 97.2588 51.7402 97.7122 51.7402C98.1637 51.7402 98.5138 51.8579 98.7605 52.0932C99.0073 52.3285 99.1317 52.6602 99.1317 53.0903V53.2311H98.179V53.0903C98.179 52.8839 98.1388 52.7239 98.0565 52.6101C97.9762 52.4963 97.8614 52.4384 97.7122 52.4384C97.54 52.4384 97.408 52.5001 97.3124 52.6216C97.2167 52.7451 97.1708 52.9187 97.1708 53.1424C97.1708 53.2658 97.2014 53.4047 97.2607 53.557C97.32 53.7094 97.408 53.8733 97.5228 54.045C97.6376 54.2167 97.7753 54.3922 97.9341 54.5696L100.015 56.8782H98.9423L97.0541 54.8531Z" fill="#302C6D"/>
<path d="M106.579 53.2474H106.592L107.233 50.7285H109.567V51.8201C109.34 51.9629 109.361 52.1924 109.361 52.4238V55.1857C109.361 55.4152 109.34 55.6447 109.567 55.7894V56.881H107.34V55.7894C107.568 55.6466 107.547 55.4171 107.547 55.1857V53.5347H107.534L106.707 56.8791H106.108L105.24 53.5347H105.227V55.1857C105.227 55.4152 105.206 55.6447 105.433 55.7894V56.881H103.555V55.7894C103.782 55.6466 103.761 55.4171 103.761 55.1857V52.4238C103.761 52.1943 103.782 51.9648 103.555 51.8201V50.7285H105.954L106.579 53.2474Z" fill="#F08C21"/>
<path d="M115.106 54.6533V56.8771H110.535V55.7854C110.763 55.6427 110.742 55.4132 110.742 55.1818V52.4199C110.742 52.1904 110.763 51.9609 110.535 51.8162V50.7246H115.106V52.8056H113.355V52.6186C113.355 52.202 113.298 52.0303 112.785 52.0303H112.67V53.1277H113.874V54.3254H112.67V55.5675H112.785C113.355 55.5675 113.347 55.3515 113.355 54.85V54.6495H115.106V54.6533Z" fill="#F08C21"/>
<path d="M115.704 50.7285H120.963V53.5058H119.618V52.472C119.618 52.1924 119.553 52.0419 119.284 52.0342V55.1838C119.284 55.4133 119.263 55.6428 119.49 55.7874V56.8791H117.177V55.7874C117.405 55.6447 117.384 55.4152 117.384 55.1838V52.0342C117.114 52.0419 117.049 52.1924 117.049 52.472V53.5058H115.704V50.7285Z" fill="#F08C21"/>
<path d="M123.377 56.8771H121.277V55.7855C121.484 55.6428 121.505 55.3265 121.562 55.0892L122.365 50.7266H125.071L125.96 55.1818C125.996 55.3747 126.067 55.7199 126.28 55.7855V56.8771H123.881V55.7855C124.03 55.7276 124.101 55.6138 124.101 55.448C124.101 55.3843 124.087 55.3265 124.072 55.2686H123.154C123.14 55.3265 123.125 55.3901 123.125 55.448C123.125 55.6196 123.211 55.743 123.374 55.7855V56.8771H123.377ZM123.904 54.0728L123.59 52.2502H123.576L123.278 54.0728H123.904Z" fill="#F08C21"/>
<path d="M126.878 56.8771V55.7854C127.106 55.6427 127.085 55.4132 127.085 55.1818V52.4199C127.085 52.1904 127.106 51.9609 126.878 51.8162V50.7246H129.191V51.8162C128.964 51.959 128.985 52.1885 128.985 52.4199V55.5694H129.17C129.654 55.5694 129.646 55.2743 129.646 54.8886V53.8915H131.318V56.8771H126.878Z" fill="#F08C21"/>
<path d="M45.9129 56.6909H43.7416V55.5626C43.9558 55.4141 43.9769 55.0881 44.0362 54.8432L44.8684 50.332H47.6652L48.5854 54.9396C48.6217 55.1402 48.6963 55.497 48.9163 55.5626V56.6909H46.4351V55.5626C46.5901 55.5028 46.6628 55.3852 46.6628 55.2135C46.6628 55.146 46.6475 55.0881 46.6341 55.0284H45.6852C45.6699 55.0881 45.6565 55.1537 45.6565 55.2135C45.6565 55.3909 45.7445 55.5182 45.9148 55.5626V56.6909H45.9129ZM46.4581 53.7901L46.1348 51.9058H46.1195L45.8096 53.7901H46.4581Z" fill="#302C6D"/>
<path d="M56.8383 56.6909H54.667V55.5626C54.8813 55.4141 54.9023 55.0881 54.9616 54.8432L55.7938 50.332H58.5906L59.5108 54.9396C59.5471 55.1402 59.6218 55.497 59.8418 55.5626V56.6909H57.3605V55.5626C57.5155 55.5028 57.5882 55.3852 57.5882 55.2135C57.5882 55.146 57.5729 55.0881 57.5595 55.0284H56.6106C56.5953 55.0881 56.5819 55.1537 56.5819 55.2135C56.5819 55.3909 56.6699 55.5182 56.8402 55.5626V56.6909H56.8383ZM57.3816 53.7901L57.0583 51.9058H57.043L56.7331 53.7901H57.3816Z" fill="#302C6D"/>
<path d="M63.4402 52.5211C63.4402 52.2241 63.4631 52.0023 63.3808 51.8615C63.3082 51.7207 63.1455 51.6532 62.7706 51.6841V52.8933H64.0217V54.1335H62.7706V54.9416C62.7706 55.1788 62.7476 55.416 62.9848 55.5645V56.6928H60.5916V55.5645C60.8269 55.416 60.8059 55.1788 60.8059 54.9416V52.0852C60.8059 51.7516 60.7829 51.551 60.5553 51.4623V50.334H65.1408V52.523H63.4402V52.5211Z" fill="#302C6D"/>
<path d="M66.017 52.0833C66.017 51.846 66.04 51.6088 65.8027 51.4603V50.332H68.1959V51.4603C67.9606 51.6088 67.9817 51.846 67.9817 52.0833V54.9396C67.9817 55.1769 67.9587 55.4141 68.1959 55.5626V56.6909H65.8027V55.5626C66.038 55.4141 66.017 55.1769 66.017 54.9396V52.0833Z" fill="#302C6D"/>
<path d="M53.016 53.2081L53.9343 55.0442C54.0357 55.2506 54.1026 55.4049 54.3704 55.5437V56.6604H52.1418V55.9121C52.1418 55.4203 52.0691 55.3181 51.8567 54.8841L51.3689 53.9294H51.3536V54.9285C51.3536 55.1638 51.3325 55.3991 51.564 55.5457V56.6624H49.1957V55.5457C49.4291 55.3991 49.4061 55.1638 49.4061 54.9285V52.1011C49.4061 51.8658 49.4272 51.6305 49.1957 51.4839V50.3672H51.564V51.4839C51.3306 51.6305 51.3536 51.8658 51.3536 52.1011V52.9092L51.8127 52.1821C52.1341 51.6536 52.1398 51.6093 52.1398 51.3585V50.3672H54.2518V51.4839C54.005 51.5938 53.9457 51.6903 53.8444 51.8581L53.016 53.2081Z" fill="#302C6D"/>
</g>
<defs>
<clipPath id="clip0_576_310">
<rect width="133" height="57" fill="white"/>
</clipPath>
</defs>
</svg>
