<svg width="29" height="79" viewBox="0 0 29 79" fill="none" xmlns="http://www.w3.org/2000/svg">
<path d="M23.1881 76.1816H6.21922L6.22811 76.1602C4.29033 76.1602 2.72144 74.645 2.72144 72.7735L2.69922 72.7821V5.57688L2.72144 5.5683C2.72144 3.69684 4.29033 2.18164 6.22811 2.18164L6.21922 2.2031H23.1837L23.1926 2.18164C25.1303 2.18164 26.6992 3.69684 26.6992 5.5683L26.677 5.57688V10.9509H24.3526V5.57688V5.5683C24.3526 4.9502 23.8326 4.448 23.1926 4.448H23.1837H6.21922H6.22811C5.58811 4.448 5.06811 4.9502 5.06811 5.5683L5.04588 5.57688V72.7864L5.06811 72.7778C5.06811 73.3959 5.58811 73.8981 6.22811 73.8981L6.21922 73.9196H23.1837L23.1926 73.8981C23.8326 73.8981 24.3526 73.3959 24.3526 72.7778V72.7864V67.4338H26.677V72.7864L26.6992 72.7778C26.6992 74.6493 25.1303 76.1645 23.1926 76.1645L23.1881 76.1816Z" fill="white" stroke="white" stroke-width="4" stroke-miterlimit="10" stroke-linecap="round" stroke-linejoin="round"/>
</svg>
