<svg width="54" height="79" viewBox="0 0 54 79" fill="none" xmlns="http://www.w3.org/2000/svg">
<path d="M6.67306 69.8027L7.7231 70.8391H5.63672L6.67306 69.8027Z" fill="white"/>
<path d="M48.1371 3.93487L47.8358 3.63355V3.61529H47.8176L47.1008 2.89853L47.1054 2.87113C46.6169 2.38264 45.9594 2.11328 45.2701 2.11328L45.2609 2.13154H30.46L30.4691 2.11328C29.4282 2.11328 28.538 2.72504 28.1225 3.60616L28.1042 3.62442V3.64268C28.0997 3.65181 28.0951 3.66094 28.0905 3.67008L28.086 3.68377L28.0677 3.72029L28.0495 3.77964L28.0129 3.85726L27.9947 3.93487L27.9764 3.97139L27.9582 4.03074L27.9399 4.14487L27.9034 4.33662V4.35488L27.8851 4.48728V4.60141L27.8668 4.71555V73.461C27.8668 74.0682 27.3738 74.5613 26.7666 74.5613L26.7575 74.5796H11.9337L11.9428 74.5613L11.1484 74.2554L7.72439 70.8314H7.7107L6.67435 69.7996L5.64258 70.8314L9.12596 74.333L9.14423 74.3559L9.16249 74.3695L9.26749 74.4791L9.27662 74.4928L9.36793 74.5841H9.37249L9.39076 74.6024V74.6069L9.5825 74.7987L9.87925 75.1L9.88838 75.1091L9.89751 75.1137L10.103 75.3191L10.1806 75.3785L10.2399 75.4378L10.3358 75.5155L10.3951 75.5748L10.491 75.6342L10.5504 75.6707L10.6462 75.73L10.7056 75.7665L10.8197 75.8259L10.8791 75.8442L11.0115 75.9035L11.048 75.9218L11.1804 75.9811H11.2169L11.3721 76.0176H11.3904L11.5639 76.0542H11.5821L11.7556 76.0724L11.9474 76.0907H26.7575L26.9492 76.0724H26.9675L27.1227 76.0542H27.1592L27.3144 76.0176H27.351L27.4834 75.9811H27.5199L27.6751 75.9218L27.8029 75.8579C27.8121 75.8533 27.8212 75.8487 27.8303 75.8442L27.8851 75.8259L27.9992 75.7665L28.0586 75.73L28.1545 75.6707L28.2321 75.6342L28.3873 75.5155L28.474 75.4287C28.5014 75.4059 28.5243 75.3831 28.5517 75.3602L28.6019 75.3237L28.6795 75.2461L28.7936 75.1137L28.8621 75.0133C28.8941 74.9722 28.9214 74.9311 28.9534 74.8854L29.0265 74.7896L29.0812 74.6663C29.0904 74.648 29.0995 74.6298 29.1086 74.6115L29.1223 74.5978V74.5796C29.1315 74.5567 29.1452 74.5385 29.1543 74.5156L29.1634 74.5019C29.1771 74.4654 29.1908 74.4289 29.2045 74.3924L29.2182 74.3695L29.2273 74.3285C29.2365 74.3056 29.2456 74.2828 29.2502 74.26L29.2547 74.2554L29.273 74.1778L29.2821 74.1367C29.3369 73.9313 29.3689 73.7167 29.3689 73.493V4.72011L29.3871 4.71098L30.4782 3.61073H45.2883L45.4207 3.62899L45.5349 3.64725L45.7631 3.72029L45.8773 3.77964L46.069 3.93487L50.5477 8.4135L51.5794 7.3589L48.1371 3.93487Z" fill="white"/>
<path d="M6.67306 69.8027L8.07796 68.3793L6.66381 66.9836L5.25885 68.3885L6.67306 69.8027ZM7.7231 70.8391V72.8391H12.5967L9.128 69.4156L7.7231 70.8391ZM5.63672 70.8391L4.22251 69.4249L0.808283 72.8391H5.63672V70.8391ZM48.1371 3.93487L46.7229 5.34909L46.7267 5.35284L48.1371 3.93487ZM47.8358 3.63355H45.8358C45.8358 4.16399 46.0465 4.67269 46.4216 5.04777L47.8358 3.63355ZM47.8358 3.61529H49.8358C49.8358 2.51072 48.9404 1.61529 47.8358 1.61529V3.61529ZM47.8176 3.61529L46.4034 5.02951C46.7784 5.40458 47.2871 5.61529 47.8176 5.61529V3.61529ZM47.1008 2.89853L45.1281 2.5694C45.0217 3.20662 45.2298 3.85594 45.6866 4.31275L47.1008 2.89853ZM47.1054 2.87113L49.0781 3.20026C49.1844 2.56305 48.9764 1.91373 48.5196 1.45692L47.1054 2.87113ZM45.2701 2.11328V0.113281C44.5126 0.113281 43.8201 0.541221 43.4813 1.21871L45.2701 2.11328ZM45.2609 2.13154V4.13154C46.0184 4.13154 46.7109 3.7036 47.0497 3.02611L45.2609 2.13154ZM30.46 2.13154L28.6712 1.23697C28.3611 1.85695 28.3942 2.59326 28.7586 3.18294C29.123 3.77261 29.7668 4.13154 30.46 4.13154V2.13154ZM30.4691 2.11328L32.2579 3.00785C32.5679 2.38788 32.5349 1.65156 32.1705 1.06189C31.8061 0.472216 31.1623 0.113281 30.4691 0.113281V2.11328ZM28.1225 3.60616L29.5368 5.02026C29.6997 4.85734 29.8333 4.66749 29.9315 4.45911L28.1225 3.60616ZM28.1042 3.62442L26.6899 2.21032C26.3149 2.58539 26.1042 3.09405 26.1042 3.62442H28.1042ZM28.1042 3.64268L29.893 4.53723C30.0319 4.25949 30.1042 3.95322 30.1042 3.64268H28.1042ZM28.0905 3.67008L26.3016 2.77583C26.2593 2.86045 26.2231 2.94798 26.1931 3.03773L28.0905 3.67008ZM28.086 3.68377L29.8749 4.57818C29.9172 4.4935 29.9535 4.40593 29.9834 4.31611L28.086 3.68377ZM28.0677 3.72029L26.2789 2.82589C26.2296 2.9244 26.1886 3.02682 26.1562 3.13209L28.0677 3.72029ZM28.0495 3.77964L29.8591 4.63125C29.8992 4.54596 29.9333 4.45794 29.961 4.36785L28.0495 3.77964ZM28.0129 3.85726L26.2033 3.00565C26.144 3.13169 26.098 3.26359 26.0661 3.39919L28.0129 3.85726ZM27.9947 3.93487L29.7835 4.82935C29.8529 4.6905 29.906 4.54404 29.9415 4.39293L27.9947 3.93487ZM27.9764 3.97139L26.1876 3.07691C26.1383 3.1755 26.0972 3.27799 26.0648 3.38334L27.9764 3.97139ZM27.9582 4.03074L26.0466 3.44269C26.0192 3.53179 25.998 3.62269 25.9833 3.71474L27.9582 4.03074ZM27.9399 4.14487L29.9046 4.51911C29.9083 4.49975 29.9117 4.48034 29.9148 4.46088L27.9399 4.14487ZM27.9034 4.33662L25.9387 3.96239C25.9152 4.08575 25.9034 4.21104 25.9034 4.33662H27.9034ZM27.9034 4.35488L29.8846 4.62815C29.8971 4.5376 29.9034 4.44629 29.9034 4.35488L27.9034 4.35488ZM27.8851 4.48728L25.9039 4.21401C25.8914 4.30456 25.8851 4.39587 25.8851 4.48728L27.8851 4.48728ZM27.8851 4.60141L29.86 4.91742C29.8767 4.81291 29.8851 4.70725 29.8851 4.60141H27.8851ZM27.8668 4.71555L25.892 4.39954C25.8752 4.50405 25.8668 4.60971 25.8668 4.71555H27.8668ZM26.7666 74.5613V72.5613C26.009 72.5613 25.3165 72.9893 24.9777 73.6669L26.7666 74.5613ZM26.7575 74.5796V76.5796C27.515 76.5796 28.2075 76.1516 28.5463 75.474L26.7575 74.5796ZM11.9337 74.5796L10.1448 73.6852C9.83482 74.3052 9.86798 75.0415 10.2324 75.6311C10.5968 76.2207 11.2405 76.5796 11.9337 76.5796V74.5796ZM11.9428 74.5613L13.7317 75.4556C13.9838 74.9513 14.0114 74.3641 13.8076 73.8384C13.6038 73.3127 13.1876 72.8975 12.6615 72.6949L11.9428 74.5613ZM11.1484 74.2554L9.73421 75.6696C9.9319 75.8673 10.1688 76.0214 10.4297 76.1218L11.1484 74.2554ZM7.72439 70.8314L9.13861 69.4172C8.76353 69.0421 8.25482 68.8314 7.72439 68.8314V70.8314ZM7.7107 70.8314L6.29961 72.2487C6.67443 72.6219 7.1818 72.8314 7.7107 72.8314V70.8314ZM6.67435 69.7996L8.08544 68.3823C7.30389 67.6042 6.03998 67.6056 5.26015 68.3854L6.67435 69.7996ZM5.64258 70.8314L4.22837 69.4172C3.44876 70.1968 3.44711 71.4602 4.22467 72.2419L5.64258 70.8314ZM9.12596 74.333L10.6877 73.0836C10.6427 73.0274 10.5947 72.9736 10.5439 72.9225L9.12596 74.333ZM9.14423 74.3559L7.58249 75.6052C7.68784 75.7369 7.80941 75.8548 7.94432 75.9559L9.14423 74.3559ZM9.16249 74.3695L10.6065 72.9858C10.5311 72.9071 10.4495 72.8348 10.3624 72.7695L9.16249 74.3695ZM9.26749 74.4791L10.9315 73.3696C10.8664 73.2719 10.7928 73.1801 10.7115 73.0953L9.26749 74.4791ZM9.27662 74.4928L7.61258 75.6023C7.68562 75.7118 7.76929 75.8139 7.86239 75.907L9.27662 74.4928ZM9.36793 74.5841L7.9537 75.9983C8.32877 76.3734 8.83749 76.5841 9.36793 76.5841V74.5841ZM9.37249 74.5841L10.7865 73.1697C10.4115 72.7948 9.90284 72.5841 9.37249 72.5841V74.5841ZM9.39076 74.6024H11.3908C11.3908 74.0719 11.18 73.5631 10.8048 73.188L9.39076 74.6024ZM9.39076 74.6069H7.39076C7.39076 75.1374 7.60147 75.6461 7.97655 76.0212L9.39076 74.6069ZM9.5825 74.7987L11.0075 73.3953C11.0039 73.3917 11.0003 73.3881 10.9967 73.3845L9.5825 74.7987ZM9.87925 75.1L8.45427 76.5034C8.458 76.5072 8.46175 76.5109 8.46552 76.5147L9.87925 75.1ZM9.88838 75.1091L8.47465 76.5238C8.62632 76.6754 8.80139 76.8016 8.99313 76.8976L9.88838 75.1091ZM9.89751 75.1137L11.3117 73.6995C11.1599 73.5477 10.9847 73.4213 10.7928 73.3253L9.89751 75.1137ZM10.103 75.3191L8.68876 76.7334C8.75124 76.7959 8.81779 76.8541 8.88798 76.9078L10.103 75.3191ZM10.1806 75.3785L11.5947 73.9642C11.5322 73.9018 11.4657 73.8435 11.3955 73.7898L10.1806 75.3785ZM10.2399 75.4378L8.82579 76.8521C8.87521 76.9016 8.92719 76.9483 8.98151 76.9923L10.2399 75.4378ZM10.3358 75.5155L11.75 74.1012C11.7006 74.0518 11.6486 74.005 11.5942 73.961L10.3358 75.5155ZM10.3951 75.5748L8.98092 76.989C9.08999 77.0981 9.2113 77.1942 9.34245 77.2754L10.3951 75.5748ZM10.491 75.6342L9.43832 77.3347L9.44267 77.3374L10.491 75.6342ZM10.5504 75.6707L11.603 73.9701L11.5987 73.9675L10.5504 75.6707ZM10.6462 75.73L9.59364 77.4306L9.59805 77.4333L10.6462 75.73ZM10.7056 75.7665L9.6574 77.4699C9.69833 77.4951 9.74016 77.5188 9.7828 77.5409L10.7056 75.7665ZM10.8197 75.8259L9.89693 77.6003C10.0041 77.6561 10.1162 77.702 10.2317 77.7375L10.8197 75.8259ZM10.8791 75.8442L11.6972 74.0191C11.6223 73.9856 11.5455 73.9567 11.4671 73.9326L10.8791 75.8442ZM11.0115 75.9035L11.906 74.1147C11.8808 74.1021 11.8553 74.09 11.8296 74.0785L11.0115 75.9035ZM11.048 75.9218L10.1534 77.7106C10.1786 77.7232 10.2041 77.7353 10.2299 77.7468L11.048 75.9218ZM11.1804 75.9811L10.3623 77.8061C10.6196 77.9215 10.8984 77.9811 11.1804 77.9811V75.9811ZM11.2169 75.9811L11.675 74.0343C11.5248 73.999 11.3711 73.9811 11.2169 73.9811V75.9811ZM11.3721 76.0176L10.9141 77.9645C11.0642 77.9998 11.2179 78.0176 11.3721 78.0176V76.0176ZM11.3904 76.0176L11.8025 74.0606C11.667 74.032 11.5289 74.0176 11.3904 74.0176L11.3904 76.0176ZM11.5639 76.0542L11.1518 78.0113C11.2873 78.0398 11.4254 78.0542 11.5639 78.0542L11.5639 76.0542ZM11.5821 76.0542L11.7915 74.0652C11.7219 74.0578 11.6521 74.0542 11.5821 74.0542V76.0542ZM11.7556 76.0724L11.5463 78.0614C11.5529 78.0621 11.5594 78.0628 11.566 78.0634L11.7556 76.0724ZM11.9474 76.0907L11.7577 78.0817C11.8208 78.0877 11.884 78.0907 11.9474 78.0907L11.9474 76.0907ZM26.7575 76.0907V78.0907C26.8208 78.0907 26.8841 78.0877 26.9471 78.0817L26.7575 76.0907ZM26.9492 76.0724V74.0724C26.8859 74.0724 26.8226 74.0754 26.7595 74.0814L26.9492 76.0724ZM26.9675 76.0724V78.0724C27.0455 78.0724 27.1236 78.0679 27.2011 78.0587L26.9675 76.0724ZM27.1227 76.0542V74.0542C27.0446 74.0542 26.9666 74.0587 26.8891 74.0679L27.1227 76.0542ZM27.1592 76.0542V78.0542C27.3135 78.0542 27.4672 78.0363 27.6174 78.001L27.1592 76.0542ZM27.3144 76.0176V74.0176C27.1602 74.0176 27.0064 74.0355 26.8563 74.0708L27.3144 76.0176ZM27.351 76.0176V78.0176C27.5307 78.0176 27.7096 77.9934 27.8828 77.9456L27.351 76.0176ZM27.4834 75.9811V73.9811C27.3036 73.9811 27.1248 74.0053 26.9515 74.0531L27.4834 75.9811ZM27.5199 75.9811V77.9811C27.764 77.9811 28.0061 77.9364 28.2341 77.8492L27.5199 75.9811ZM27.6751 75.9218L28.3894 77.7899C28.4507 77.7664 28.5108 77.74 28.5696 77.7106L27.6751 75.9218ZM27.8029 75.8579L26.909 74.0688L26.9085 74.069L27.8029 75.8579ZM27.8303 75.8442L27.198 73.9467C27.1083 73.9766 27.0209 74.0128 26.9363 74.0551L27.8303 75.8442ZM27.8851 75.8259L28.5174 77.7233C28.6173 77.69 28.7145 77.6489 28.8079 77.6003L27.8851 75.8259ZM27.9992 75.7665L28.922 77.5409C28.9647 77.5188 29.0065 77.4951 29.0474 77.4699L27.9992 75.7665ZM28.0586 75.73L29.1068 77.4334L29.1112 77.4306L28.0586 75.73ZM28.1545 75.6707L27.3028 73.8611C27.2338 73.8936 27.1667 73.93 27.1019 73.9701L28.1545 75.6707ZM28.2321 75.6342L29.0838 77.4437C29.2123 77.3832 29.3341 77.3092 29.447 77.2229L28.2321 75.6342ZM28.3873 75.5155L29.6022 77.1042C29.6724 77.0505 29.739 76.9922 29.8015 76.9297L28.3873 75.5155ZM28.474 75.4287L27.1936 73.8923C27.1472 73.931 27.1026 73.9717 27.0599 74.0145L28.474 75.4287ZM28.5517 75.3602L27.3754 73.7427C27.3398 73.7686 27.3051 73.7956 27.2713 73.8238L28.5517 75.3602ZM28.6019 75.3237L29.7782 76.9412C29.8627 76.8798 29.9422 76.8118 30.0161 76.738L28.6019 75.3237ZM28.6795 75.2461L30.0937 76.6603C30.1285 76.6255 30.1621 76.5893 30.1943 76.552L28.6795 75.2461ZM28.7936 75.1137L30.3084 76.4196C30.3577 76.3625 30.4036 76.3027 30.4461 76.2404L28.7936 75.1137ZM28.8621 75.0133L27.2833 73.7855C27.2577 73.8184 27.2331 73.8521 27.2096 73.8866L28.8621 75.0133ZM28.9534 74.8854L27.3625 73.6734C27.3462 73.6948 27.3304 73.7165 27.3149 73.7385L28.9534 74.8854ZM29.0265 74.7896L30.6173 76.0016C30.7115 75.878 30.791 75.7438 30.8541 75.6018L29.0265 74.7896ZM29.0812 74.6663L27.2925 73.7717C27.2789 73.7988 27.2659 73.8263 27.2536 73.854L29.0812 74.6663ZM29.1086 74.6115L27.6945 73.1972C27.5424 73.3493 27.4159 73.5249 27.3197 73.7172L29.1086 74.6115ZM29.1223 74.5978L30.5364 76.0121C30.9116 75.637 31.1223 75.1283 31.1223 74.5978H29.1223ZM29.1223 74.5796L27.2654 73.8368C27.1709 74.073 27.1223 74.3251 27.1223 74.5796H29.1223ZM29.1543 74.5156L27.49 73.4065C27.4133 73.5216 27.3487 73.6444 27.2973 73.7729L29.1543 74.5156ZM29.1634 74.5019L30.8277 75.6111C30.9124 75.4839 30.9824 75.3474 31.0361 75.2042L29.1634 74.5019ZM29.2045 74.3924L27.4895 73.3634C27.4272 73.4673 27.3744 73.5767 27.3318 73.6902L29.2045 74.3924ZM29.2182 74.3695L30.9332 75.3986C31.0438 75.2143 31.1239 75.0133 31.1705 74.8035L29.2182 74.3695ZM29.2273 74.3285L27.3704 73.5857C27.3303 73.6859 27.2984 73.7892 27.275 73.8945L29.2273 74.3285ZM29.2502 74.26L27.8365 72.8452C27.557 73.1244 27.3665 73.4802 27.289 73.8677L29.2502 74.26ZM29.2547 74.2554L30.6683 75.6702C30.9316 75.4071 31.1163 75.0758 31.2016 74.7135L29.2547 74.2554ZM29.273 74.1778L31.2198 74.6359C31.2217 74.6278 31.2236 74.6197 31.2254 74.6116L29.273 74.1778ZM29.2821 74.1367L27.3496 73.6214C27.3424 73.6484 27.3358 73.6756 27.3297 73.7029L29.2821 74.1367ZM29.3689 4.72011L28.4745 2.93124C27.7969 3.27002 27.3689 3.96255 27.3689 4.72011H29.3689ZM29.3871 4.71098L30.2815 6.49985C30.4763 6.40247 30.6539 6.27392 30.8072 6.11929L29.3871 4.71098ZM30.4782 3.61073V1.61073C29.9449 1.61073 29.4337 1.82373 29.0582 2.20242L30.4782 3.61073ZM45.2883 3.61073L45.5616 1.62948C45.4711 1.61699 45.3797 1.61073 45.2883 1.61073V3.61073ZM45.4207 3.62899L45.7367 1.65411C45.7225 1.65183 45.7083 1.64971 45.694 1.64774L45.4207 3.62899ZM45.5349 3.64725L46.1444 1.7424C46.0485 1.71169 45.9503 1.68828 45.8508 1.67237L45.5349 3.64725ZM45.7631 3.72029L46.6859 1.94587C46.5854 1.8936 46.4806 1.84997 46.3727 1.81544L45.7631 3.72029ZM45.8773 3.77964L47.1357 2.22516C47.0314 2.14078 46.919 2.06709 46.8 2.00522L45.8773 3.77964ZM46.069 3.93487L47.4832 2.52065C47.4338 2.4712 47.3818 2.42438 47.3274 2.38038L46.069 3.93487ZM50.5477 8.4135L49.1334 9.82772C49.5112 10.2055 50.0244 10.4164 50.5586 10.4135C51.0928 10.4106 51.6037 10.194 51.9773 9.81216L50.5477 8.4135ZM51.5794 7.3589L53.009 8.75756C53.777 7.97263 53.7684 6.71534 52.9899 5.94093L51.5794 7.3589ZM6.67306 69.8027L5.26816 71.2262L6.3182 72.2625L7.7231 70.8391L9.128 69.4156L8.07796 68.3793L6.67306 69.8027ZM7.7231 70.8391V68.8391H5.63672V70.8391V72.8391H7.7231V70.8391ZM5.63672 70.8391L7.05093 72.2533L8.08727 71.2169L6.67306 69.8027L5.25885 68.3885L4.22251 69.4249L5.63672 70.8391ZM47.8358 3.63355H49.8358V3.61529H47.8358H45.8358V3.63355H47.8358ZM47.8358 3.61529V1.61529H47.8176V3.61529V5.61529H47.8358V3.61529ZM47.1008 2.89853L49.0735 3.22765L49.0781 3.20026L47.1054 2.87113L45.1326 2.54201L45.1281 2.5694L47.1008 2.89853ZM47.1054 2.87113L48.5196 1.45692C47.6523 0.589653 46.4846 0.113281 45.2701 0.113281V2.11328V4.11328C45.4343 4.11328 45.5814 4.17562 45.6911 4.28535L47.1054 2.87113ZM45.2701 2.11328L43.4813 1.21871L43.4722 1.23697L45.2609 2.13154L47.0497 3.02611L47.0589 3.00785L45.2701 2.11328ZM45.2609 2.13154V0.131542H30.46V2.13154V4.13154H45.2609V2.13154ZM30.46 2.13154L32.2488 3.02611L32.2579 3.00785L30.4691 2.11328L28.6803 1.21871L28.6712 1.23697L30.46 2.13154ZM30.4691 2.11328V0.113281C28.6183 0.113281 27.0436 1.20475 26.3135 2.75321L28.1225 3.60616L29.9315 4.45911C30.0323 4.24533 30.2381 4.11328 30.4691 4.11328V2.11328ZM28.1225 3.60616L26.7082 2.19206L26.6899 2.21032L28.1042 3.62442L29.5186 5.03852L29.5368 5.02026L28.1225 3.60616ZM28.1042 3.62442H26.1042V3.64268H28.1042H30.1042V3.62442H28.1042ZM28.1042 3.64268L26.3155 2.74813C26.3111 2.7569 26.3063 2.76651 26.3016 2.77583L28.0905 3.67008L29.8795 4.56433C29.884 4.55538 29.8883 4.54672 29.893 4.53723L28.1042 3.64268ZM28.0905 3.67008L26.1931 3.03773L26.1886 3.05143L28.086 3.68377L29.9834 4.31611L29.988 4.30242L28.0905 3.67008ZM28.086 3.68377L26.2971 2.78937L26.2789 2.82589L28.0677 3.72029L29.8566 4.6147L29.8749 4.57818L28.086 3.68377ZM28.0677 3.72029L26.1562 3.13209L26.1379 3.19144L28.0495 3.77964L29.961 4.36785L29.9793 4.3085L28.0677 3.72029ZM28.0495 3.77964L26.2398 2.92804L26.2033 3.00565L28.0129 3.85726L29.8226 4.70886L29.8591 4.63125L28.0495 3.77964ZM28.0129 3.85726L26.0661 3.39919L26.0478 3.4768L27.9947 3.93487L29.9415 4.39293L29.9598 4.31532L28.0129 3.85726ZM27.9947 3.93487L26.2058 3.04039L26.1876 3.07691L27.9764 3.97139L29.7652 4.86587L29.7835 4.82935L27.9947 3.93487ZM27.9764 3.97139L26.0648 3.38334L26.0466 3.44269L27.9582 4.03074L29.8698 4.61879L29.888 4.55944L27.9764 3.97139ZM27.9582 4.03074L25.9833 3.71474L25.965 3.82887L27.9399 4.14487L29.9148 4.46088L29.933 4.34674L27.9582 4.03074ZM27.9034 4.33662H25.9034V4.35488H27.9034H29.9034V4.33662H27.9034ZM27.9034 4.35488L25.9221 4.08162L25.9039 4.21401L27.8851 4.48728L29.8664 4.76055L29.8846 4.62815L27.9034 4.35488ZM27.8851 4.60141L25.9102 4.28541L25.892 4.39954L27.8668 4.71555L29.8417 5.03155L29.86 4.91742L27.8851 4.60141ZM27.8668 4.71555H25.8668V73.461H27.8668H29.8668V4.71555H27.8668ZM27.8668 73.461H25.8668C25.8668 72.9637 26.2692 72.5613 26.7666 72.5613V74.5613V76.5613C28.4784 76.5613 29.8668 75.1728 29.8668 73.461H27.8668ZM26.7666 74.5613L24.9777 73.6669L24.9686 73.6851L26.7575 74.5796L28.5463 75.474L28.5554 75.4557L26.7666 74.5613ZM26.7575 74.5796V72.5796H11.9337V74.5796V76.5796H26.7575V74.5796ZM11.9337 74.5796L13.7226 75.4739L13.7317 75.4556L11.9428 74.5613L10.1539 73.667L10.1448 73.6852L11.9337 74.5796ZM11.9428 74.5613L12.6615 72.6949L11.8671 72.389L11.1484 74.2554L10.4297 76.1218L11.2241 76.4277L11.9428 74.5613ZM11.1484 74.2554L12.5626 72.8412L9.13861 69.4172L7.72439 70.8314L6.31018 72.2456L9.73421 75.6696L11.1484 74.2554ZM7.72439 70.8314V68.8314H7.7107V70.8314V72.8314H7.72439V70.8314ZM7.7107 70.8314L9.12178 69.414L8.08544 68.3823L6.67435 69.7996L5.26327 71.2169L6.29961 72.2487L7.7107 70.8314ZM6.67435 69.7996L5.26015 68.3854L4.22837 69.4172L5.64258 70.8314L7.05679 72.2456L8.08856 71.2138L6.67435 69.7996ZM5.64258 70.8314L4.22467 72.2419L7.70806 75.7435L9.12596 74.333L10.5439 72.9225L7.06048 69.4209L5.64258 70.8314ZM9.12596 74.333L7.56423 75.5824L7.58249 75.6052L9.14423 74.3559L10.706 73.1065L10.6877 73.0836L9.12596 74.333ZM9.14423 74.3559L7.94432 75.9559L7.96258 75.9696L9.16249 74.3695L10.3624 72.7695L10.3441 72.7558L9.14423 74.3559ZM9.16249 74.3695L7.71848 75.7533L7.82349 75.8629L9.26749 74.4791L10.7115 73.0953L10.6065 72.9858L9.16249 74.3695ZM9.26749 74.4791L7.60345 75.5886L7.61258 75.6023L9.27662 74.4928L10.9407 73.3833L10.9315 73.3696L9.26749 74.4791ZM9.36793 74.5841V76.5841H9.37249V74.5841V72.5841H9.36793V74.5841ZM9.37249 74.5841L7.95847 75.9985L7.97673 76.0168L9.39076 74.6024L10.8048 73.188L10.7865 73.1697L9.37249 74.5841ZM9.39076 74.6024H7.39076V74.6069H9.39076H11.3908V74.6024H9.39076ZM9.5825 74.7987L8.15752 76.2021L8.45427 76.5034L9.87925 75.1L11.3042 73.6967L11.0075 73.3953L9.5825 74.7987ZM9.87925 75.1L8.46552 76.5147L8.47465 76.5238L9.88838 75.1091L11.3021 73.6944L11.293 73.6853L9.87925 75.1ZM9.88838 75.1091L8.99313 76.8976L9.00226 76.9022L9.89751 75.1137L10.7928 73.3253L10.7836 73.3207L9.88838 75.1091ZM9.89751 75.1137L8.48332 76.5279L8.68876 76.7334L10.103 75.3191L11.5171 73.9049L11.3117 73.6995L9.89751 75.1137ZM10.103 75.3191L8.88798 76.9078L8.96559 76.9672L10.1806 75.3785L11.3955 73.7898L11.3179 73.7305L10.103 75.3191ZM10.1806 75.3785L8.76644 76.7928L8.82579 76.8521L10.2399 75.4378L11.654 74.0235L11.5947 73.9642L10.1806 75.3785ZM10.2399 75.4378L8.98151 76.9923L9.07738 77.0699L10.3358 75.5155L11.5942 73.961L11.4983 73.8834L10.2399 75.4378ZM10.3358 75.5155L8.92157 76.9297L8.98092 76.989L10.3951 75.5748L11.8094 74.1606L11.75 74.1012L10.3358 75.5155ZM10.3951 75.5748L9.34245 77.2754L9.43833 77.3347L10.491 75.6342L11.5437 73.9336L11.4478 73.8743L10.3951 75.5748ZM10.491 75.6342L9.44267 77.3374L9.50201 77.3739L10.5504 75.6707L11.5987 73.9675L11.5394 73.9309L10.491 75.6342ZM10.5504 75.6707L9.49777 77.3713L9.59365 77.4306L10.6462 75.73L11.6988 74.0294L11.603 73.9701L10.5504 75.6707ZM10.6462 75.73L9.59805 77.4333L9.6574 77.4699L10.7056 75.7665L11.7538 74.0632L11.6944 74.0267L10.6462 75.73ZM10.7056 75.7665L9.7828 77.5409L9.89693 77.6003L10.8197 75.8259L11.7425 74.0515L11.6284 73.9922L10.7056 75.7665ZM10.8197 75.8259L10.2317 77.7375L10.291 77.7558L10.8791 75.8442L11.4671 73.9326L11.4078 73.9143L10.8197 75.8259ZM10.8791 75.8442L10.061 77.6692L10.1934 77.7285L11.0115 75.9035L11.8296 74.0785L11.6972 74.0191L10.8791 75.8442ZM11.0115 75.9035L10.1169 77.6923L10.1534 77.7106L11.048 75.9218L11.9426 74.133L11.906 74.1147L11.0115 75.9035ZM11.048 75.9218L10.2299 77.7468L10.3623 77.8061L11.1804 75.9811L11.9985 74.1561L11.8661 74.0968L11.048 75.9218ZM11.1804 75.9811V77.9811H11.2169V75.9811V73.9811H11.1804V75.9811ZM11.2169 75.9811L10.7588 77.928L10.9141 77.9645L11.3721 76.0176L11.8302 74.0708L11.675 74.0343L11.2169 75.9811ZM11.3721 76.0176V78.0176H11.3904V76.0176V74.0176H11.3721V76.0176ZM11.3904 76.0176L10.9783 77.9747L11.1518 78.0113L11.5639 76.0542L11.976 74.0971L11.8025 74.0606L11.3904 76.0176ZM11.5639 76.0542V78.0542H11.5821V76.0542V74.0542H11.5639V76.0542ZM11.5821 76.0542L11.3728 78.0432L11.5463 78.0614L11.7556 76.0724L11.9649 74.0834L11.7915 74.0652L11.5821 76.0542ZM11.7556 76.0724L11.566 78.0634L11.7577 78.0817L11.9474 76.0907L12.137 74.0997L11.9453 74.0814L11.7556 76.0724ZM11.9474 76.0907V78.0907H26.7575V76.0907V74.0907H11.9474V76.0907ZM26.7575 76.0907L26.9471 78.0817L27.1389 78.0634L26.9492 76.0724L26.7595 74.0814L26.5678 74.0997L26.7575 76.0907ZM26.9492 76.0724V78.0724H26.9675V76.0724V74.0724H26.9492V76.0724ZM26.9675 76.0724L27.2011 78.0587L27.3563 78.0405L27.1227 76.0542L26.8891 74.0679L26.7338 74.0861L26.9675 76.0724ZM27.1227 76.0542V78.0542H27.1592V76.0542V74.0542H27.1227V76.0542ZM27.1592 76.0542L27.6174 78.001L27.7726 77.9645L27.3144 76.0176L26.8563 74.0708L26.7011 74.1074L27.1592 76.0542ZM27.3144 76.0176V78.0176H27.351V76.0176V74.0176H27.3144V76.0176ZM27.351 76.0176L27.8828 77.9456L28.0152 77.9091L27.4834 75.9811L26.9515 74.0531L26.8191 74.0897L27.351 76.0176ZM27.4834 75.9811V77.9811H27.5199V75.9811V73.9811H27.4834V75.9811ZM27.5199 75.9811L28.2341 77.8492L28.3894 77.7899L27.6751 75.9218L26.9608 74.0537L26.8056 74.113L27.5199 75.9811ZM27.8029 75.8579L28.6969 77.6469C28.7018 77.6445 28.7067 77.642 28.7112 77.6398C28.7158 77.6375 28.7201 77.6353 28.7243 77.6332L27.8303 75.8442L26.9363 74.0551C26.9314 74.0575 26.9266 74.06 26.922 74.0622C26.9174 74.0645 26.9132 74.0667 26.909 74.0688L27.8029 75.8579ZM27.8303 75.8442L28.4626 77.7416L28.5174 77.7233L27.8851 75.8259L27.2528 73.9285L27.198 73.9467L27.8303 75.8442ZM27.8851 75.8259L28.8079 77.6003L28.922 77.5409L27.9992 75.7665L27.0765 73.9922L26.9623 74.0515L27.8851 75.8259ZM27.9992 75.7665L29.0474 77.4699L29.1068 77.4334L28.0586 75.73L27.0104 74.0267L26.9511 74.0632L27.9992 75.7665ZM28.0586 75.73L29.1112 77.4306L29.2071 77.3713L28.1545 75.6707L27.1019 73.9701L27.006 74.0294L28.0586 75.73ZM28.1545 75.6707L29.0062 77.4803L29.0838 77.4437L28.2321 75.6342L27.3804 73.8246L27.3028 73.8611L28.1545 75.6707ZM28.474 75.4287L29.7544 76.9651C29.7822 76.942 29.8055 76.9217 29.8227 76.9063C29.8389 76.892 29.8534 76.8787 29.8583 76.8742C29.8659 76.8673 29.864 76.8691 29.8607 76.8721C29.8562 76.876 29.8461 76.885 29.8321 76.8966L28.5517 75.3602L27.2713 73.8238C27.2435 73.8469 27.2202 73.8673 27.203 73.8826C27.1868 73.897 27.1723 73.9102 27.1674 73.9147C27.1598 73.9216 27.1617 73.9198 27.165 73.9169C27.1694 73.913 27.1796 73.904 27.1936 73.8923L28.474 75.4287ZM28.5517 75.3602L29.728 76.9777L29.7782 76.9412L28.6019 75.3237L27.4256 73.7062L27.3754 73.7427L28.5517 75.3602ZM28.6019 75.3237L30.0161 76.738L30.0937 76.6603L28.6795 75.2461L27.2653 73.8319L27.1877 73.9095L28.6019 75.3237ZM28.6795 75.2461L30.1943 76.552L30.3084 76.4196L28.7936 75.1137L27.2788 73.8078L27.1647 73.9402L28.6795 75.2461ZM28.7936 75.1137L30.4461 76.2404L30.5146 76.1399L28.8621 75.0133L27.2096 73.8866L27.1412 73.987L28.7936 75.1137ZM28.8621 75.0133L30.4409 76.2411C30.4847 76.1847 30.5202 76.1351 30.5441 76.101C30.5559 76.0842 30.5669 76.0684 30.5741 76.0579C30.5825 76.0458 30.5872 76.039 30.5919 76.0324L28.9534 74.8854L27.3149 73.7385C27.3036 73.7547 27.2929 73.7701 27.2862 73.7799C27.2783 73.7912 27.2745 73.7968 27.2714 73.8012C27.2657 73.8093 27.2715 73.8007 27.2833 73.7855L28.8621 75.0133ZM28.9534 74.8854L30.5443 76.0975L30.6173 76.0016L29.0265 74.7896L27.4356 73.5775L27.3625 73.6734L28.9534 74.8854ZM29.0265 74.7896L30.8541 75.6018L30.9089 75.4786L29.0812 74.6663L27.2536 73.854L27.1988 73.9773L29.0265 74.7896ZM29.0812 74.6663L30.87 75.5609C30.8792 75.5425 30.8884 75.5242 30.8976 75.5058L29.1086 74.6115L27.3197 73.7172C27.3106 73.7354 27.3015 73.7536 27.2925 73.7717L29.0812 74.6663ZM29.1086 74.6115L30.5227 76.0258L30.5364 76.0121L29.1223 74.5978L27.7082 73.1835L27.6945 73.1972L29.1086 74.6115ZM29.1223 74.5978H31.1223V74.5796H29.1223H27.1223V74.5978H29.1223ZM29.1223 74.5796L30.9793 75.3223C30.9519 75.3908 30.9257 75.4442 30.909 75.4767C30.9007 75.4929 30.894 75.5054 30.8903 75.5121C30.8871 75.518 30.8846 75.5226 30.8866 75.5188C30.8874 75.5174 30.8928 75.5077 30.8988 75.4967C30.9053 75.4848 30.9148 75.4671 30.9259 75.4456C30.948 75.4026 30.9793 75.3383 31.0112 75.2584L29.1543 74.5156L27.2973 73.7729C27.3247 73.7044 27.3509 73.651 27.3676 73.6185C27.3759 73.6023 27.3826 73.5898 27.3863 73.5831C27.3895 73.5772 27.392 73.5726 27.39 73.5764C27.3892 73.5778 27.3838 73.5875 27.3778 73.5985C27.3713 73.6104 27.3618 73.6281 27.3507 73.6496C27.3286 73.6926 27.2973 73.7569 27.2654 73.8368L29.1223 74.5796ZM29.1543 74.5156L30.8185 75.6248L30.8277 75.6111L29.1634 74.5019L27.4992 73.3928L27.49 73.4065L29.1543 74.5156ZM29.1634 74.5019L31.0361 75.2042C31.0498 75.1677 31.0635 75.1311 31.0772 75.0946L29.2045 74.3924L27.3318 73.6902C27.3181 73.7267 27.3045 73.7632 27.2908 73.7996L29.1634 74.5019ZM29.2045 74.3924L30.9195 75.4214L30.9332 75.3986L29.2182 74.3695L27.5032 73.3405L27.4895 73.3634L29.2045 74.3924ZM29.2182 74.3695L31.1705 74.8035L31.1797 74.7624L29.2273 74.3285L27.275 73.8945L27.2659 73.9356L29.2182 74.3695ZM29.2273 74.3285L31.0843 75.0712C31.086 75.0669 31.1073 75.0146 31.1282 74.9547C31.1504 74.8913 31.1847 74.7854 31.2113 74.6523L29.2502 74.26L27.289 73.8677C27.3111 73.7574 27.3385 73.6743 27.3527 73.6337C27.3656 73.5966 27.3778 73.5672 27.3704 73.5857L29.2273 74.3285ZM29.2502 74.26L30.6638 75.6748L30.6683 75.6702L29.2547 74.2554L27.8411 72.8406L27.8365 72.8452L29.2502 74.26ZM29.2547 74.2554L31.2016 74.7135L31.2198 74.6359L29.273 74.1778L27.3262 73.7197L27.3079 73.7973L29.2547 74.2554ZM29.273 74.1778L31.2254 74.6116L31.2345 74.5705L29.2821 74.1367L27.3297 73.7029L27.3206 73.744L29.273 74.1778ZM29.2821 74.1367L31.2146 74.652C31.3091 74.2975 31.3689 73.9093 31.3689 73.493H29.3689H27.3689C27.3689 73.5241 27.3647 73.565 27.3496 73.6214L29.2821 74.1367ZM29.3689 4.72011L30.2632 6.50899L30.2815 6.49985L29.3871 4.71098L28.4927 2.92211L28.4745 2.93124L29.3689 4.72011ZM29.3871 4.71098L30.8072 6.11929L31.8983 5.01903L30.4782 3.61073L29.0582 2.20242L27.967 3.30267L29.3871 4.71098ZM30.4782 3.61073V5.61073H45.2883V3.61073V1.61073H30.4782V3.61073ZM45.2883 3.61073L45.0151 5.59197L45.1475 5.61023L45.4207 3.62899L45.694 1.64774L45.5616 1.62948L45.2883 3.61073ZM45.4207 3.62899L45.1048 5.60387L45.2189 5.62213L45.5349 3.64725L45.8508 1.67237L45.7367 1.65411L45.4207 3.62899ZM45.7631 3.72029L44.8404 5.49472L44.9545 5.55407L45.8773 3.77964L46.8 2.00522L46.6859 1.94587L45.7631 3.72029ZM50.5477 8.4135L51.9773 9.81216L53.009 8.75756L51.5794 7.3589L50.1498 5.96025L49.1181 7.01485L50.5477 8.4135ZM51.5794 7.3589L52.9899 5.94093L49.5476 2.5169L48.1371 3.93487L46.7267 5.35284L50.169 8.77687L51.5794 7.3589ZM48.1371 3.93487L49.5513 2.52065L49.25 2.21934L47.8358 3.63355L46.4216 5.04777L46.7229 5.34908L48.1371 3.93487ZM47.8176 3.61529L49.2318 2.20107L48.515 1.48431L47.1008 2.89853L45.6866 4.31275L46.4034 5.02951L47.8176 3.61529ZM27.9399 4.14487L25.9752 3.77064L25.9387 3.96239L27.9034 4.33662L29.868 4.71085L29.9046 4.51911L27.9399 4.14487ZM27.8851 4.48728H25.8851V4.60141H27.8851H29.8851V4.48728H27.8851ZM9.27662 74.4928L7.86239 75.907L7.9537 75.9983L9.36793 74.5841L10.7822 73.1699L10.6909 73.0786L9.27662 74.4928ZM9.39076 74.6069L7.97655 76.0212L8.1683 76.2129L9.5825 74.7987L10.9967 73.3845L10.805 73.1927L9.39076 74.6069ZM27.6751 75.9218L28.5696 77.7106L28.6974 77.6467L27.8029 75.8579L26.9085 74.069L26.7806 74.1329L27.6751 75.9218ZM28.2321 75.6342L29.447 77.2229L29.6022 77.1042L28.3873 75.5155L27.1724 73.9267L27.0172 74.0454L28.2321 75.6342ZM28.3873 75.5155L29.8015 76.9297L29.8882 76.843L28.474 75.4287L27.0599 74.0145L26.9731 74.1012L28.3873 75.5155ZM29.3689 73.493H31.3689V4.72011H29.3689H27.3689V73.493H29.3689ZM45.5349 3.64725L44.9253 5.5521L45.1536 5.62514L45.7631 3.72029L46.3727 1.81544L46.1444 1.7424L45.5349 3.64725ZM45.8773 3.77964L44.6189 5.33413L44.8106 5.48936L46.069 3.93487L47.3274 2.38038L47.1357 2.22516L45.8773 3.77964ZM46.069 3.93487L44.6548 5.34908L49.1334 9.82772L50.5477 8.4135L51.9619 6.99929L47.4832 2.52065L46.069 3.93487Z" fill="white"/>
</svg>
