<svg width="74" height="74" viewBox="0 0 74 74" fill="none" xmlns="http://www.w3.org/2000/svg">
<mask id="mask0_917_660" style="mask-type:luminance" maskUnits="userSpaceOnUse" x="0" y="0" width="74" height="75">
<path d="M37.0543 71.0042C55.7876 71.0042 70.9738 55.972 70.9738 37.4289C70.9738 18.8857 55.7876 3.85352 37.0543 3.85352C18.3211 3.85352 3.13477 18.8857 3.13477 37.4289C3.13477 55.972 18.3211 71.0042 37.0543 71.0042Z" stroke="white" stroke-width="6"/>
</mask>
<g mask="url(#mask0_917_660)">
<path d="M-43.6328 18.873C-21.986 41.0965 -0.636578 62.2293 22.0027 83.6564" stroke="white" stroke-width="6" stroke-miterlimit="10"/>
<path d="M-39.8281 19.0977L24.6487 82.7385" stroke="white" stroke-width="6" stroke-miterlimit="10"/>
<path d="M-37.1777 18.1836L27.2991 81.8244" stroke="white" stroke-width="6" stroke-miterlimit="10"/>
<path d="M-34.5293 17.2637L29.9476 80.9045" stroke="white" stroke-width="6" stroke-miterlimit="10"/>
<path d="M-31.8789 16.3438L32.6023 79.9802" stroke="white" stroke-width="6" stroke-miterlimit="10"/>
<path d="M-29.2285 15.4316L35.2527 79.0681" stroke="white" stroke-width="6" stroke-miterlimit="10"/>
<path d="M-26.5781 14.5117L37.9031 78.1525" stroke="white" stroke-width="6" stroke-miterlimit="10"/>
<path d="M-23.9297 13.5918L40.5515 77.2326" stroke="white" stroke-width="6" stroke-miterlimit="10"/>
<path d="M-21.2734 12.6777L43.2034 76.3186" stroke="white" stroke-width="6" stroke-miterlimit="10"/>
<path d="M-18.623 11.752L45.8538 75.3928" stroke="white" stroke-width="6" stroke-miterlimit="10"/>
<path d="M-15.9746 10.832L48.5023 74.4729" stroke="white" stroke-width="6" stroke-miterlimit="10"/>
<path d="M-13.3242 9.91992L51.157 73.5607" stroke="white" stroke-width="6" stroke-miterlimit="10"/>
<path d="M-10.6738 9L53.8074 72.6365" stroke="white" stroke-width="6" stroke-miterlimit="10"/>
<path d="M-8.02344 8.08008L56.4578 71.7209" stroke="white" stroke-width="6" stroke-miterlimit="10"/>
<path d="M-5.375 7.16016L59.1062 70.801" stroke="white" stroke-width="6" stroke-miterlimit="10"/>
<path d="M-2.72461 6.24609L61.7566 69.8869" stroke="white" stroke-width="6" stroke-miterlimit="10"/>
<path d="M-0.0722656 5.32617L64.4046 68.967" stroke="white" stroke-width="6" stroke-miterlimit="10"/>
<path d="M2.57812 4.41406L67.055 68.0549" stroke="white" stroke-width="6" stroke-miterlimit="10"/>
<path d="M5.22461 3.49414L69.7058 67.135" stroke="white" stroke-width="6" stroke-miterlimit="10"/>
<path d="M7.875 2.58008L72.3562 66.2166" stroke="white" stroke-width="6" stroke-miterlimit="10"/>
<path d="M10.5234 1.66016L75.0047 65.2967" stroke="white" stroke-width="6" stroke-miterlimit="10"/>
<path d="M13.1738 0.734375L77.6551 64.3752" stroke="white" stroke-width="6" stroke-miterlimit="10"/>
<path d="M15.8242 -0.185547L80.3055 63.4553" stroke="white" stroke-width="6" stroke-miterlimit="10"/>
<path d="M18.4766 -1.09961L82.9534 62.5412" stroke="white" stroke-width="6" stroke-miterlimit="10"/>
<path d="M21.127 -2.01758L85.6038 61.6232" stroke="white" stroke-width="6" stroke-miterlimit="10"/>
<path d="M23.7773 -2.93164L88.2586 60.7092" stroke="white" stroke-width="6" stroke-miterlimit="10"/>
<path d="M26.4258 -3.85156L90.907 59.7893" stroke="white" stroke-width="6" stroke-miterlimit="10"/>
<path d="M29.0762 -4.77148L93.5574 58.865" stroke="white" stroke-width="6" stroke-miterlimit="10"/>
<path d="M31.7266 -5.68555L96.2078 57.9509" stroke="white" stroke-width="6" stroke-miterlimit="10"/>
<path d="M34.375 -6.60547L98.8562 57.0354" stroke="white" stroke-width="6" stroke-miterlimit="10"/>
<path d="M37.0293 -7.52344L101.506 56.1174" stroke="white" stroke-width="6" stroke-miterlimit="10"/>
<path d="M39.6777 -8.4375L104.155 55.2033" stroke="white" stroke-width="6" stroke-miterlimit="10"/>
<path d="M42.3281 -9.35742L106.805 54.2834" stroke="white" stroke-width="6" stroke-miterlimit="10"/>
<path d="M44.9785 -10.2832L109.46 53.3576" stroke="white" stroke-width="6" stroke-miterlimit="10"/>
<path d="M47.627 -11.1973L112.108 52.4392" stroke="white" stroke-width="6" stroke-miterlimit="10"/>
<path d="M50.2754 -12.7129L114.757 50.9279" stroke="white" stroke-width="6" stroke-miterlimit="10"/>
</g>
<path d="M37.0543 71.0042C55.7876 71.0042 70.9738 55.972 70.9738 37.4289C70.9738 18.8857 55.7876 3.85352 37.0543 3.85352C18.3211 3.85352 3.13477 18.8857 3.13477 37.4289C3.13477 55.972 18.3211 71.0042 37.0543 71.0042Z" stroke="white" stroke-width="6" stroke-miterlimit="10"/>
</svg>
