<svg width="75" height="8" viewBox="0 0 75 8" fill="none" xmlns="http://www.w3.org/2000/svg">
<path d="M1.17515 2.27434C1.17515 1.98865 1.20134 1.70296 0.917969 1.5229V0.164062H3.79697V1.5229C3.5136 1.70056 3.53979 1.98625 3.53979 2.27434V5.71225C3.53979 5.99794 3.5136 6.28364 3.79697 6.46369V7.82253H0.917969V6.46369C1.20134 6.28604 1.17515 6.00034 1.17515 5.71225V2.27434Z" fill="#F08C21"/>
<path d="M7.52856 5.71228C7.52856 5.99797 7.50237 6.28367 7.78574 6.46373V7.82256H4.90674V6.46373C5.19011 6.28607 5.16392 6.00038 5.16392 5.71228V2.27438C5.16392 1.98868 5.19011 1.70299 4.90674 1.52293V0.164095H8.19295C8.77875 0.164095 9.51219 0.154494 10.0266 0.466594C10.6457 0.833912 10.86 1.48453 10.86 2.18075C10.86 3.02102 10.6124 3.75325 9.72651 3.97652V3.99333C10.4719 4.17099 10.7195 4.49269 10.7195 5.27054V5.70748C10.7195 5.96676 10.7195 6.34128 11.0124 6.45892V7.81776H8.46918C8.37154 7.39762 8.30963 7.03991 8.33582 5.7627C8.33582 5.1553 8.27391 4.85281 7.6262 4.8336H7.52856V5.71228ZM7.52856 3.30911H7.76669C8.28106 3.30911 8.4406 3.04022 8.4406 2.50485C8.4406 2.01269 8.28106 1.7462 7.76669 1.7462H7.52856V3.30911Z" fill="#F08C21"/>
<path d="M17.7973 5.60702C17.7973 7.50123 16.6447 7.97418 14.9707 7.97418C13.2966 7.97418 12.144 7.50123 12.144 5.60702V2.38279C12.144 0.488581 13.2966 0.015625 14.9707 0.015625C16.6447 0.015625 17.7973 0.488581 17.7973 2.38279V5.60702ZM14.5087 5.72226C14.5087 5.77508 14.4825 6.32005 14.9683 6.32005C15.4564 6.32005 15.4302 5.77508 15.4302 5.72226V2.25555C15.4302 2.20273 15.4564 1.66495 14.9683 1.66495C14.4801 1.66495 14.5087 2.20033 14.5087 2.25555V5.72226Z" fill="#F08C21"/>
<path d="M22.9257 3.62358H22.9423V2.27434C22.9423 1.98865 22.9685 1.70296 22.6852 1.5229V0.164062H25.1117V1.5229C24.8283 1.70056 24.8545 1.98625 24.8545 2.27434V7.82013H22.5589L21.1492 4.38222H21.1325V5.71225C21.1325 5.99794 21.1063 6.28364 21.3897 6.46369V7.82253H19.0322V6.46369C19.3156 6.28604 19.2894 6.00034 19.2894 5.71225V2.27434C19.2894 1.98865 19.3156 1.70296 19.0322 1.5229V0.164062H21.6017L22.9257 3.62358Z" fill="#F08C21"/>
<path d="M31.3064 5.30543C31.1398 5.48549 31.0588 5.73997 31.0588 6.06887C31.0588 6.31135 31.1493 6.49621 31.3279 6.62826C31.5065 6.7603 31.7589 6.82752 32.0851 6.82752C32.3995 6.82752 32.6686 6.73389 32.8948 6.54663C33.121 6.35937 33.2901 6.09049 33.4091 5.74477C33.5282 5.39666 33.5854 4.98853 33.5854 4.52038H34.7284C34.7284 5.2142 34.6188 5.81439 34.3998 6.31855C34.1807 6.82272 33.8592 7.21164 33.4353 7.48053C33.0115 7.75181 32.4971 7.88626 31.8899 7.88626C31.4803 7.88626 31.1302 7.81424 30.8397 7.67259C30.5492 7.53095 30.3253 7.32208 30.1729 7.0508C30.0205 6.77951 29.9443 6.4506 29.9443 6.06648C29.9443 5.54791 30.0944 5.13498 30.392 4.82288C30.6897 4.51078 31.1112 4.33072 31.6541 4.28271L32.0185 5.03174C31.7089 5.03415 31.4731 5.12537 31.3064 5.30543ZM31.5089 5.30063C31.2993 5.07736 31.1231 4.85168 30.9826 4.62121C30.8421 4.39313 30.7373 4.15786 30.6635 3.91778C30.592 3.67531 30.5563 3.42803 30.5563 3.17115C30.5563 2.61657 30.7111 2.18683 31.0183 1.88193C31.3279 1.57704 31.7637 1.42578 32.328 1.42578C32.89 1.42578 33.3258 1.57223 33.633 1.86513C33.9402 2.15802 34.095 2.57095 34.095 3.10632V3.28158H32.9091V3.10632C32.9091 2.84944 32.8591 2.65018 32.7567 2.50853C32.6566 2.36689 32.5138 2.29487 32.328 2.29487C32.1137 2.29487 31.9494 2.37169 31.8303 2.52294C31.7113 2.67659 31.6541 2.89266 31.6541 3.17115C31.6541 3.3248 31.6922 3.49765 31.766 3.68731C31.8399 3.87697 31.9494 4.08104 32.0923 4.29471C32.2352 4.50837 32.4066 4.72685 32.6043 4.94772L35.1951 7.82144H33.8592L31.5089 5.30063Z" fill="#2B2868"/>
<path d="M43.3649 3.30338H43.3816L44.1794 0.167969H47.0846V1.52681C46.8012 1.70446 46.8274 1.99016 46.8274 2.27825V5.71616C46.8274 6.00185 46.8012 6.28753 47.0846 6.46759V7.82643H44.3127V6.46759C44.5961 6.28993 44.5699 6.00425 44.5699 5.71616V3.66109H44.5532L43.5245 7.82403H42.7791L41.698 3.66109H41.6814V5.71616C41.6814 6.00185 41.6552 6.28753 41.9385 6.46759V7.82643H39.6001V6.46759C39.8835 6.28993 39.8573 6.00425 39.8573 5.71616V2.27825C39.8573 1.99256 39.8835 1.70686 39.6001 1.52681V0.167969H42.5863L43.3649 3.30338Z" fill="#F08C21"/>
<path d="M53.9785 5.05443V7.82252H48.2896V6.46369C48.5729 6.28603 48.5467 6.00034 48.5467 5.71224V2.27434C48.5467 1.98864 48.5729 1.70296 48.2896 1.5229V0.164062H53.9785V2.75449H51.7996V2.52161C51.7996 2.00305 51.7282 1.78938 51.09 1.78938H50.9471V3.15542H52.4449V4.6463H50.9471V6.1924H51.09C51.7996 6.1924 51.7901 5.92351 51.7996 5.29931V5.04963H53.9785V5.05443Z" fill="#F08C21"/>
<path d="M54.7236 0.167969H61.2699V3.62508H59.5958V2.33827C59.5958 1.99016 59.5148 1.80289 59.1791 1.79329V5.71375C59.1791 5.99944 59.1529 6.28514 59.4362 6.4652V7.82403H56.5572V6.4652C56.8406 6.28754 56.8144 6.00185 56.8144 5.71375V1.79329C56.4787 1.80289 56.3977 1.99016 56.3977 2.33827V3.62508H54.7236V0.167969Z" fill="#F08C21"/>
<path d="M64.2748 7.82013H61.6602V6.46129C61.9173 6.28363 61.9435 5.88991 62.015 5.59461L63.0151 0.164062H66.3823L67.4896 5.70985C67.5348 5.94992 67.6229 6.37966 67.8873 6.46129V7.82013H64.9011V6.46129C65.0869 6.38927 65.175 6.24762 65.175 6.04115C65.175 5.96193 65.1583 5.88991 65.1392 5.81788H63.9962C63.9796 5.88991 63.9605 5.96913 63.9605 6.04115C63.9605 6.25482 64.0677 6.40847 64.2701 6.46129V7.82013H64.2748ZM64.9297 4.3294L64.5392 2.06068H64.5225L64.151 4.3294H64.9297Z" fill="#F08C21"/>
<path d="M68.6333 7.82252V6.46369C68.9167 6.28603 68.8905 6.00034 68.8905 5.71224V2.27434C68.8905 1.98864 68.9167 1.70296 68.6333 1.5229V0.164062H71.5123V1.5229C71.2289 1.70056 71.2551 1.98624 71.2551 2.27434V6.1948H71.4861C72.0886 6.1948 72.0791 5.82748 72.0791 5.34733V4.10613H74.1603V7.82252H68.6333Z" fill="#F08C21"/>
</svg>
