<svg width="46" height="46" viewBox="0 0 46 46" fill="none" xmlns="http://www.w3.org/2000/svg">
<path d="M23 0.5C35.4205 0.5 45.5 10.5795 45.5 23C45.5 35.4205 35.4205 45.5 23 45.5C10.5795 45.5 0.5 35.4205 0.5 23C0.500001 10.5795 10.5795 0.500001 23 0.5ZM9.30957 24.6592C9.95461 30.1417 13.7917 34.6532 18.916 36.2969L20.5322 36.8154L19.4551 35.5039C17.6223 33.272 16.3329 29.3678 16.1025 24.5771L16.0791 24.1006H9.24414L9.30957 24.6592ZM30.209 24.5771C29.9786 29.3678 28.6893 33.272 26.8564 35.5039L25.7793 36.8154L27.3955 36.2969C32.5197 34.6532 36.3559 30.1416 37.001 24.6592L37.0674 24.1006H30.2314L30.209 24.5771ZM18.3047 24.6279C18.4785 27.8346 19.1626 30.4643 20.0322 32.3086C20.4663 33.229 20.9549 33.9717 21.4648 34.4922C21.9646 35.0022 22.5444 35.3574 23.1553 35.3574C23.7633 35.3574 24.3417 35.0014 24.8398 34.4922C25.3488 33.9719 25.8374 33.2291 26.2725 32.3086C27.1441 30.4645 27.8321 27.835 28.0059 24.6279L28.0342 24.1006H18.2764L18.3047 24.6279ZM18.916 9.70312C13.7917 11.3468 9.95461 15.8583 9.30957 21.3408L9.24414 21.8994H16.0791L16.1025 21.4229C16.3329 16.6322 17.6223 12.728 19.4551 10.4961L20.5322 9.18457L18.916 9.70312ZM23.1553 10.6426C22.5444 10.6426 21.9646 10.9978 21.4648 11.5078C20.9549 12.0283 20.4663 12.771 20.0322 13.6914C19.1626 15.5357 18.4785 18.1654 18.3047 21.3721L18.2764 21.8994H28.0342L28.0059 21.3721C27.8321 18.1654 27.148 15.5357 26.2783 13.6914C25.8443 12.771 25.3556 12.0283 24.8457 11.5078C24.3459 10.9978 23.7661 10.6426 23.1553 10.6426ZM26.8564 10.4961C28.6893 12.728 29.9786 16.6322 30.209 21.4229L30.2314 21.8994H37.0664L37.001 21.3408C36.356 15.8432 32.5195 11.3302 27.3936 9.70215L25.7842 9.19141L26.8564 10.4961Z" fill="#F08C21" stroke="#F08C21"/>
</svg>
