<svg width="110" height="110" viewBox="0 0 110 110" fill="none" xmlns="http://www.w3.org/2000/svg">
<rect width="110" height="110" rx="5" fill="white"/>
<path d="M54.8704 4.43359H11.0059V48.4772H54.8704V4.43359Z" fill="#F08C21"/>
<path d="M27.2626 19.9532C27.2626 18.8727 27.3643 17.792 26.288 17.1159V11.9844H37.2173V17.1178C36.1411 17.7939 36.2427 18.8746 36.2427 19.9551V32.9554C36.2427 34.0361 36.1411 35.1166 37.2173 35.7928V40.9262H26.2861V35.7909C27.3624 35.1147 27.2607 34.0342 27.2607 32.9535V19.9532H27.2626Z" fill="#FEFEFE"/>
<path d="M98.9939 48.3789H55.1294V92.4224H98.9939V48.3789Z" fill="#F08C21"/>
<path d="M77.6749 67.736H77.7439L80.823 55.6758H92.0476V60.8979C90.9522 61.5855 91.0558 62.6855 91.0558 63.7834V77.0128C91.0558 78.1127 90.9522 79.2126 92.0476 79.8984V85.1204H81.3371V79.8984C82.4325 79.2106 82.3289 78.1108 82.3289 77.0128V69.1095H82.2599L78.2906 85.1224H75.4169L71.2424 69.1095H71.1734V77.0128C71.1734 78.1127 71.0698 79.2126 72.1652 79.8984V85.1204H63.1313V79.8984C64.2268 79.2106 64.1232 78.1108 64.1232 77.0128V63.7853C64.1232 62.6855 64.2268 61.5855 63.1313 60.8998V55.6758H74.663L77.6749 67.736Z" fill="#FEFEFE"/>
<path d="M26.8033 73.5161C25.9803 74.406 25.5698 75.6619 25.5698 77.2838C25.5698 78.4761 26.0129 79.3989 26.8992 80.0518C27.7856 80.7049 29.0364 81.0323 30.6516 81.0323C32.2094 81.0323 33.5466 80.5701 34.6631 79.6435C35.7777 78.717 36.6294 77.3975 37.2145 75.6812C37.8016 73.9649 38.0931 71.9519 38.0931 69.6405H43.7544C43.7544 73.0711 43.2115 76.0337 42.1238 78.5244C41.0379 81.0149 39.4438 82.9277 37.3412 84.2627C35.2385 85.5975 32.6871 86.266 29.6848 86.266C27.6551 86.266 25.917 85.9134 24.4724 85.2103C23.0279 84.5072 21.9266 83.4844 21.1689 82.1418C20.4112 80.7992 20.0312 79.1811 20.0312 77.2858C20.0312 74.7297 20.7718 72.684 22.2509 71.1488C23.73 69.6136 25.8154 68.7236 28.503 68.479L30.3045 72.1831C28.7946 72.1812 27.6263 72.6262 26.8033 73.5161ZM27.8008 73.4949C26.7573 72.3893 25.8882 71.274 25.1957 70.1471C24.5012 69.0203 23.9755 67.8607 23.6187 66.6703C23.2619 65.4779 23.0835 64.2508 23.0835 62.9872C23.0835 60.2461 23.8489 58.1235 25.3779 56.623C26.9069 55.1224 29.0727 54.3711 31.8756 54.3711C34.6631 54.3711 36.8193 55.0935 38.3425 56.5362C39.8658 57.979 40.6274 60.0208 40.6274 62.6637V63.5246H34.7513V62.6637C34.7513 61.4001 34.5019 60.4177 34.0012 59.7126C33.5005 59.0095 32.7926 58.657 31.8775 58.657C30.8186 58.657 29.9975 59.0346 29.4104 59.7878C28.8234 60.5409 28.5318 61.608 28.5318 62.9853C28.5318 63.7462 28.7178 64.5976 29.09 65.5376C29.4622 66.4776 30.0013 67.4753 30.7092 68.531C31.4171 69.5865 32.265 70.6595 33.251 71.7497L46.0987 85.9403H39.4725L27.8008 73.4949Z" fill="#2A276A"/>
<path d="M19.1457 98.7524C19.1457 98.4497 19.1733 98.1469 18.873 97.956V96.5156H21.9248V97.956C21.6244 98.1443 21.6522 98.4472 21.6522 98.7524V102.397C21.6522 102.699 21.6244 103.002 21.9248 103.193V104.634H18.873V103.193C19.1733 103.005 19.1457 102.702 19.1457 102.397V98.7524Z" fill="#F08C21"/>
<path d="M25.8803 102.397C25.8803 102.7 25.8525 103.002 26.1528 103.193V104.634H23.1011V103.193C23.4015 103.005 23.3737 102.702 23.3737 102.397V98.7526C23.3737 98.4497 23.4015 98.1469 23.1011 97.956V96.5157H26.5846C27.2055 96.5157 27.9829 96.5055 28.5282 96.8363C29.1844 97.2256 29.4116 97.9153 29.4116 98.6533C29.4116 99.544 29.1491 100.32 28.2101 100.557V100.575C29.0002 100.763 29.2626 101.104 29.2626 101.928V102.392C29.2626 102.667 29.2626 103.063 29.5731 103.188V104.629H26.8773C26.7738 104.183 26.7081 103.804 26.7359 102.45C26.7359 101.806 26.6703 101.486 25.9837 101.465H25.8803V102.397ZM25.8803 99.8494H26.1327C26.6779 99.8494 26.847 99.5643 26.847 98.9968C26.847 98.4752 26.6779 98.1927 26.1327 98.1927H25.8803V99.8494Z" fill="#F08C21"/>
<path d="M36.765 102.282C36.765 104.29 35.5432 104.792 33.7688 104.792C31.9942 104.792 30.7725 104.29 30.7725 102.282V98.8647C30.7725 96.8568 31.9942 96.3555 33.7688 96.3555C35.5432 96.3555 36.765 96.8568 36.765 98.8647V102.282ZM33.279 102.405C33.279 102.461 33.2513 103.038 33.7662 103.038C34.2836 103.038 34.2558 102.461 34.2558 102.405V98.7298C34.2558 98.6738 34.2836 98.1038 33.7662 98.1038C33.2487 98.1038 33.279 98.6712 33.279 98.7298V102.405Z" fill="#F08C21"/>
<path d="M42.2013 100.183H42.2189V98.7524C42.2189 98.4497 42.2467 98.1469 41.9464 97.956V96.5156H44.5185V97.956C44.2181 98.1443 44.2459 98.4472 44.2459 98.7524V104.631H41.8125L40.3182 100.987H40.3005V102.397C40.3005 102.699 40.2728 103.002 40.5732 103.193V104.634H38.0742V103.193C38.3746 103.005 38.3468 102.702 38.3468 102.397V98.7524C38.3468 98.4497 38.3746 98.1469 38.0742 97.956V96.5156H40.7979L42.2013 100.183Z" fill="#F08C21"/>
<path d="M51.0849 101.964C50.9083 102.155 50.8225 102.425 50.8225 102.773C50.8225 103.03 50.9184 103.226 51.1077 103.366C51.297 103.506 51.5646 103.577 51.9104 103.577C52.2436 103.577 52.5289 103.478 52.7686 103.28C53.0084 103.081 53.1877 102.796 53.3138 102.43C53.44 102.061 53.5007 101.628 53.5007 101.132H54.7123C54.7123 101.867 54.5961 102.503 54.3639 103.038C54.1317 103.572 53.7909 103.985 53.3416 104.27C52.8923 104.557 52.3471 104.7 51.7034 104.7C51.2693 104.7 50.8982 104.623 50.5902 104.473C50.2823 104.323 50.045 104.102 49.8834 103.814C49.7219 103.526 49.6411 103.178 49.6411 102.771C49.6411 102.221 49.8002 101.783 50.1157 101.452C50.4312 101.122 50.878 100.931 51.4535 100.88L51.8398 101.674C51.5116 101.676 51.2616 101.773 51.0849 101.964ZM51.2996 101.959C51.0774 101.722 50.8906 101.483 50.7417 101.239C50.5928 100.997 50.4817 100.748 50.4035 100.493C50.3277 100.236 50.2898 99.9739 50.2898 99.7016C50.2898 99.1138 50.4539 98.6582 50.7796 98.335C51.1077 98.0118 51.5697 97.8516 52.1678 97.8516C52.7636 97.8516 53.2255 98.0067 53.5511 98.3172C53.8768 98.6277 54.0409 99.0654 54.0409 99.6329V99.8187H52.7838V99.6329C52.7838 99.3606 52.7308 99.1494 52.6223 98.9992C52.5161 98.8491 52.3648 98.7728 52.1678 98.7728C51.9407 98.7728 51.7665 98.8542 51.6403 99.0145C51.5141 99.1774 51.4535 99.4065 51.4535 99.7016C51.4535 99.8645 51.4939 100.048 51.5721 100.249C51.6504 100.45 51.7665 100.666 51.918 100.893C52.0695 101.119 52.2512 101.351 52.4607 101.585L55.207 104.631H53.7909L51.2996 101.959Z" fill="#2B2868"/>
<path d="M63.8667 99.8431H63.8844L64.73 96.5195H67.8095V97.9599C67.5091 98.1482 67.5369 98.4511 67.5369 98.7563V102.401C67.5369 102.703 67.5091 103.006 67.8095 103.197V104.637H64.8713V103.197C65.1717 103.009 65.144 102.706 65.144 102.401V100.222H65.1263L64.0358 104.635H63.2457L62.0998 100.222H62.0822V102.401C62.0822 102.703 62.0544 103.006 62.3547 103.197V104.637H59.876V103.197C60.1764 103.009 60.1486 102.706 60.1486 102.401V98.7563C60.1486 98.4536 60.1764 98.1508 59.876 97.9599V96.5195H63.0413L63.8667 99.8431Z" fill="#F08C21"/>
<path d="M75.1171 101.699V104.634H69.0869V103.193C69.3872 103.005 69.3594 102.702 69.3594 102.397V98.7524C69.3594 98.4496 69.3872 98.1469 69.0869 97.956V96.5156H75.1171V99.2614H72.8075V99.0146C72.8075 98.4649 72.7318 98.2384 72.0553 98.2384H71.9039V99.6864H73.4915V101.267H71.9039V102.906H72.0553C72.8075 102.906 72.7974 102.621 72.8075 101.959V101.694H75.1171V101.699Z" fill="#F08C21"/>
<path d="M75.9072 96.5195H82.8463V100.184H81.0718V98.8201C81.0718 98.4511 80.9859 98.2525 80.6301 98.2423V102.398C80.6301 102.701 80.6023 103.004 80.9026 103.195V104.635H77.8508V103.195C78.1512 103.006 78.1235 102.703 78.1235 102.398V98.2423C77.7676 98.2525 77.6818 98.4511 77.6818 98.8201V100.184H75.9072V96.5195Z" fill="#F08C21"/>
<path d="M86.0312 104.631H83.2598V103.191C83.5323 103.002 83.5601 102.585 83.6359 102.272L84.696 96.5156H88.2652L89.4389 102.394C89.4868 102.649 89.5802 103.104 89.8605 103.191V104.631H86.6951V103.191C86.8921 103.114 86.9855 102.964 86.9855 102.745C86.9855 102.661 86.9677 102.585 86.9475 102.509H85.7359C85.7183 102.585 85.6981 102.669 85.6981 102.745C85.6981 102.972 85.8117 103.135 86.0263 103.191V104.631H86.0312ZM86.7254 100.931L86.3115 98.526H86.2938L85.9 100.931H86.7254Z" fill="#F08C21"/>
<path d="M90.6514 104.634V103.193C90.9518 103.005 90.924 102.702 90.924 102.397V98.7524C90.924 98.4496 90.9518 98.1469 90.6514 97.956V96.5156H93.7031V97.956C93.4027 98.1443 93.4305 98.4471 93.4305 98.7524V102.908H93.6753C94.314 102.908 94.3039 102.519 94.3039 102.01V100.694H96.51V104.634H90.6514Z" fill="#F08C21"/>
</svg>
