<svg width="100" height="100" viewBox="0 0 100 100" fill="none" xmlns="http://www.w3.org/2000/svg">
<path d="M49.8777 2.29492H8.49609V43.8455H49.8777V2.29492Z" fill="#F08C21"/>
<path d="M23.8328 16.9377C23.8328 15.9183 23.9287 14.8988 22.9134 14.261V9.41992H33.224V14.2628C32.2087 14.9006 32.3046 15.9201 32.3046 16.9395V29.2039C32.3046 30.2234 32.2087 31.2428 33.224 31.8807V36.7235H22.9116V31.8789C23.9269 31.241 23.831 30.2216 23.831 29.2021V16.9377H23.8328Z" fill="#FEFEFE"/>
<path d="M91.5037 43.752H50.1221V85.3025H91.5037V43.752Z" fill="#F08C21"/>
<path d="M71.3912 62.0143H71.4563L74.3611 50.6367H84.9504V55.5632C83.917 56.2119 84.0147 57.2496 84.0147 58.2854V70.766C84.0147 71.8036 83.917 72.8412 84.9504 73.4882V78.4146H74.8461V73.4882C75.8795 72.8394 75.7818 71.8018 75.7818 70.766V63.31H75.7167L71.9721 78.4165H69.261L65.3228 63.31H65.2577V70.766C65.2577 71.8036 65.16 72.8412 66.1934 73.4882V78.4146H57.6709V73.4882C58.7043 72.8394 58.6066 71.8018 58.6066 70.766V58.2872C58.6066 57.2496 58.7043 56.2119 57.6709 55.565V50.6367H68.5498L71.3912 62.0143Z" fill="#FEFEFE"/>
<path d="M23.3994 67.4675C22.623 68.3071 22.2357 69.4919 22.2357 71.022C22.2357 72.1468 22.6538 73.0173 23.4899 73.6333C24.3261 74.2494 25.5061 74.5583 27.0299 74.5583C28.4995 74.5583 29.761 74.1222 30.8143 73.2481C31.8658 72.374 32.6693 71.1292 33.2213 69.5101C33.7752 67.8909 34.0502 65.9919 34.0502 63.8113H39.391C39.391 67.0477 38.8789 69.8426 37.8527 72.1923C36.8283 74.5419 35.3244 76.3464 33.3408 77.6058C31.3572 78.8651 28.9502 79.4957 26.1178 79.4957C24.203 79.4957 22.5633 79.1631 21.2005 78.4998C19.8377 77.8365 18.7988 76.8716 18.084 75.605C17.3691 74.3384 17.0107 72.8119 17.0107 71.0238C17.0107 68.6124 17.7093 66.6825 19.1047 65.2342C20.5001 63.7859 22.4674 62.9463 25.0029 62.7155L26.7024 66.21C25.278 66.2082 24.1758 66.628 23.3994 67.4675ZM24.3405 67.4475C23.356 66.4045 22.5361 65.3523 21.8828 64.2892C21.2276 63.2262 20.7317 62.1322 20.3951 61.0092C20.0585 59.8843 19.8902 58.7267 19.8902 57.5346C19.8902 54.9487 20.6123 52.9462 22.0547 51.5306C23.4972 50.115 25.5404 49.4062 28.1846 49.4062C30.8143 49.4062 32.8485 50.0877 34.2855 51.4488C35.7225 52.8099 36.441 54.7361 36.441 57.2294V58.0416H30.8975V57.2294C30.8975 56.0373 30.6623 55.1105 30.1899 54.4454C29.7175 53.7821 29.0497 53.4495 28.1864 53.4495C27.1874 53.4495 26.4128 53.8057 25.859 54.5163C25.3052 55.2268 25.0301 56.2335 25.0301 57.5328C25.0301 58.2506 25.2056 59.0538 25.5567 59.9406C25.9078 60.8274 26.4164 61.7687 27.0842 62.7646C27.7521 63.7604 28.552 64.7726 29.4822 65.8011L41.6026 79.1885H35.3515L24.3405 67.4475Z" fill="#2A276A"/>
<path d="M16.1752 91.2743C16.1752 90.9887 16.2013 90.703 15.918 90.5229V89.1641H18.797V90.5229C18.5136 90.7006 18.5398 90.9863 18.5398 91.2743V94.7123C18.5398 94.9979 18.5136 95.2836 18.797 95.4637V96.8225H15.918V95.4637C16.2013 95.286 16.1752 95.0003 16.1752 94.7123V91.2743Z" fill="#F08C21"/>
<path d="M22.5286 94.7123C22.5286 94.998 22.5024 95.2837 22.7857 95.4637V96.8226H19.9067V95.4637C20.1901 95.2861 20.1639 95.0004 20.1639 94.7123V91.2744C20.1639 90.9887 20.1901 90.703 19.9067 90.5229V89.1641H23.193C23.7788 89.1641 24.5122 89.1545 25.0266 89.4666C25.6457 89.8339 25.86 90.4845 25.86 91.1807C25.86 92.021 25.6124 92.7533 24.7265 92.9765V92.9933C25.4719 93.171 25.7195 93.4927 25.7195 94.2705V94.7075C25.7195 94.9668 25.7195 95.3413 26.0124 95.4589V96.8178H23.4692C23.3715 96.3976 23.3096 96.0399 23.3358 94.7627C23.3358 94.1553 23.2739 93.8528 22.6262 93.8336H22.5286V94.7123ZM22.5286 92.3091H22.7667C23.2811 92.3091 23.4406 92.0402 23.4406 91.5048C23.4406 91.0127 23.2811 90.7462 22.7667 90.7462H22.5286V92.3091Z" fill="#F08C21"/>
<path d="M32.7973 94.607C32.7973 96.5012 31.6447 96.9742 29.9707 96.9742C28.2966 96.9742 27.144 96.5012 27.144 94.607V91.3828C27.144 89.4886 28.2966 89.0156 29.9707 89.0156C31.6447 89.0156 32.7973 89.4886 32.7973 91.3828V94.607ZM29.5087 94.7223C29.5087 94.7751 29.4825 95.3201 29.9683 95.3201C30.4564 95.3201 30.4302 94.7751 30.4302 94.7223V91.2555C30.4302 91.2027 30.4564 90.665 29.9683 90.665C29.4801 90.665 29.5087 91.2003 29.5087 91.2555V94.7223Z" fill="#F08C21"/>
<path d="M37.9257 92.6236H37.9423V91.2743C37.9423 90.9887 37.9685 90.703 37.6852 90.5229V89.1641H40.1117V90.5229C39.8283 90.7006 39.8545 90.9863 39.8545 91.2743V96.8201H37.5589L36.1492 93.3822H36.1325V94.7123C36.1325 94.9979 36.1063 95.2836 36.3897 95.4637V96.8225H34.0322V95.4637C34.3156 95.286 34.2894 95.0003 34.2894 94.7123V91.2743C34.2894 90.9887 34.3156 90.703 34.0322 90.5229V89.1641H36.6017L37.9257 92.6236Z" fill="#F08C21"/>
<path d="M46.3064 94.3054C46.1398 94.4855 46.0588 94.74 46.0588 95.0689C46.0588 95.3114 46.1493 95.4962 46.3279 95.6283C46.5065 95.7603 46.7589 95.8275 47.0851 95.8275C47.3995 95.8275 47.6686 95.7339 47.8948 95.5466C48.121 95.3594 48.2901 95.0905 48.4091 94.7448C48.5282 94.3967 48.5854 93.9885 48.5854 93.5204H49.7284C49.7284 94.2142 49.6188 94.8144 49.3998 95.3186C49.1807 95.8227 48.8592 96.2116 48.4353 96.4805C48.0115 96.7518 47.4971 96.8863 46.8899 96.8863C46.4803 96.8863 46.1302 96.8142 45.8397 96.6726C45.5492 96.5309 45.3253 96.3221 45.1729 96.0508C45.0205 95.7795 44.9443 95.4506 44.9443 95.0665C44.9443 94.5479 45.0944 94.135 45.392 93.8229C45.6897 93.5108 46.1112 93.3307 46.6541 93.2827L47.0185 94.0317C46.7089 94.0341 46.4731 94.1254 46.3064 94.3054ZM46.5089 94.3006C46.2993 94.0774 46.1231 93.8517 45.9826 93.6212C45.8421 93.3931 45.7373 93.1579 45.6635 92.9178C45.592 92.6753 45.5563 92.428 45.5563 92.1711C45.5563 91.6166 45.7111 91.1868 46.0183 90.8819C46.3279 90.577 46.7637 90.4258 47.328 90.4258C47.89 90.4258 48.3258 90.5722 48.633 90.8651C48.9402 91.158 49.095 91.5709 49.095 92.1063V92.2816H47.9091V92.1063C47.9091 91.8494 47.8591 91.6502 47.7567 91.5085C47.6566 91.3669 47.5138 91.2949 47.328 91.2949C47.1137 91.2949 46.9494 91.3717 46.8303 91.5229C46.7113 91.6766 46.6541 91.8927 46.6541 92.1711C46.6541 92.3248 46.6922 92.4977 46.766 92.6873C46.8399 92.877 46.9494 93.081 47.0923 93.2947C47.2352 93.5084 47.4066 93.7268 47.6043 93.9477L50.1951 96.8214H48.8592L46.5089 94.3006Z" fill="#2B2868"/>
<path d="M58.3649 92.3034H58.3816L59.1794 89.168H62.0846V90.5268C61.8012 90.7045 61.8274 90.9902 61.8274 91.2782V94.7162C61.8274 95.0018 61.8012 95.2875 62.0846 95.4676V96.8264H59.3127V95.4676C59.5961 95.2899 59.5699 95.0042 59.5699 94.7162V92.6611H59.5532L58.5245 96.824H57.7791L56.698 92.6611H56.6814V94.7162C56.6814 95.0018 56.6552 95.2875 56.9385 95.4676V96.8264H54.6001V95.4676C54.8835 95.2899 54.8573 95.0042 54.8573 94.7162V91.2782C54.8573 90.9926 54.8835 90.7069 54.6001 90.5268V89.168H57.5863L58.3649 92.3034Z" fill="#F08C21"/>
<path d="M68.9785 94.0544V96.8225H63.2896V95.4637C63.5729 95.286 63.5467 95.0003 63.5467 94.7122V91.2743C63.5467 90.9886 63.5729 90.703 63.2896 90.5229V89.1641H68.9785V91.7545H66.7996V91.5216C66.7996 91.003 66.7282 90.7894 66.09 90.7894H65.9471V92.1554H67.4449V93.6463H65.9471V95.1924H66.09C66.7996 95.1924 66.7901 94.9235 66.7996 94.2993V94.0496H68.9785V94.0544Z" fill="#F08C21"/>
<path d="M69.7236 89.168H76.2699V92.6251H74.5958V91.3383C74.5958 90.9902 74.5148 90.8029 74.1791 90.7933V94.7138C74.1791 94.9994 74.1529 95.2851 74.4362 95.4652V96.824H71.5572V95.4652C71.8406 95.2875 71.8144 95.0018 71.8144 94.7138V90.7933C71.4787 90.8029 71.3977 90.9902 71.3977 91.3383V92.6251H69.7236V89.168Z" fill="#F08C21"/>
<path d="M79.2748 96.8201H76.6602V95.4613C76.9173 95.2836 76.9435 94.8899 77.015 94.5946L78.0151 89.1641H81.3823L82.4896 94.7098C82.5348 94.9499 82.6229 95.3797 82.8873 95.4613V96.8201H79.9011V95.4613C80.0869 95.3893 80.175 95.2476 80.175 95.0412C80.175 94.9619 80.1583 94.8899 80.1392 94.8179H78.9962C78.9796 94.8899 78.9605 94.9691 78.9605 95.0412C78.9605 95.2548 79.0677 95.4085 79.2701 95.4613V96.8201H79.2748ZM79.9297 93.3294L79.5392 91.0607H79.5225L79.151 93.3294H79.9297Z" fill="#F08C21"/>
<path d="M83.6333 96.8225V95.4637C83.9167 95.286 83.8905 95.0003 83.8905 94.7122V91.2743C83.8905 90.9886 83.9167 90.703 83.6333 90.5229V89.1641H86.5123V90.5229C86.2289 90.7006 86.2551 90.9862 86.2551 91.2743V95.1948H86.4861C87.0886 95.1948 87.0791 94.8275 87.0791 94.3473V93.1061H89.1603V96.8225H83.6333Z" fill="#F08C21"/>
</svg>
