<svg width="28" height="29" viewBox="0 0 28 29" fill="none" xmlns="http://www.w3.org/2000/svg">
<path d="M14.3912 12.0143H14.4563L17.3611 0.636719H27.9504V5.56318C26.917 6.21193 27.0147 7.24956 27.0147 8.28537V20.766C27.0147 21.8036 26.917 22.8412 27.9504 23.4882V28.4146H17.8461V23.4882C18.8795 22.8394 18.7818 21.8018 18.7818 20.766V13.31H18.7167L14.9721 28.4165H12.261L8.32284 13.31H8.25769V20.766C8.25769 21.8036 8.15995 22.8412 9.19336 23.4882V28.4146H0.670898V23.4882C1.70431 22.8394 1.60658 21.8018 1.60658 20.766V8.28719C1.60658 7.24956 1.70431 6.21193 0.670898 5.565V0.636719H11.5498L14.3912 12.0143Z" fill="#FEFEFE"/>
</svg>
