<svg width="355" height="543" viewBox="0 0 355 543" fill="none" xmlns="http://www.w3.org/2000/svg">
<path fill-rule="evenodd" clip-rule="evenodd" d="M195.852 11.6487L176.033 25.1451L195.771 38.6875V32.9651H210.632V17.4355H195.852V11.6487ZM214.679 32.9651H221.861L221.942 17.4355H214.679V32.9651ZM225.988 17.4355V32.9651H231.362V17.4355H225.988Z" fill="#C0C0C0"/>
<g clip-path="url(#clip0_951_656)">
<path fill-rule="evenodd" clip-rule="evenodd" d="M193.43 137.564L169.658 138.286L178.701 160.24L181.804 155.431L194.141 163.394L202.562 150.345L190.292 142.426L193.43 137.564ZM197.501 165.562L203.464 169.41L211.952 156.405L205.922 152.514L197.501 165.562ZM215.311 158.573L206.89 171.621L211.351 174.5L219.772 161.452L215.311 158.573Z" fill="#C0C0C0"/>
</g>
<path fill-rule="evenodd" clip-rule="evenodd" d="M167.496 347.649L147.974 361.145L167.417 374.688V368.965H182.056V353.436H167.496V347.649ZM186.042 368.965H193.118L193.197 353.436H186.042V368.965ZM197.183 353.436V368.965H202.476V353.436H197.183Z" fill="#C0C0C0"/>
<g clip-path="url(#clip1_951_656)">
<path fill-rule="evenodd" clip-rule="evenodd" d="M320.647 488.532L334.143 533.789L347.686 488.715L341.963 488.715L341.963 454.78L326.434 454.78L326.434 488.532L320.647 488.532ZM341.963 445.539L341.963 429.137L326.434 428.953L326.434 445.539L341.963 445.539ZM326.434 419.712L341.963 419.712L341.963 407.442L326.434 407.442L326.434 419.712Z" fill="#C0C0C0"/>
</g>
<g clip-path="url(#clip2_951_656)">
<path fill-rule="evenodd" clip-rule="evenodd" d="M320.647 104.468L334.143 59.2109L347.686 104.285L341.963 104.285L341.963 138.22L326.434 138.22L326.434 104.468L320.647 104.468ZM341.963 147.461L341.963 163.863L326.434 164.047L326.434 147.461L341.963 147.461ZM326.434 173.288L341.963 173.288L341.963 185.558L326.434 185.558L326.434 173.288Z" fill="#C0C0C0"/>
</g>
<path fill-rule="evenodd" clip-rule="evenodd" d="M71.5036 347.649L91.0264 361.145L71.5828 374.688V368.965H56.944V353.436H71.5036V347.649ZM52.9576 368.965H45.8824L45.8032 353.436H52.9576V368.965ZM41.8168 353.436V368.965H36.5236V353.436H41.8168Z" fill="#C0C0C0"/>
<path fill-rule="evenodd" clip-rule="evenodd" d="M42.5036 11.6487L62.0264 25.1451L42.5828 38.6875V32.9651H27.944V17.4355H42.5036V11.6487ZM23.9576 32.9651H16.8824L16.8032 17.4355H23.9576V32.9651ZM12.8168 17.4355V32.9651H7.52356V17.4355H12.8168Z" fill="#C0C0C0"/>
<defs>
<clipPath id="clip0_951_656">
<rect width="66.2013" height="46" fill="white" transform="matrix(0.840217 0.542251 0.542251 -0.840217 155 153.648)"/>
</clipPath>
<clipPath id="clip1_951_656">
<rect width="153" height="46" fill="white" transform="matrix(-4.37114e-08 -1 -1 4.37114e-08 355 543)"/>
</clipPath>
<clipPath id="clip2_951_656">
<rect width="153" height="46" fill="white" transform="translate(355 50) rotate(90)"/>
</clipPath>
</defs>
</svg>
