<svg width="31" height="45" viewBox="0 0 31 45" fill="none" xmlns="http://www.w3.org/2000/svg">
<path d="M15.3067 45C17.709 45 19.777 43.1266 20.5623 40.4982C20.57 40.4695 20.5545 40.4408 20.5311 40.4408H10.0901C10.0667 40.4408 10.0512 40.4695 10.0589 40.4982C10.8364 43.1266 12.9044 45 15.3067 45ZM30.0938 32.4121C30.0238 32.3165 29.9694 32.221 29.8839 32.1254C29.8294 32.0298 29.7672 31.9533 29.6895 31.8769C29.4174 31.5901 29.1375 31.2747 28.8965 30.9497C28.3911 30.3093 27.9558 29.5925 27.5749 28.8374C26.6575 26.9545 26.1521 24.7753 26.1521 22.51V18.8206C26.1521 12.9424 23.0267 7.94361 18.7196 6.17538C18.7041 6.16582 18.6963 6.15627 18.6963 6.13715V4.34024C18.6963 2.19925 17.4447 0.278093 15.7188 0.0295848C13.6663 -0.266713 11.9247 1.70223 11.9247 4.15864V6.13715C11.9247 6.15627 11.9169 6.16582 11.9014 6.17538C7.59433 7.93405 4.46913 12.9424 4.46913 18.8206V22.51C4.46913 22.9592 4.46131 23.418 4.41466 23.8481C4.2514 25.6355 3.78491 27.3272 3.03856 28.8565C2.76645 29.4204 2.41657 29.9844 2.03562 30.4909C1.94233 30.663 1.84133 30.8064 1.71694 30.9593C1.59255 31.1122 1.47594 31.2747 1.336 31.4276C1.19606 31.5997 1.06387 31.743 0.923927 31.8769V31.9247C0.846182 32.0011 0.783971 32.0776 0.714001 32.1732C-0.164515 33.3201 -0.28896 35.1553 0.659526 36.4934C1.19597 37.2485 2.00453 37.6308 2.81307 37.6308H9.76341H11.9092H18.7118H20.8576H27.8237C29.262 37.6308 30.5446 36.3118 30.6146 34.5436C30.6457 33.7598 30.4592 33.0238 30.0938 32.4121Z" fill="#F08C21"/>
</svg>
