<svg width="14" height="41" viewBox="0 0 14 41" fill="none" xmlns="http://www.w3.org/2000/svg">
<path d="M11.2444 40H2.76L2.76444 39.9887C1.79556 39.9887 1.01111 39.1901 1.01111 38.2038L1 38.2084V2.78939L1.01111 2.78486C1.01111 1.79855 1.79556 1 2.76444 1L2.76 1.01131H11.2422L11.2467 1C12.2156 1 13 1.79855 13 2.78486L12.9889 2.78939V5.62164H11.8267V2.78939V2.78486C11.8267 2.45911 11.5667 2.19443 11.2467 2.19443H11.2422H2.76H2.76444C2.44445 2.19443 2.18444 2.45911 2.18444 2.78486L2.17333 2.78939V38.2106L2.18444 38.2061C2.18444 38.5318 2.44445 38.7965 2.76444 38.7965L2.76 38.8078H11.2422L11.2467 38.7965C11.5667 38.7965 11.8267 38.5318 11.8267 38.2061V38.2106V35.3897H12.9889V38.2106L13 38.2061C13 39.1924 12.2156 39.9909 11.2467 39.9909L11.2444 40Z" fill="#302C6D" stroke="#302C6D" stroke-width="2" stroke-miterlimit="10" stroke-linecap="round" stroke-linejoin="round"/>
</svg>
