<svg width="36" height="36" viewBox="0 0 36 36" fill="none" xmlns="http://www.w3.org/2000/svg">
<path d="M3.71974 29.5579V2.70616L3.70872 2.69956C3.70872 1.75952 2.94676 1 2.00861 1L2.01522 1.01101H1V35H35V33.9851V33.9785C35 33.0385 34.238 32.2789 33.2999 32.2789H33.3065H6.42846L6.42185 32.2679C4.92215 32.2679 3.70652 31.0527 3.70652 29.5535" fill="#302C6D"/>
<path d="M3.71974 29.5579V2.70616L3.70872 2.69956C3.70872 1.75952 2.94676 1 2.00861 1L2.01522 1.01101H1V35H35V33.9851V33.9785C35 33.0385 34.238 32.2789 33.2999 32.2789H33.3065H6.42846L6.42185 32.2679C4.92215 32.2679 3.70652 31.0527 3.70652 29.5535" stroke="#302C6D" stroke-miterlimit="10"/>
</svg>
