<svg width="46" height="42" viewBox="0 0 46 42" fill="none" xmlns="http://www.w3.org/2000/svg">
<g filter="url(#filter0_d_864_25050)">
<path d="M23.6684 31.8738V2.15195C23.6709 2.15195 23.6709 2.12366 23.6709 2.12366H27.551H41V1H5V2.12366H18.4617H22.4592L22.4617 2.15195V31.8763H18.4617H5V33H41V31.8763H27.551L23.6684 31.8738Z" fill="#302C6D"/>
<path d="M23.6684 31.8738V2.15195C23.6709 2.15195 23.6709 2.12366 23.6709 2.12366H27.551H41V1H5V2.12366H18.4617H22.4592L22.4617 2.15195V31.8763H18.4617H5V33H41V31.8763H27.551L23.6684 31.8738Z" stroke="#302C6D" stroke-miterlimit="10"/>
</g>
<defs>
<filter id="filter0_d_864_25050" x="0.5" y="0.5" width="45" height="41" filterUnits="userSpaceOnUse" color-interpolation-filters="sRGB">
<feFlood flood-opacity="0" result="BackgroundImageFix"/>
<feColorMatrix in="SourceAlpha" type="matrix" values="0 0 0 0 0 0 0 0 0 0 0 0 0 0 0 0 0 0 127 0" result="hardAlpha"/>
<feOffset dy="4"/>
<feGaussianBlur stdDeviation="2"/>
<feComposite in2="hardAlpha" operator="out"/>
<feColorMatrix type="matrix" values="0 0 0 0 0 0 0 0 0 0 0 0 0 0 0 0 0 0 0.14 0"/>
<feBlend mode="normal" in2="BackgroundImageFix" result="effect1_dropShadow_864_25050"/>
<feBlend mode="normal" in="SourceGraphic" in2="effect1_dropShadow_864_25050" result="shape"/>
</filter>
</defs>
</svg>
