<svg width="44" height="44" viewBox="0 0 44 44" fill="none" xmlns="http://www.w3.org/2000/svg">
<path d="M21.7363 1.5C32.9128 1.50013 41.9727 10.5599 41.9727 21.7363C41.9725 32.9127 32.9127 41.9725 21.7363 41.9727C10.5598 41.9727 1.50007 32.9126 1.5 21.7393C1.5 10.5626 10.5599 1.5 21.7363 1.5Z" fill="#302C6D" stroke="#302C6D"/>
<path d="M21.7361 42.4722C33.1888 42.4722 42.4722 33.1888 42.4722 21.7361C42.4722 10.2834 33.1888 1 21.7361 1C10.2834 1 1 10.2865 1 21.7391C1 33.1888 10.2834 42.4722 21.7361 42.4722Z" fill="#302C6D" stroke="#302C6D" stroke-width="2" stroke-miterlimit="10"/>
<path d="M21.737 39.1693C31.3647 39.1693 39.1674 31.3636 39.1674 21.739C39.1674 12.1113 31.3617 4.30859 21.737 4.30859C12.1124 4.30859 4.30664 12.1113 4.30664 21.739C4.30664 31.3667 12.1093 39.1693 21.737 39.1693Z" fill="white" stroke="#302C6D" stroke-width="2" stroke-miterlimit="10"/>
</svg>
