<svg width="27" height="42" viewBox="0 0 27 42" fill="none" xmlns="http://www.w3.org/2000/svg">
<mask id="path-1-inside-1_877_59650" fill="white">
<path d="M25.6919 36.4845C25.6919 38.7445 23.8586 40.5779 21.5985 40.5779H21.6086H5.10372H5.09362C2.83355 40.5779 1.00023 38.7445 1.00023 36.4845V36.4744V5.08329V5.09339C1.00023 2.83331 2.83355 1 5.09362 1H5.10372H21.6061H21.596C23.856 1 25.6894 2.83331 25.6894 5.09339L25.707 5.08329V36.4744"/>
</mask>
<path d="M25.6919 36.4845C25.6919 38.7445 23.8586 40.5779 21.5985 40.5779H21.6086H5.10372H5.09362C2.83355 40.5779 1.00023 38.7445 1.00023 36.4845V36.4744V5.08329V5.09339C1.00023 2.83331 2.83355 1 5.09362 1H5.10372H21.6061H21.596C23.856 1 25.6894 2.83331 25.6894 5.09339L25.707 5.08329V36.4744" fill="#302C6D"/>
<path d="M25.6894 5.09339L26.1855 5.96165L24.6894 6.81651V5.09339H25.6894ZM25.707 5.08329L25.2109 4.21503L26.707 3.36017V5.08329H25.707ZM25.6919 36.4845H26.6919C26.6919 39.2968 24.4109 41.5779 21.5985 41.5779V40.5779V39.5779C23.3063 39.5779 24.6919 38.1923 24.6919 36.4845H25.6919ZM21.5985 40.5779V39.5779H21.6086V40.5779V41.5779H21.5985V40.5779ZM21.6086 40.5779V41.5779H5.10372V40.5779V39.5779H21.6086V40.5779ZM5.10372 40.5779V41.5779H5.09362V40.5779V39.5779H5.10372V40.5779ZM5.09362 40.5779V41.5779C2.28126 41.5779 0.000232697 39.2968 0.000232697 36.4845H1.00023H2.00023C2.00023 38.1923 3.38583 39.5779 5.09362 39.5779V40.5779ZM1.00023 36.4845H0.000232697V36.4744H1.00023H2.00023V36.4845H1.00023ZM1.00023 36.4744H0.000232697V5.08329H1.00023H2.00023V36.4744H1.00023ZM1.00023 5.08329H2.00023V5.09339H1.00023H0.000232697V5.08329H1.00023ZM1.00023 5.09339H0.000232697C0.000232697 2.28103 2.28126 0 5.09362 0V1V2C3.38583 2 2.00023 3.3856 2.00023 5.09339H1.00023ZM5.09362 1V0H5.10372V1V2H5.09362V1ZM5.10372 1V0H21.6061V1V2H5.10372V1ZM21.6061 1V2H21.596V1V0H21.6061V1ZM21.596 1V0C24.4083 0 26.6894 2.28103 26.6894 5.09339H25.6894H24.6894C24.6894 3.3856 23.3038 2 21.596 2V1ZM25.6894 5.09339L25.1932 4.22513L25.2109 4.21503L25.707 5.08329L26.2031 5.95155L26.1855 5.96165L25.6894 5.09339ZM25.707 5.08329H26.707V36.4744H25.707H24.707V5.08329H25.707Z" fill="#302C6D" mask="url(#path-1-inside-1_877_59650)"/>
<path d="M25.6919 36.4845C25.6919 38.7445 23.8586 40.5779 21.5985 40.5779H21.6086H5.10372H5.09362C2.83355 40.5779 1.00023 38.7445 1.00023 36.4845V36.4744V5.08329V5.09339C1.00023 2.83331 2.83355 1 5.09362 1H5.10372H21.6061H21.596C23.856 1 25.6894 2.83331 25.6894 5.09339L25.707 5.08329V36.4744" fill="#302C6D"/>
<path d="M25.6919 36.4845C25.6919 38.7445 23.8586 40.5779 21.5985 40.5779H21.6086H5.10372H5.09362C2.83355 40.5779 1.00023 38.7445 1.00023 36.4845V36.4744V5.08329V5.09339C1.00023 2.83331 2.83355 1 5.09362 1H5.10372H21.6061H21.596C23.856 1 25.6894 2.83331 25.6894 5.09339L25.707 5.08329V36.4744" stroke="#302C6D" stroke-width="2" stroke-miterlimit="10"/>
<path d="M5.09137 3.97861C4.47774 3.97861 3.97775 4.47608 3.97775 5.09224V5.08214V36.4732V36.4833C3.97775 37.0969 4.47522 37.5969 5.09137 37.5969H5.10147H21.6063H21.5962C22.2099 37.5969 22.7099 37.0995 22.7099 36.4833L22.7275 36.4732V5.08214L22.7099 5.09224C22.7099 4.47861 22.2124 3.97861 21.5962 3.97861L21.6063 3.96094H5.10147" fill="white"/>
<path d="M5.09137 3.97861C4.47774 3.97861 3.97775 4.47608 3.97775 5.09224V5.08214V36.4732V36.4833C3.97775 37.0969 4.47522 37.5969 5.09137 37.5969H5.10147H21.6063H21.5962C22.2099 37.5969 22.7099 37.0995 22.7099 36.4833L22.7275 36.4732V5.08214L22.7099 5.09224C22.7099 4.47861 22.2124 3.97861 21.5962 3.97861L21.6063 3.96094H5.10147" stroke="#302C6D" stroke-width="2" stroke-miterlimit="10"/>
</svg>
