<svg width="34" height="34" viewBox="0 0 34 34" fill="none" xmlns="http://www.w3.org/2000/svg">
<path d="M2.47463 30.847C2.47463 31.3582 2.88797 31.7715 3.40158 31.7715H3.39425H30.8138H30.8211C31.3323 31.7715 31.7481 31.3582 31.7481 30.847V30.8543V3.42012V3.41278C31.7481 2.90162 31.3347 2.48828 30.8211 2.48828H30.8138H3.39425H3.40158C2.89042 2.48828 2.47463 2.90162 2.47463 3.41278L2.45996 3.42012V30.8568" fill="white"/>
<path d="M2.47463 30.847C2.47463 31.3582 2.88797 31.7715 3.40158 31.7715H3.39425H30.8138H30.8211C31.3323 31.7715 31.7481 31.3582 31.7481 30.847V30.8543V3.42012V3.41278C31.7481 2.90162 31.3347 2.48828 30.8211 2.48828H30.8138H3.39425H3.40158C2.89042 2.48828 2.47463 2.90162 2.47463 3.41278L2.45996 3.42012V30.8568" stroke="#302C6D" stroke-width="4" stroke-miterlimit="10"/>
</svg>
