<svg width="35" height="38" viewBox="0 0 35 38" fill="none" xmlns="http://www.w3.org/2000/svg">
<path d="M1.50049 1.5V1.60352L1.53271 1.58789V2.39648C1.53271 3.58292 2.49569 4.5459 3.68213 4.5459H4.49072L4.47412 4.5791H11.5171L11.5337 4.5459H11.8423C14.3244 4.5459 16.3394 6.5577 16.3394 9.04297V9.35156L16.311 9.36523C16.3751 13.725 16.4381 18.0847 16.5015 22.4443C16.5664 26.9086 16.6312 31.3736 16.6968 35.8379L16.6978 35.8457L16.6968 35.8545C16.6913 36.1538 16.9457 36.3976 17.2339 36.3867C17.5249 36.3755 17.7583 36.1131 17.731 35.8184L17.728 35.793V35.7676L17.9058 9.05859V9.0459C17.9058 6.56385 19.9176 4.54891 22.4028 4.54883H23.2124L23.1958 4.58203H30.2378L30.2544 4.54883H30.563C31.7494 4.54883 32.7124 3.58585 32.7124 2.39941V1.5H1.50049Z" fill="#302C6D" stroke="#302C6D"/>
<path d="M16.1973 35.845C16.066 26.9164 15.9376 17.9878 15.8063 9.05923L15.8391 9.04283C15.8391 6.83392 14.0485 5.04602 11.8423 5.04602L11.8259 5.07882H3.66554L3.68195 5.04602C2.21937 5.04602 1.0329 3.85955 1.0329 2.39697L1.0001 2.41337V1H33.2124V2.41611V2.3997C33.2124 3.86228 32.0259 5.04875 30.5634 5.04875L30.547 5.08156H22.3866L22.403 5.04875C20.1941 5.04875 18.4062 6.83939 18.4062 9.04556V9.06196C18.346 17.9659 18.2886 26.8672 18.2285 35.7711C18.2831 36.3534 17.8293 36.8647 17.2525 36.8865C16.6757 36.9084 16.1863 36.43 16.1973 35.845Z" fill="#302C6D" stroke="#302C6D" stroke-width="2" stroke-miterlimit="10"/>
</svg>
