<svg width="23" height="47" viewBox="0 0 23 47" fill="none" xmlns="http://www.w3.org/2000/svg">
<path d="M20.9495 43.4746H5.62912H5.62126C4.4607 43.4746 3.52021 42.5341 3.52021 41.3735V41.3814V5.04528L3.52283 5.05576C3.52283 4.47418 3.05127 4.00262 2.46969 4.00262L2.47492 4H1V46H22V44.5251L21.9921 44.5329C21.9921 43.9514 21.5206 43.4798 20.939 43.4798" fill="#302C6D"/>
<path d="M20.9495 43.4746H5.62912H5.62126C4.4607 43.4746 3.52021 42.5341 3.52021 41.3735V41.3814V5.04528L3.52283 5.05576C3.52283 4.47418 3.05127 4.00262 2.46969 4.00262L2.47492 4H1V46H22V44.5251L21.9921 44.5329C21.9921 43.9513 21.5206 43.4798 20.939 43.4798" stroke="#302C6D" stroke-miterlimit="10"/>
</svg>
