<svg width="31" height="45" viewBox="0 0 31 45" fill="none" xmlns="http://www.w3.org/2000/svg">
<path d="M3.56904 40.2109L4.17727 40.8112H2.96875L3.56904 40.2109Z" fill="#302C6D"/>
<path d="M3.56904 40.2109L4.17727 40.8112H2.96875L3.56904 40.2109Z" stroke="#302C6D" stroke-width="2" stroke-miterlimit="10" stroke-linecap="round"/>
<path d="M27.5853 2.05514L27.5509 2.02076L27.4187 1.88854L27.4108 1.8806V1.87003H27.4002L27.2997 1.76954L27.2072 1.67698L27.1913 1.66111L27.1093 1.57914L27.0194 1.48922L26.985 1.45485L26.9877 1.43898C26.7047 1.15602 26.3239 1 25.9246 1L25.9193 1.01058H17.346L17.3513 1C16.7483 1 16.2327 1.35436 15.992 1.86474L15.9814 1.87532V1.88589C15.9788 1.89118 15.9761 1.89647 15.9735 1.90176L15.9709 1.90969L15.9603 1.93085L15.9497 1.96523L15.9285 2.01018L15.918 2.05514L15.9074 2.07629L15.8968 2.11067L15.8862 2.17678L15.8757 2.23232L15.8651 2.28785V2.29843L15.8545 2.37512V2.39627V2.44123L15.8439 2.50734V42.3276C15.8439 42.6793 15.5583 42.9649 15.2066 42.9649L15.2013 42.9755H6.61477L6.62006 42.9649L6.15992 42.7877L4.17658 40.8044H4.16864L3.56835 40.2067L2.9707 40.8044L4.98843 42.8327L4.999 42.8459L5.00958 42.8538L5.0704 42.9173L5.07569 42.9252L5.09685 42.9464L5.118 42.9676L5.12858 42.9781H5.13123L5.1418 42.9887V42.9914L5.24229 43.0918L5.25287 43.1024L5.42476 43.277L5.43005 43.2822L5.43534 43.2849L5.55434 43.4039L5.5993 43.4383L5.63367 43.4726L5.68921 43.5176L5.72358 43.552L5.77912 43.5864L5.8135 43.6075L5.86903 43.6419L5.90341 43.663L5.96952 43.6974L6.0039 43.708L6.08059 43.7424L6.10174 43.753L6.17843 43.7873H6.19959L6.2895 43.8085H6.30008L6.40057 43.8296H6.41114L6.51163 43.8402L6.6227 43.8508H15.2013L15.3124 43.8402H15.323L15.4129 43.8296H15.434L15.5239 43.8085H15.5451L15.6218 43.7873H15.6429L15.7329 43.753L15.754 43.7424L15.8069 43.7159C15.8122 43.7133 15.8175 43.7106 15.8228 43.708L15.8545 43.6974L15.9206 43.663L15.955 43.6419L16.0105 43.6075L16.0555 43.5864L16.1004 43.552L16.1454 43.5176L16.1904 43.4726L16.1956 43.4674C16.2115 43.4541 16.2247 43.4409 16.2406 43.4277L16.2697 43.4065L16.3146 43.3616L16.3808 43.2849L16.4204 43.2267C16.4389 43.2029 16.4548 43.1791 16.4733 43.1527L16.5156 43.0971L16.5474 43.0257C16.5526 43.0151 16.5579 43.0046 16.5632 42.994L16.5712 42.9861V42.9755C16.5764 42.9623 16.5844 42.9517 16.5897 42.9385L16.595 42.9305C16.6029 42.9094 16.6108 42.8882 16.6188 42.8671L16.6267 42.8538L16.632 42.83C16.6373 42.8168 16.6426 42.8036 16.6452 42.7904L16.6478 42.7877L16.6584 42.7428L16.6637 42.719C16.6954 42.6 16.714 42.4757 16.714 42.3461V42.3435V42.3382V2.50999L16.7245 2.5047L17.3566 1.86738H25.9352L26.0119 1.87796L26.078 1.88854L26.1441 1.90969L26.2102 1.93085L26.2763 1.96523L26.3318 2.01018L26.3874 2.05514L28.3707 4.03848L28.9816 4.64935L29.5792 4.03848L27.5853 2.05514Z" fill="#302C6D" stroke="#302C6D" stroke-width="2" stroke-miterlimit="10" stroke-linecap="round" stroke-linejoin="round"/>
</svg>
