<svg width="30" height="48" viewBox="0 0 30 48" fill="none" xmlns="http://www.w3.org/2000/svg">
<g filter="url(#filter0_d_871_47883)">
<path d="M10.8987 4.09376H22.4973L22.5 4.07996C23.1291 4.14896 23.7582 3.94749 24.232 3.52248C24.7059 3.09747 24.9837 2.49306 24.9973 1.85279V1H5V39H25V38.1334C24.9864 37.4931 24.7086 36.886 24.2348 36.4637C23.7609 36.0387 23.1318 35.8372 22.5027 35.9062H22.5H10.8987H10.9041C8.69826 35.9062 6.90904 34.093 6.90904 31.8576L6.89542 31.8631V8.1369L6.90904 8.13138C6.90904 5.89593 8.69826 4.08272 10.9041 4.08272" fill="#302C6D"/>
<path d="M10.8987 4.09376H22.4973L22.5 4.07996C23.1291 4.14896 23.7582 3.94749 24.232 3.52248C24.7059 3.09747 24.9837 2.49306 24.9973 1.85279V1H5V39H25V38.1334C24.9864 37.4931 24.7086 36.886 24.2348 36.4637C23.7609 36.0387 23.1318 35.8372 22.5027 35.9062H22.5H10.8987H10.9041C8.69826 35.9062 6.90904 34.093 6.90904 31.8576L6.89542 31.8631V8.1369L6.90904 8.13138C6.90904 5.89593 8.69826 4.08272 10.9041 4.08272" stroke="#302C6D" stroke-miterlimit="10"/>
</g>
<defs>
<filter id="filter0_d_871_47883" x="0.5" y="0.5" width="29" height="47" filterUnits="userSpaceOnUse" color-interpolation-filters="sRGB">
<feFlood flood-opacity="0" result="BackgroundImageFix"/>
<feColorMatrix in="SourceAlpha" type="matrix" values="0 0 0 0 0 0 0 0 0 0 0 0 0 0 0 0 0 0 127 0" result="hardAlpha"/>
<feOffset dy="4"/>
<feGaussianBlur stdDeviation="2"/>
<feComposite in2="hardAlpha" operator="out"/>
<feColorMatrix type="matrix" values="0 0 0 0 0 0 0 0 0 0 0 0 0 0 0 0 0 0 0.25 0"/>
<feBlend mode="normal" in2="BackgroundImageFix" result="effect1_dropShadow_871_47883"/>
<feBlend mode="normal" in="SourceGraphic" in2="effect1_dropShadow_871_47883" result="shape"/>
</filter>
</defs>
</svg>
