<svg width="31" height="48" viewBox="0 0 31 48" fill="none" xmlns="http://www.w3.org/2000/svg">
<g filter="url(#filter0_d_871_47884)">
<path d="M11.1936 4.09376H23.3721L23.375 4.07996C24.0355 4.14896 24.6961 3.94749 25.1936 3.52248C25.6912 3.09747 25.9828 2.49306 25.9971 1.85279V1H5V39H26V38.1334C25.9857 37.4931 25.694 36.886 25.1965 36.4637C24.6989 36.0387 24.0384 35.8372 23.3779 35.9062H23.375H11.1936H11.1993C8.88317 35.9062 7.00449 34.093 7.00449 31.8576L6.9902 31.8631V8.1369L7.00449 8.13138C7.00449 5.89593 8.88317 4.08272 11.1993 4.08272" fill="#302C6D"/>
<path d="M11.1936 4.09376H23.3721L23.375 4.07996C24.0355 4.14896 24.6961 3.94749 25.1936 3.52248C25.6912 3.09747 25.9828 2.49306 25.9971 1.85279V1H5V39H26V38.1334C25.9857 37.4931 25.694 36.886 25.1965 36.4637C24.6989 36.0387 24.0384 35.8372 23.3779 35.9062H23.375H11.1936H11.1993C8.88317 35.9062 7.00449 34.093 7.00449 31.8576L6.9902 31.8631V8.1369L7.00449 8.13138C7.00449 5.89593 8.88317 4.08272 11.1993 4.08272" stroke="#302C6D" stroke-miterlimit="10"/>
</g>
<defs>
<filter id="filter0_d_871_47884" x="0.5" y="0.5" width="30.0002" height="47" filterUnits="userSpaceOnUse" color-interpolation-filters="sRGB">
<feFlood flood-opacity="0" result="BackgroundImageFix"/>
<feColorMatrix in="SourceAlpha" type="matrix" values="0 0 0 0 0 0 0 0 0 0 0 0 0 0 0 0 0 0 127 0" result="hardAlpha"/>
<feOffset dy="4"/>
<feGaussianBlur stdDeviation="2"/>
<feComposite in2="hardAlpha" operator="out"/>
<feColorMatrix type="matrix" values="0 0 0 0 0 0 0 0 0 0 0 0 0 0 0 0 0 0 0.25 0"/>
<feBlend mode="normal" in2="BackgroundImageFix" result="effect1_dropShadow_871_47884"/>
<feBlend mode="normal" in="SourceGraphic" in2="effect1_dropShadow_871_47884" result="shape"/>
</filter>
</defs>
</svg>
