<svg width="31" height="47" viewBox="0 0 31 47" fill="none" xmlns="http://www.w3.org/2000/svg">
<g filter="url(#filter0_d_871_47886)">
<path d="M10.7168 36.321H26V37.1683V38H5V1H26V1.84469L25.9974 2.69197H10.7168H10.7246C8.33171 2.69197 6.39369 4.60747 6.39369 6.9726L6.38054 6.96481V32.0456L6.39369 32.0534C6.39369 34.4185 8.33171 36.334 10.7246 36.334" fill="#302C6D"/>
<path d="M10.7168 36.321H26V37.1683V38H5V0.999999H26V1.84469L25.9974 2.69198H10.7168H10.7246C8.33171 2.69198 6.39369 4.60747 6.39369 6.9726L6.38054 6.96481V32.0456L6.39369 32.0534C6.39369 34.4185 8.33171 36.334 10.7246 36.334" stroke="#302C6D" stroke-miterlimit="10"/>
</g>
<defs>
<filter id="filter0_d_871_47886" x="0.5" y="0.5" width="30" height="46" filterUnits="userSpaceOnUse" color-interpolation-filters="sRGB">
<feFlood flood-opacity="0" result="BackgroundImageFix"/>
<feColorMatrix in="SourceAlpha" type="matrix" values="0 0 0 0 0 0 0 0 0 0 0 0 0 0 0 0 0 0 127 0" result="hardAlpha"/>
<feOffset dy="4"/>
<feGaussianBlur stdDeviation="2"/>
<feComposite in2="hardAlpha" operator="out"/>
<feColorMatrix type="matrix" values="0 0 0 0 0 0 0 0 0 0 0 0 0 0 0 0 0 0 0.25 0"/>
<feBlend mode="normal" in2="BackgroundImageFix" result="effect1_dropShadow_871_47886"/>
<feBlend mode="normal" in="SourceGraphic" in2="effect1_dropShadow_871_47886" result="shape"/>
</filter>
</defs>
</svg>
