<svg width="25" height="48" viewBox="0 0 25 48" fill="none" xmlns="http://www.w3.org/2000/svg">
<g filter="url(#filter0_d_871_47888)">
<path d="M6.42654 32.8952C6.42654 35.3227 8.41718 37.2915 10.8716 37.2915L10.8691 37.2767H19.9975V38.147V39H5V1H20V1.86786L19.9975 2.7382H11.1474H10.8716C8.41718 2.7382 6.42654 4.70701 6.42654 7.13455L6.4115 7.12711V32.8878" fill="#302C6D"/>
<path d="M6.42654 32.8952C6.42654 35.3227 8.41718 37.2915 10.8716 37.2915L10.8691 37.2767H19.9975V38.147V39H5V1H20V1.86786L19.9975 2.7382H11.1474H10.8716C8.41718 2.7382 6.42654 4.70701 6.42654 7.13455L6.4115 7.12711V32.8878" stroke="#302C6D" stroke-miterlimit="10"/>
</g>
<defs>
<filter id="filter0_d_871_47888" x="0.5" y="0.5" width="24" height="47" filterUnits="userSpaceOnUse" color-interpolation-filters="sRGB">
<feFlood flood-opacity="0" result="BackgroundImageFix"/>
<feColorMatrix in="SourceAlpha" type="matrix" values="0 0 0 0 0 0 0 0 0 0 0 0 0 0 0 0 0 0 127 0" result="hardAlpha"/>
<feOffset dy="4"/>
<feGaussianBlur stdDeviation="2"/>
<feComposite in2="hardAlpha" operator="out"/>
<feColorMatrix type="matrix" values="0 0 0 0 0 0 0 0 0 0 0 0 0 0 0 0 0 0 0.25 0"/>
<feBlend mode="normal" in2="BackgroundImageFix" result="effect1_dropShadow_871_47888"/>
<feBlend mode="normal" in="SourceGraphic" in2="effect1_dropShadow_871_47888" result="shape"/>
</filter>
</defs>
</svg>
