<svg width="49" height="49" viewBox="0 0 49 49" fill="none" xmlns="http://www.w3.org/2000/svg">
<circle cx="24.0428" cy="24.0428" r="24.0428" fill="black"/>
<path d="M24.0521 9.16093C24.6091 9.29556 25.1838 9.37942 25.7185 9.57329C28.4858 10.5796 30.1707 13.3454 29.8622 16.3251C29.5714 19.1332 27.311 21.4951 24.4906 21.9359C20.8932 22.4983 17.5511 19.9864 17.0949 16.3766C16.6518 12.8707 19.1568 9.65946 22.6834 9.2117C22.7381 9.20478 22.7896 9.17785 22.8427 9.16016C23.2458 9.16093 23.649 9.16093 24.0521 9.16093ZM28.7851 15.5834C28.7828 12.6476 26.4086 10.2696 23.4805 10.2696C20.5431 10.2696 18.1581 12.6653 18.1666 15.6073C18.1751 18.5416 20.5531 20.9088 23.4874 20.9042C26.4186 20.8996 28.7882 18.52 28.7851 15.5834Z" fill="white" stroke="white" stroke-miterlimit="10"/>
<path d="M23.4767 38.6453C20.2332 38.6453 16.9896 38.6484 13.746 38.6446C12.075 38.643 10.7294 37.5559 10.3794 35.9349C10.2463 35.3195 10.2894 34.7117 10.5094 34.1231C12.1881 29.6371 15.3047 26.6597 19.9293 25.3957C26.4318 23.6185 33.1759 26.8274 35.9709 32.9568C36.2502 33.5692 36.5064 34.2239 36.6025 34.8832C36.891 36.8597 35.3069 38.6346 33.2936 38.6423C30.0215 38.6538 26.7488 38.6446 23.4767 38.6453ZM23.4621 37.5367C26.6957 37.5367 29.9285 37.539 33.162 37.5359C34.8692 37.5336 35.9417 36.0026 35.3654 34.4009C33.3397 28.77 27.7389 25.3018 21.788 26.1619C16.7857 26.8851 13.3898 29.7425 11.5788 34.4563C11.4357 34.8294 11.4165 35.2964 11.4842 35.6957C11.6765 36.8181 12.6113 37.5352 13.7914 37.5359C17.015 37.539 20.2385 37.5367 23.4621 37.5367Z" fill="white" stroke="white" stroke-miterlimit="10"/>
</svg>
